<svg width="16" height="17" viewBox="0 0 16 17" fill="none" xmlns="http://www.w3.org/2000/svg">
<path d="M13.375 12.7078H13.875H13.375ZM2 12.7078H1.5H2ZM2 7.02075H1.5H2ZM11.75 5.39575V5.89575V5.39575ZM13.375 7.83275L13.3748 8.33275H13.375V7.83275ZM10.488 2.87272L10.9352 2.64904L10.935 2.64864L10.488 2.87272ZM9.398 2.50972L9.17462 2.06239L9.17442 2.06249L9.398 2.50972ZM14.188 11.0828H13.688H14.188ZM11.344 7.83179L11.3442 7.33179H11.344V7.83179ZM11.344 11.8948L11.3442 11.3948H11.344V11.8948ZM11.1411 9.86486H10.6411H11.1411ZM11.5472 9.86486H12.0472H11.5472ZM12.875 11.8958V12.7078H13.875V11.8958H12.875ZM12.875 12.7078C12.875 13.0061 12.7565 13.2923 12.5455 13.5032L13.2526 14.2104C13.6511 13.8118 13.875 13.2713 13.875 12.7078H12.875ZM12.5455 13.5032C12.3345 13.7142 12.0484 13.8328 11.75 13.8328V14.8328C12.3136 14.8328 12.8541 14.6089 13.2526 14.2104L12.5455 13.5032ZM11.75 13.8328H3.625V14.8328H11.75V13.8328ZM3.625 13.8328C3.32663 13.8328 3.04048 13.7142 2.8295 13.5032L2.1224 14.2104C2.52091 14.6089 3.06142 14.8328 3.625 14.8328V13.8328ZM2.8295 13.5032C2.61853 13.2923 2.5 13.0061 2.5 12.7078H1.5C1.5 13.2713 1.72388 13.8118 2.1224 14.2104L2.8295 13.5032ZM2.5 12.7078V7.02075H1.5V12.7078H2.5ZM2.5 7.02075C2.5 6.72238 2.61853 6.43624 2.8295 6.22526L2.1224 5.51815C1.72388 5.91667 1.5 6.45717 1.5 7.02075H2.5ZM2.8295 6.22526C3.04048 6.01428 3.32663 5.89575 3.625 5.89575V4.89575C3.06141 4.89575 2.52091 5.11964 2.1224 5.51815L2.8295 6.22526ZM3.625 5.89575H11.75V4.89575H3.625V5.89575ZM11.75 5.89575C12.0484 5.89575 12.3345 6.01428 12.5455 6.22526L13.2526 5.51815C12.8541 5.11964 12.3136 4.89575 11.75 4.89575V5.89575ZM12.5455 6.22526C12.7565 6.43624 12.875 6.72238 12.875 7.02075H13.875C13.875 6.45717 13.6511 5.91667 13.2526 5.51815L12.5455 6.22526ZM12.875 7.02075V7.83275H13.875V7.02075H12.875ZM12.1972 5.17208L10.9352 2.64904L10.0408 3.09639L11.3028 5.61943L12.1972 5.17208ZM10.935 2.64864C10.7791 2.33766 10.5061 2.10125 10.1761 1.99134L9.86011 2.94011C9.93879 2.96631 10.0039 3.02267 10.041 3.0968L10.935 2.64864ZM10.1761 1.99134C9.84603 1.88142 9.48585 1.90698 9.17462 2.06239L9.62138 2.95705C9.69557 2.92 9.78143 2.91391 9.86011 2.94011L10.1761 1.99134ZM9.17442 2.06249L3.40142 4.94852L3.84858 5.84298L9.62158 2.95695L9.17442 2.06249ZM13.375 12.3958C13.5473 12.3958 13.7181 12.3619 13.8775 12.2958L13.4948 11.372C13.4569 11.3876 13.4162 11.3958 13.375 11.3958V12.3958ZM13.8775 12.2958C14.0368 12.2299 14.1815 12.1331 14.3034 12.0112L13.5963 11.3041C13.5673 11.3332 13.5328 11.3562 13.4948 11.372L13.8775 12.2958ZM14.3034 12.0112C14.4254 11.8893 14.5221 11.7445 14.5881 11.5852L13.6642 11.2026C13.6484 11.2405 13.6254 11.275 13.5963 11.3041L14.3034 12.0112ZM14.5881 11.5852C14.654 11.426 14.688 11.2552 14.688 11.0828H13.688C13.688 11.1239 13.6799 11.1646 13.6642 11.2026L14.5881 11.5852ZM14.688 11.0828V8.64479H13.688V11.0828H14.688ZM14.688 8.64479C14.688 8.29656 14.5497 7.96259 14.3034 7.71636L13.5963 8.42346C13.655 8.48216 13.688 8.56177 13.688 8.64479H14.688ZM14.3034 7.71636C14.0561 7.46905 13.7217 7.33275 13.375 7.33275V8.33275C13.4595 8.33275 13.5387 8.36584 13.5963 8.42346L14.3034 7.71636ZM13.3752 7.33275L11.3442 7.33179L11.3438 8.33179L13.3748 8.33275L13.3752 7.33275ZM11.344 7.33179C10.6726 7.33179 10.0287 7.5985 9.55396 8.07325L10.2611 8.78035C10.5483 8.49314 10.9378 8.33179 11.344 8.33179V7.33179ZM9.55396 8.07325C9.07921 8.54799 8.8125 9.19189 8.8125 9.86329H9.8125C9.8125 9.45711 9.97385 9.06756 10.2611 8.78035L9.55396 8.07325ZM8.8125 9.86329C8.8125 10.5347 9.07921 11.1786 9.55396 11.6533L10.2611 10.9462C9.97385 10.659 9.8125 10.2695 9.8125 9.86329H8.8125ZM9.55396 11.6533C10.0287 12.1281 10.6726 12.3948 11.344 12.3948V11.3948C10.9378 11.3948 10.5483 11.2334 10.2611 10.9462L9.55396 11.6533ZM11.3438 12.3948L13.3748 12.3958L13.3752 11.3958L11.3442 11.3948L11.3438 12.3948ZM11.3441 9.56786C11.4229 9.56786 11.4984 9.59915 11.5541 9.65485L10.847 10.362C10.9789 10.4938 11.1577 10.5679 11.3441 10.5679V9.56786ZM11.5541 9.65485C11.6098 9.71055 11.6411 9.78609 11.6411 9.86486H10.6411C10.6411 10.0513 10.7152 10.2301 10.847 10.362L11.5541 9.65485ZM11.6411 9.86486C11.6411 9.94364 11.6098 10.0192 11.5541 10.0749L10.847 9.36777C10.7152 9.4996 10.6411 9.67841 10.6411 9.86486H11.6411ZM11.5541 10.0749C11.4984 10.1306 11.4229 10.1619 11.3441 10.1619V9.16187C11.1577 9.16187 10.9789 9.23593 10.847 9.36777L11.5541 10.0749ZM11.3441 10.5679C11.5302 10.5679 11.7093 10.494 11.8413 10.362L11.1342 9.65485C11.1902 9.59892 11.2657 9.56786 11.3441 9.56786V10.5679ZM11.8413 10.362C11.9732 10.2301 12.0472 10.0513 12.0472 9.86486H11.0472C11.0472 9.78609 11.0785 9.71055 11.1342 9.65485L11.8413 10.362ZM12.0472 9.86486C12.0472 9.67841 11.9732 9.4996 11.8413 9.36777L11.1342 10.0749C11.0785 10.0192 11.0472 9.94364 11.0472 9.86486H12.0472ZM11.8413 9.36777C11.7093 9.2357 11.5302 9.16187 11.3441 9.16187V10.1619C11.2657 10.1619 11.1902 10.1308 11.1342 10.0749L11.8413 9.36777Z" fill="#131F3C"/>
</svg>
