<svg width="16" height="17" viewBox="0 0 16 17" fill="none" xmlns="http://www.w3.org/2000/svg">
<path fill-rule="evenodd" clip-rule="evenodd" d="M7.28101 3.18628C7.20701 3.18628 7.13539 3.2125 7.07889 3.26029L2.32301 7.28518C2.11223 7.46357 1.79673 7.43731 1.61834 7.22652C1.43995 7.01573 1.46622 6.70024 1.67701 6.52185L6.43301 2.49685L6.43313 2.49675C6.67017 2.29628 6.97057 2.18628 7.28101 2.18628C7.59145 2.18628 7.89185 2.29628 8.12889 2.49675L8.12896 2.49681L12.072 5.83281C12.2828 6.01117 12.3091 6.32665 12.1307 6.53747C11.9524 6.74828 11.6369 6.77459 11.4261 6.59623L7.48313 3.26029C7.42663 3.2125 7.35502 3.18628 7.28101 3.18628ZM3.62501 7.21558C3.90115 7.21558 4.12501 7.43943 4.12501 7.71558V11.7786C4.12501 11.8616 4.15799 11.9412 4.21669 11.9999C4.27538 12.0586 4.355 12.0916 4.43801 12.0916H6.06301C6.33915 12.0916 6.56301 12.3154 6.56301 12.5916C6.56301 12.8677 6.33915 13.0916 6.06301 13.0916H4.43801C4.08978 13.0916 3.75581 12.9532 3.50958 12.707C3.26334 12.4608 3.12501 12.1268 3.12501 11.7786V7.71558C3.12501 7.43943 3.34887 7.21558 3.62501 7.21558ZM10.125 2.34155C9.84887 2.34155 9.62501 2.56541 9.62501 2.84155C9.62501 3.1177 9.84887 3.34155 10.125 3.34155H11.25V4.46655C11.25 4.7427 11.4739 4.96655 11.75 4.96655C12.0262 4.96655 12.25 4.7427 12.25 4.46655V2.84155C12.25 2.56541 12.0262 2.34155 11.75 2.34155H10.125ZM8.28684 8.3149C8.9901 7.61164 9.94392 7.21655 10.9385 7.21655C11.933 7.21655 12.8869 7.61164 13.5901 8.3149C14.2934 9.01816 14.6885 9.97199 14.6885 10.9666C14.6885 11.9611 14.2934 12.9149 13.5901 13.6182C12.8869 14.3215 11.933 14.7166 10.9385 14.7166C9.94392 14.7166 8.9901 14.3215 8.28684 13.6182C7.58358 12.9149 7.18849 11.9611 7.18849 10.9666C7.18849 9.97199 7.58358 9.01816 8.28684 8.3149ZM10.9385 8.21655C10.2091 8.21655 9.50967 8.50628 8.99394 9.02201C8.47822 9.53773 8.18849 10.2372 8.18849 10.9666C8.18849 11.6959 8.47822 12.3954 8.99394 12.9111C9.50967 13.4268 10.2091 13.7166 10.9385 13.7166C11.6678 13.7166 12.3673 13.4268 12.883 12.9111C13.3988 12.3954 13.6885 11.6959 13.6885 10.9666C13.6885 10.2372 13.3988 9.53773 12.883 9.02201C12.3673 8.50628 11.6678 8.21655 10.9385 8.21655ZM11.4385 10.9666C11.4385 10.6904 11.2146 10.4666 10.9385 10.4666C10.6623 10.4666 10.4385 10.6904 10.4385 10.9666V12.5916C10.4385 12.8677 10.6623 13.0916 10.9385 13.0916C11.2146 13.0916 11.4385 12.8677 11.4385 12.5916V10.9666ZM10.9385 9.24755V8.84155C11.1249 8.84155 11.3037 8.91562 11.4356 9.04746C11.5674 9.1793 11.6415 9.35811 11.6415 9.54455C11.6415 9.731 11.5674 9.90981 11.4356 10.0416C11.3037 10.1735 11.1249 10.2476 10.9385 10.2476V9.84155M10.9384 9.24755V8.84155C10.7519 8.84155 10.5731 8.91562 10.4413 9.04746C10.3094 9.17929 10.2354 9.3581 10.2354 9.54455C10.2354 9.731 10.3094 9.90981 10.4413 10.0416C10.5731 10.1735 10.7519 10.2476 10.9384 10.2476V9.84155" fill="#131F3C"/>
</svg>
