<svg width="16" height="17" viewBox="0 0 16 17" fill="none" xmlns="http://www.w3.org/2000/svg">
<path d="M8.59129 10.597H11.9987M8.59129 10.597C8.59129 10.89 8.5044 11.1764 8.34162 11.42C8.17883 11.6637 7.94745 11.8535 7.67675 11.9657C7.40604 12.0778 7.10817 12.1071 6.82079 12.05C6.53341 11.9928 6.26943 11.8517 6.06224 11.6445C5.85505 11.4373 5.71396 11.1734 5.65679 10.886C5.59963 10.5986 5.62897 10.3007 5.7411 10.03C5.85323 9.75931 6.04311 9.52794 6.28674 9.36515C6.53037 9.20236 6.8168 9.11548 7.10981 9.11548C7.50272 9.11548 7.87954 9.27156 8.15737 9.54939C8.43521 9.82722 8.59129 10.204 8.59129 10.597ZM3.9987 10.597H5.62833M9.18388 6.15251H3.9987M2.22092 1.70807H13.7765C14.2674 1.70807 14.6654 2.10604 14.6654 2.59696V14.1525C14.6654 14.6434 14.2674 15.0414 13.7765 15.0414H2.22092C1.73 15.0414 1.33203 14.6434 1.33203 14.1525V2.59696C1.33203 2.10604 1.73 1.70807 2.22092 1.70807ZM12.1468 6.15251C12.1468 5.8595 12.06 5.57307 11.8972 5.32945C11.7344 5.08582 11.503 4.89593 11.2323 4.7838C10.9616 4.67167 10.6637 4.64233 10.3763 4.6995C10.089 4.75666 9.82499 4.89776 9.6178 5.10495C9.41061 5.31214 9.26951 5.57611 9.21235 5.86349C9.15519 6.15087 9.18452 6.44875 9.29665 6.71945C9.40878 6.99016 9.59867 7.22153 9.8423 7.38432C10.0859 7.54711 10.3724 7.63399 10.6654 7.63399C11.0583 7.63399 11.4351 7.47791 11.7129 7.20008C11.9908 6.92225 12.1468 6.54543 12.1468 6.15251Z" stroke="#131F3C" stroke-linecap="round" stroke-linejoin="round"/>
</svg>
