<svg width="16" height="17" viewBox="0 0 16 17" fill="none" xmlns="http://www.w3.org/2000/svg">
<path d="M8.54389 9.73463L9.91989 8.37463L10.8729 8.62963C11.0196 8.6639 11.1728 8.65833 11.3166 8.61349C11.4604 8.56866 11.5896 8.48619 11.6909 8.37463C11.79 8.26819 11.8604 8.13824 11.8954 7.99704C11.9304 7.85584 11.9289 7.70805 11.8909 7.56763L11.6359 6.61963L12.0799 6.20763L13.0329 6.46263C13.1799 6.49728 13.3335 6.4919 13.4777 6.44706C13.6219 6.40221 13.7515 6.31953 13.8529 6.20763C13.9519 6.10229 14.0227 5.97359 14.0585 5.83352C14.0944 5.69345 14.0941 5.54659 14.0579 5.40663L13.8029 4.45863C14.0421 4.2194 14.1765 3.89494 14.1765 3.55663C14.1765 3.21831 14.0421 2.89385 13.8029 2.65463C13.5637 2.4154 13.2392 2.28101 12.9009 2.28101C12.5626 2.28101 12.2381 2.4154 11.9989 2.65463L6.73889 7.93063C6.01098 7.62147 5.19819 7.57516 4.43988 7.79966C3.68157 8.02415 3.02498 8.50545 2.58267 9.16104C2.14037 9.81663 1.93992 10.6057 2.01567 11.3929C2.09143 12.1801 2.43868 12.9164 2.99789 13.4756C3.5571 14.0348 4.29343 14.3821 5.08064 14.4578C5.86784 14.5336 6.65688 14.3331 7.31247 13.8908C7.96806 13.4485 8.44937 12.7919 8.67386 12.0336C8.89835 11.2753 8.85304 10.4625 8.54389 9.73463Z" stroke="#131F3C" stroke-linecap="round" stroke-linejoin="round"/>
<path d="M3.90789 11.5376C3.90789 11.8105 4.0163 12.0723 4.20927 12.2652C4.40225 12.4582 4.66398 12.5666 4.93689 12.5666C5.20979 12.5666 5.47152 12.4582 5.6645 12.2652C5.85747 12.0723 5.96589 11.8105 5.96589 11.5376C5.96589 11.2647 5.85747 11.003 5.6645 10.81C5.47152 10.617 5.20979 10.5086 4.93689 10.5086C4.66398 10.5086 4.40225 10.617 4.20927 10.81C4.0163 11.003 3.90789 11.2647 3.90789 11.5376Z" stroke="#131F3C" stroke-linecap="round" stroke-linejoin="round"/>
</svg>
