<svg width="15" height="13" viewBox="0 0 15 13" fill="none" xmlns="http://www.w3.org/2000/svg">
    <path d="M2.04514 12.1397C1.80939 12.1397 1.5833 12.046 1.4166 11.8793C1.2499 11.7126 1.15625 11.4865 1.15625 11.2508V1.54114C1.15703 1.28756 1.25811 1.04459 1.43742 0.865279C1.61673 0.685969 1.85971 0.584888 2.11329 0.584106H13.5373C13.7896 0.584888 14.0314 0.68547 14.2098 0.863891C14.3882 1.04231 14.4888 1.28408 14.4896 1.5364V11.1826C14.4888 11.4362 14.3877 11.6792 14.2084 11.8585C14.0291 12.0378 13.7861 12.1389 13.5325 12.1397H2.04514Z" stroke="#131F3C" stroke-linecap="round" stroke-linejoin="round"/>
    <path d="M14.4896 3.25073H1.15625" stroke="#131F3C" stroke-linecap="round" stroke-linejoin="round"/>
    <path d="M10.4883 5.91748L12.2661 7.69526L10.4883 9.47304" stroke="#131F3C" stroke-linecap="round" stroke-linejoin="round"/>
    <path d="M5.15668 5.91748L3.37891 7.69526L5.15668 9.47304" stroke="#131F3C" stroke-linecap="round" stroke-linejoin="round"/>
    <path d="M8.71137 5.91748L6.93359 9.47304" stroke="#131F3C" stroke-linecap="round" stroke-linejoin="round"/>
</svg>
