<svg width="16" height="17" viewBox="0 0 16 17" fill="none" xmlns="http://www.w3.org/2000/svg">
<path d="M7.68677 4.71754C7.52669 4.71754 7.36818 4.68601 7.22028 4.62475C7.07239 4.56349 6.938 4.4737 6.82481 4.3605C6.71162 4.24731 6.62182 4.11293 6.56056 3.96503C6.4993 3.81714 6.46777 3.65862 6.46777 3.49854C6.46777 3.17524 6.5962 2.86518 6.82481 2.63658C7.05342 2.40797 7.36347 2.27954 7.68677 2.27954C8.01007 2.27954 8.32013 2.40797 8.54874 2.63658C8.77734 2.86518 8.90577 3.17524 8.90577 3.49854C8.90577 3.65862 8.87424 3.81714 8.81298 3.96503C8.75172 4.11293 8.66193 4.24731 8.54874 4.3605C8.43554 4.4737 8.30116 4.56349 8.15326 4.62475C8.00537 4.68601 7.84685 4.71754 7.68677 4.71754ZM7.68677 4.71754L7.68701 12.0305M12.156 12.0295C12.3161 12.0295 12.4746 12.0611 12.6225 12.1223C12.7704 12.1836 12.9048 12.2734 13.018 12.3866C13.1312 12.4998 13.221 12.6342 13.2822 12.7821C13.3435 12.9299 13.375 13.0885 13.375 13.2485C13.375 13.4086 13.3435 13.5671 13.2822 13.715C13.221 13.8629 13.1312 13.9973 13.018 14.1105C12.9048 14.2237 12.7704 14.3135 12.6225 14.3748C12.4746 14.436 12.3161 14.4675 12.156 14.4675C11.9959 14.4675 11.8374 14.436 11.6895 14.3748C11.5416 14.3135 11.4072 14.2237 11.294 14.1105C11.1809 13.9973 11.0911 13.8629 11.0298 13.715C10.9685 13.5671 10.937 13.4086 10.937 13.2485C10.937 13.0885 10.9685 12.9299 11.0298 12.7821C11.0911 12.6342 11.1809 12.4998 11.294 12.3866C11.4072 12.2734 11.5416 12.1836 11.6895 12.1223C11.8374 12.0611 11.9959 12.0295 12.156 12.0295ZM12.156 12.0295C12.156 11.6027 12.0717 11.1801 11.9084 10.7858C11.7451 10.3915 11.5057 10.0332 11.2039 9.73144C10.9021 9.42965 10.5438 9.19026 10.1495 9.02693C9.75519 8.8636 9.33257 8.77954 8.90577 8.77954H6.46777C5.60582 8.77954 4.77917 9.12195 4.16968 9.73144C3.86789 10.0332 3.62849 10.3915 3.46517 10.7858C3.30184 11.1801 3.21777 11.6027 3.21777 12.0295M6.46777 13.2485C6.46777 13.4086 6.4993 13.5671 6.56056 13.715C6.62182 13.8629 6.71162 13.9973 6.82481 14.1105C6.938 14.2237 7.07239 14.3135 7.22028 14.3748C7.36818 14.436 7.52669 14.4675 7.68677 14.4675C7.84685 14.4675 8.00537 14.436 8.15326 14.3748C8.30116 14.3135 8.43554 14.2237 8.54874 14.1105C8.66193 13.9973 8.75172 13.8629 8.81298 13.715C8.87424 13.5671 8.90577 13.4086 8.90577 13.2485C8.90577 12.9252 8.77734 12.6152 8.54874 12.3866C8.32013 12.158 8.01007 12.0295 7.68677 12.0295C7.36347 12.0295 7.05342 12.158 6.82481 12.3866C6.5962 12.6152 6.46777 12.9252 6.46777 13.2485ZM2 13.2485C2 13.4086 2.03153 13.5671 2.09279 13.715C2.15405 13.8629 2.24384 13.9973 2.35704 14.1105C2.47023 14.2237 2.60461 14.3135 2.75251 14.3748C2.9004 14.436 3.05892 14.4675 3.219 14.4675C3.37908 14.4675 3.5376 14.436 3.68549 14.3748C3.83339 14.3135 3.96777 14.2237 4.08096 14.1105C4.19416 13.9973 4.28395 13.8629 4.34521 13.715C4.40647 13.5671 4.438 13.4086 4.438 13.2485C4.438 13.0885 4.40647 12.9299 4.34521 12.7821C4.28395 12.6342 4.19416 12.4998 4.08096 12.3866C3.96777 12.2734 3.83339 12.1836 3.68549 12.1223C3.5376 12.0611 3.37908 12.0295 3.219 12.0295C3.05892 12.0295 2.9004 12.0611 2.75251 12.1223C2.60461 12.1836 2.47023 12.2734 2.35704 12.3866C2.24384 12.4998 2.15405 12.6342 2.09279 12.7821C2.03153 12.9299 2 13.0885 2 13.2485Z" stroke="#131F3C" stroke-linecap="round" stroke-linejoin="round"/>
</svg>
