<svg width="160" height="30" viewBox="0 0 160 30" fill="none" xmlns="http://www.w3.org/2000/svg">
    <path fill-rule="evenodd" clip-rule="evenodd" d="M19.9843 5.72411L18.5441 1.97672C18.2505 1.21237 17.4029 0.786605 16.6266 1.05423C15.815 1.33334 15.402 2.22474 15.7072 3.01747L16.0828 3.9947C16.6795 5.54706 18.4254 6.32354 19.9823 5.72884C19.9823 5.72884 19.985 5.72614 19.9843 5.72411ZM10.4277 5.1807L6.5899 3.96627C5.80675 3.71825 4.94496 4.1136 4.67034 4.88539C4.39573 5.65715 4.82494 6.56951 5.63726 6.82632L6.63806 7.14326C8.22741 7.64607 9.92526 6.77023 10.4297 5.18543C10.4297 5.18543 10.4297 5.18139 10.4277 5.1807ZM9.68165 12.0191L6.3497 14.2432L6.34901 14.2439C5.42011 12.8612 5.79166 10.9892 7.17895 10.0633L8.02925 9.49561C8.73847 9.02256 9.70336 9.22598 10.1563 9.95519C10.5882 10.6493 10.3624 11.5643 9.68165 12.0191ZM4.04301 12.2908L0.697515 14.5237C0.0147157 14.9792 -0.212431 15.8969 0.221522 16.5924C0.655474 17.2878 1.63865 17.5216 2.34653 17.0492L3.21919 16.4667C4.60511 15.5415 4.97601 13.6722 4.04776 12.2915C4.04776 12.2915 4.04439 12.2895 4.04301 12.2908ZM8.6096 21.1186L8.60957 21.1193L8.61022 21.1187L8.6096 21.1186ZM8.6096 21.1186L8.94249 17.1361C9.01029 16.3218 8.43327 15.5757 7.6196 15.479C6.76524 15.3776 6.0038 16.0028 5.93328 16.8496L5.84852 17.866C5.71023 19.5242 6.94598 20.9804 8.6096 21.1186ZM12.4945 20.8998L15.4114 23.6423H15.4121C14.2662 24.8533 12.3527 24.9088 11.1383 23.7666L10.3939 23.0665C9.77346 22.4833 9.75784 21.5006 10.3701 20.8978C10.9532 20.324 11.8984 20.3396 12.4945 20.8998ZM16.9416 29.0722L14.0131 26.3182L14.0138 26.3175C14.0125 26.3162 14.0138 26.3128 14.0138 26.3128C15.1584 25.1038 17.0691 25.0484 18.2822 26.1891L19.0457 26.9075C19.6654 27.4901 19.6552 28.4977 19.0714 29.0742C18.4876 29.6507 17.539 29.6338 16.9416 29.0722ZM5.63906 21.6985L5.3048 25.698C5.23631 26.5137 5.81467 27.2631 6.63105 27.3584C7.44744 27.4537 8.24345 26.8333 8.31466 25.9872L8.40214 24.9444C8.54046 23.288 7.30571 21.8337 5.64381 21.6958C5.64381 21.6958 5.6404 21.6971 5.63975 21.6992L5.63906 21.6985ZM14.1549 9.4072L10.3328 8.1975C10.8379 6.61137 12.5378 5.73415 14.1291 6.23765L15.1042 6.5465C15.9172 6.80331 16.3593 7.68252 16.0698 8.49014C15.7944 9.25987 14.936 9.65454 14.1549 9.4072ZM18.9945 11.2625L17.5605 7.53C19.1193 6.93461 20.8673 7.71178 21.4647 9.26616L21.8308 10.2184C22.136 11.0125 21.7223 11.9052 20.908 12.183C20.1323 12.4479 19.2875 12.0255 18.9945 11.2625ZM25.5172 13.5106L27.5595 10.0517C27.9758 9.34618 27.7812 8.421 27.0876 7.9824C26.3939 7.54377 25.406 7.75803 24.9741 8.48995L24.4418 9.39213C23.5963 10.8249 24.0757 12.6692 25.5131 13.5126C25.5131 13.5126 25.5172 13.5126 25.5179 13.5112L25.5172 13.5106ZM20.5552 16.1918L22.5887 12.7471V12.7465C24.0275 13.5905 24.5076 15.4376 23.6607 16.8716L23.142 17.7509C22.7094 18.4834 21.7513 18.7173 21.0258 18.2564C20.3349 17.8178 20.1396 16.896 20.5552 16.1918ZM22.8598 22.6745L26.8461 22.1095C27.6598 21.994 28.2639 21.2654 28.1751 20.4511C28.0829 19.6002 27.3024 19.0008 26.4589 19.1204L25.4195 19.2677C23.7685 19.5015 22.6205 21.0255 22.8551 22.6711C22.8551 22.6711 22.8558 22.6723 22.8568 22.6732C22.8575 22.6739 22.8583 22.6745 22.8592 22.6745H22.8598ZM17.6624 20.479L21.6324 19.9161C21.8677 21.5637 20.7184 23.089 19.0653 23.3235L18.0523 23.4675C17.2074 23.5871 16.427 22.9863 16.3361 22.1334C16.2493 21.3211 16.8508 20.5939 17.6624 20.479Z" fill="url(#paint0_linear_2285_13844)"/>
    <path fill-rule="evenodd" clip-rule="evenodd" d="M108.878 21.9298C110.134 21.198 111.13 20.2001 111.864 18.939C112.595 17.6751 112.964 16.3012 112.964 14.8174V0.5H111.568C110.593 0.5 109.803 1.28673 109.803 2.25858V8.89954C109.185 8.17934 108.451 7.61532 107.601 7.21324C106.751 6.81121 105.802 6.60874 104.76 6.60874C103.271 6.60874 101.898 6.97319 100.642 7.70495C99.3854 8.43675 98.3869 9.43463 97.6411 10.6957C96.8953 11.9597 96.524 13.3307 96.524 14.8174C96.524 16.3041 96.8953 17.6779 97.6411 18.939C98.3869 20.2001 99.3854 21.198 100.642 21.9298C101.898 22.6615 103.271 23.026 104.76 23.026C106.249 23.026 107.621 22.6615 108.878 21.9298ZM100.323 12.194C100.77 11.3986 101.382 10.7738 102.159 10.3168C102.934 9.85979 103.823 9.6313 104.76 9.6313C105.697 9.6313 106.559 9.85979 107.346 10.3168C108.132 10.7738 108.75 11.3986 109.197 12.194C109.644 12.9894 109.867 13.8658 109.867 14.8203C109.867 15.7748 109.644 16.6511 109.197 17.4466C108.75 18.242 108.141 18.8667 107.363 19.3237C106.585 19.7807 105.715 20.0092 104.76 20.0092C103.805 20.0092 102.937 19.7807 102.159 19.3237C101.382 18.8667 100.77 18.242 100.323 17.4466C99.8758 16.6511 99.6522 15.7748 99.6522 14.8203C99.6522 13.8658 99.8758 12.9894 100.323 12.194ZM141.005 21.9264C139.749 21.1946 138.75 20.1967 138.004 18.9356C137.258 17.6746 136.887 16.3007 136.887 14.814C136.887 13.3273 137.258 11.9563 138.004 10.6923C138.75 9.4312 139.749 8.43336 141.005 7.70156C142.262 6.96979 143.634 6.60534 145.123 6.60534C146.611 6.60534 147.984 6.96979 149.241 7.70156C150.497 8.43336 151.493 9.4312 152.227 10.6923C152.961 11.9534 153.327 13.3273 153.327 14.814V22.7681H151.963C150.988 22.7681 150.198 21.9813 150.198 21.0095V20.2546C149.815 21.0384 149.151 21.6979 148.202 22.2272C147.256 22.7565 146.229 23.0226 145.12 23.0226C143.631 23.0226 142.258 22.6582 141.002 21.9264H141.005ZM147.74 19.3174C148.507 18.8604 149.113 18.2357 149.56 17.4403C150.007 16.6448 150.23 15.7685 150.23 14.814C150.23 13.8595 150.013 12.9831 149.577 12.1877C149.142 11.3923 148.536 10.7675 147.758 10.3105C146.98 9.8535 146.113 9.625 145.158 9.625C144.203 9.625 143.327 9.8535 142.54 10.3105C141.753 10.7675 141.136 11.3923 140.689 12.1877C140.242 12.9831 140.018 13.8595 140.018 14.814C140.018 15.7685 140.247 16.6448 140.706 17.4403C141.165 18.2357 141.78 18.8604 142.557 19.3174C143.335 19.7744 144.203 20.0029 145.16 20.0029C146.118 20.0029 146.98 19.7744 147.746 19.3174H147.74ZM59.1317 6.8647L54.0242 22.2899C53.9285 22.5762 53.6586 22.7729 53.3569 22.7729H51.2528C50.9453 22.7729 50.6754 22.5762 50.5824 22.2841L47.164 11.6053L43.7455 22.2841C43.6525 22.5762 43.3799 22.7729 43.0752 22.7729H40.971C40.6663 22.7729 40.3964 22.5791 40.3037 22.2899L35.1904 6.8647H37.097C37.8602 6.8647 38.5365 7.36217 38.7628 8.09108L42.0246 18.6686L45.3385 7.72373C45.4925 7.21469 45.9626 6.8647 46.4993 6.8647H47.8286C48.3627 6.8647 48.8324 7.21469 48.9894 7.72373L52.3033 18.6686L55.5651 8.09108C55.7887 7.36217 56.4648 6.8647 57.2309 6.8647H59.1317ZM61.0471 18.9356C61.7929 20.1967 62.7914 21.1946 64.0479 21.9264H64.0452C65.3017 22.6582 66.6742 23.0226 68.1631 23.0226C69.2714 23.0226 70.2986 22.7565 71.2446 22.2272C72.1937 21.6979 72.8583 21.0384 73.2412 20.2546V21.0095C73.2412 21.9813 74.0306 22.7681 75.0057 22.7681H76.3698V14.814C76.3698 13.3273 76.0042 11.9534 75.2699 10.6923C74.5356 9.4312 73.5402 8.43336 72.2837 7.70156C71.0272 6.96979 69.6547 6.60534 68.1658 6.60534C66.6773 6.60534 65.3044 6.96979 64.0479 7.70156C62.7914 8.43336 61.7929 9.4312 61.0471 10.6923C60.3013 11.9563 59.93 13.3273 59.93 14.814C59.93 16.3007 60.3013 17.6746 61.0471 18.9356ZM72.603 17.4403C72.1562 18.2357 71.5494 18.8604 70.7833 19.3174H70.789C70.023 19.7744 69.1612 20.0029 68.2037 20.0029C67.2458 20.0029 66.3783 19.7744 65.6003 19.3174C64.8228 18.8604 64.2075 18.2357 63.7489 17.4403C63.2906 16.6448 63.0613 15.7685 63.0613 14.814C63.0613 13.8595 63.2849 12.9831 63.7316 12.1877C64.1784 11.3923 64.7967 10.7675 65.5831 10.3105C66.3695 9.8535 67.2458 9.625 68.2006 9.625C69.1554 9.625 70.023 9.8535 70.8009 10.3105C71.5785 10.7675 72.1849 11.3923 72.6202 12.1877C73.0555 12.9831 73.2733 13.8595 73.2733 14.814C73.2733 15.7685 73.0497 16.6448 72.603 17.4403ZM91.5722 22.7711H90.4203V14.4033C90.4203 12.8125 90.0864 11.6208 89.416 10.8225C88.7457 10.0243 87.7824 9.63088 86.5259 9.63088C85.2694 9.63088 84.3058 10.03 83.6355 10.8225C82.9651 11.6151 82.6312 12.8125 82.6312 14.4033V22.7711H81.2675C80.2924 22.7711 79.503 21.9843 79.503 21.0125V14.4033C79.503 11.8146 80.1416 9.87094 81.4184 8.56359C82.6952 7.25911 84.3988 6.60832 86.5259 6.60832C88.653 6.60832 90.3563 7.25911 91.6331 8.56359C92.9103 9.86807 93.5485 11.8146 93.5485 14.4033V20.8013C93.5485 21.8889 92.6634 22.7711 91.5722 22.7711ZM128.579 21.4858V22.7729H116.359C116.04 22.7729 115.778 22.5126 115.778 22.1944V20.1524C115.778 19.8921 115.872 19.6404 116.043 19.4437L124.301 9.88727H117.966C117.006 9.88727 116.225 9.10922 116.225 8.15182V6.8647H127.711C128.031 6.8647 128.292 7.12502 128.292 7.44318V9.48233C128.292 9.74265 128.199 9.99426 128.028 10.1938L119.737 19.7503H126.838C127.798 19.7503 128.579 20.5284 128.579 21.4858ZM158.315 6.86173C157.34 6.86173 156.551 7.64844 156.551 8.62029V22.7699H157.938C158.898 22.7699 159.679 21.9919 159.679 21.0345V6.86173H158.315Z" fill="#5A2AE4"/>
    <path d="M132.383 22.3321C132.012 21.9619 131.823 21.5107 131.823 20.9814C131.823 20.4521 132.009 19.9748 132.383 19.6133C132.755 19.2517 133.208 19.0724 133.739 19.0724C134.27 19.0724 134.716 19.2575 135.079 19.6277C135.442 19.998 135.622 20.4492 135.622 20.9814C135.622 21.5136 135.442 21.9619 135.079 22.3321C134.716 22.7024 134.27 22.8904 133.739 22.8904C133.208 22.8904 132.755 22.7052 132.383 22.3321Z" fill="#00CDFF"/>
    <path d="M156.762 4.14133C156.39 3.7711 156.201 3.31989 156.201 2.79058C156.201 2.26127 156.387 1.78402 156.762 1.42247C157.133 1.06092 157.586 0.881592 158.117 0.881592C158.648 0.881592 159.095 1.06671 159.458 1.43693C159.82 1.80716 160 2.25837 160 2.79058C160 3.32278 159.82 3.7711 159.458 4.14133C159.095 4.51156 158.648 4.69957 158.117 4.69957C157.586 4.69957 157.133 4.51446 156.762 4.14133Z" fill="#00CDFF"/>
    <defs>
        <linearGradient id="paint0_linear_2285_13844" x1="23.5898" y1="22.7886" x2="4.30188" y2="8.36927" gradientUnits="userSpaceOnUse">
            <stop stop-color="#5A2AE4"/>
            <stop offset="1" stop-color="#00CDFF"/>
        </linearGradient>
    </defs>
</svg>
