<svg width="32" height="32" viewBox="0 0 32 32" fill="none" xmlns="http://www.w3.org/2000/svg">
    <path fill-rule="evenodd" clip-rule="evenodd" d="M22.0879 5.99556L20.6 2.05453C20.2967 1.25069 19.421 0.802923 18.6189 1.08438C17.7804 1.37791 17.3538 2.31537 17.669 3.14907L18.0571 4.17679C18.6736 5.80936 20.4774 6.62597 22.0858 6.00054C22.0858 6.00054 22.0886 5.99769 22.0879 5.99556ZM12.2146 5.42407L8.24966 4.14688C7.44056 3.88605 6.55022 4.30183 6.2665 5.1135C5.98279 5.92513 6.42622 6.88464 7.26546 7.15472L8.29942 7.48804C9.94144 8.01684 11.6955 7.09573 12.2167 5.42905C12.2167 5.42905 12.2167 5.42479 12.2146 5.42407ZM11.4439 12.6158L8.00151 14.9549L8.0008 14.9556C7.04112 13.5014 7.42498 11.5327 8.85823 10.559L9.73671 9.96194C10.4694 9.46445 11.4663 9.67838 11.9342 10.4453C12.3804 11.1752 12.1472 12.1375 11.4439 12.6158ZM5.61839 12.9016L2.16203 15.2498C1.45661 15.7289 1.22194 16.694 1.67027 17.4254C2.1186 18.1568 3.13435 18.4027 3.86569 17.9059L4.76726 17.2932C6.19911 16.3202 6.5823 14.3543 5.62329 12.9023C5.62329 12.9023 5.61981 12.9001 5.61839 12.9016ZM10.3363 22.1855L10.3363 22.1863L10.3369 22.1856L10.3363 22.1855ZM10.3363 22.1855L10.6802 17.9972C10.7503 17.1408 10.1541 16.3562 9.31349 16.2545C8.43082 16.1479 7.64414 16.8053 7.57129 17.6959L7.48372 18.7648C7.34085 20.5088 8.61755 22.0402 10.3363 22.1855ZM14.3499 21.9554L17.3635 24.8396H17.3642C16.1803 26.1132 14.2035 26.1715 12.9488 24.9704L12.1797 24.2341C11.5387 23.6207 11.5226 22.5873 12.1552 21.9533C12.7576 21.3499 13.7341 21.3662 14.3499 21.9554ZM18.9444 30.5501L15.9189 27.6538L15.9196 27.6531C15.9182 27.6517 15.9196 27.6481 15.9196 27.6481C17.1021 26.3766 19.0761 26.3184 20.3294 27.5181L21.1182 28.2736C21.7584 28.8863 21.7479 29.9459 21.1448 30.5522C20.5416 31.1585 19.5616 31.1407 18.9444 30.5501ZM7.26732 22.7954L6.92198 27.0015C6.85122 27.8594 7.44875 28.6476 8.29218 28.7478C9.13562 28.848 9.95801 28.1955 10.0316 27.3057L10.122 26.2091C10.2649 24.467 8.98919 22.9375 7.27223 22.7925C7.27223 22.7925 7.2687 22.7939 7.26803 22.7961L7.26732 22.7954ZM16.0653 9.86896L12.1165 8.59676C12.6384 6.92867 14.3946 6.00612 16.0387 6.53563L17.0461 6.86045C17.886 7.13052 18.3427 8.05516 18.0436 8.90451C17.7592 9.71402 16.8723 10.1291 16.0653 9.86896ZM21.0653 11.8202L19.5838 7.89476C21.1943 7.26861 23.0002 8.08594 23.6173 9.72064L23.9956 10.7221C24.3109 11.5572 23.8835 12.4961 23.0422 12.7882C22.2408 13.0668 21.368 12.6226 21.0653 11.8202ZM27.8042 14.1844L29.9141 10.5468C30.3442 9.80479 30.1432 8.8318 29.4265 8.37054C28.7099 7.90925 27.6893 8.13458 27.243 8.90431L26.6931 9.85311C25.8196 11.3599 26.3149 13.2995 27.7999 14.1865C27.7999 14.1865 27.8042 14.1865 27.8048 14.1851L27.8042 14.1844ZM22.6777 17.0041L24.7786 13.3815V13.3808C26.2651 14.2685 26.7611 16.2109 25.8861 17.7191L25.3502 18.6438C24.9033 19.4142 23.9134 19.6601 23.1639 19.1754C22.4501 18.7141 22.2483 17.7447 22.6777 17.0041ZM25.0587 23.8218L29.1771 23.2276C30.0177 23.1061 30.6419 22.34 30.5501 21.4835C30.4548 20.5887 29.6485 19.9583 28.7771 20.0841L27.7032 20.239C25.9974 20.4849 24.8114 22.0876 25.0538 23.8183C25.0538 23.8183 25.0545 23.8195 25.0556 23.8205C25.0563 23.8212 25.0571 23.8218 25.058 23.8218H25.0587ZM19.6891 21.5129L23.7906 20.9208C24.0337 22.6536 22.8463 24.2577 21.1384 24.5044L20.0919 24.6557C19.219 24.7815 18.4127 24.1497 18.3188 23.2528C18.2292 22.3985 18.8506 21.6337 19.6891 21.5129Z" fill="url(#paint0_linear_4114_5907)"/>
    <defs>
        <linearGradient id="paint0_linear_4114_5907" x1="25.8129" y1="23.9419" x2="5.63304" y2="9.12161" gradientUnits="userSpaceOnUse">
            <stop stop-color="#5A2AE4"/>
            <stop offset="1" stop-color="#00CDFF"/>
        </linearGradient>
    </defs>
</svg>
