<svg width="16" height="16" viewBox="0 0 16 16" fill="none" xmlns="http://www.w3.org/2000/svg">
<path fill-rule="evenodd" clip-rule="evenodd" d="M3.98321 0.521173C2.38639 1.19981 1.12455 2.48498 0.475294 4.09397C-0.173963 5.70296 -0.15746 7.50397 0.521173 9.10079C1.19981 10.6976 2.48498 11.9594 4.09397 12.6087C5.70296 13.258 7.50397 13.2415 9.10079 12.5628C9.72411 12.2979 10.2964 11.9406 10.8011 11.5077L15.1468 15.854C15.3421 16.0493 15.6587 16.0493 15.8539 15.854C16.0492 15.6588 16.0492 15.3422 15.854 15.1469L11.5082 10.8005C11.9667 10.2658 12.3401 9.65561 12.6087 8.99003C13.258 7.38104 13.2415 5.58003 12.5628 3.98321C11.8842 2.38639 10.599 1.12455 8.99003 0.475295C7.38104 -0.173963 5.58003 -0.15746 3.98321 0.521173ZM10.4735 10.448C10.9893 9.92886 11.4022 9.30768 11.6814 8.61583C12.2314 7.25279 12.2174 5.72708 11.6425 4.37434C11.0676 3.02161 9.97887 1.95266 8.61583 1.40264C7.25278 0.852629 5.72708 0.866609 4.37434 1.44151C3.02161 2.01641 1.95265 3.10513 1.40264 4.46817C0.852629 5.83122 0.866609 7.35692 1.44151 8.70966C2.01641 10.0624 3.10513 11.1313 4.46817 11.6814C5.83122 12.2314 7.35692 12.2174 8.70966 11.6425C9.36476 11.3641 9.95331 10.9652 10.4486 10.4729C10.4526 10.4686 10.4567 10.4644 10.4609 10.4602C10.465 10.4561 10.4692 10.452 10.4735 10.448Z" fill="#585961"/>
</svg>
