<svg width="16" height="16" viewBox="0 0 16 16" fill="none" xmlns="http://www.w3.org/2000/svg">
<path fill-rule="evenodd" clip-rule="evenodd" d="M3.98321 0.520319C2.38639 1.19895 1.12455 2.48413 0.475294 4.09312C-0.173963 5.70211 -0.15746 7.50311 0.521173 9.09994C1.19981 10.6968 2.48498 11.9586 4.09397 12.6079C5.70296 13.2571 7.50397 13.2406 9.10079 12.562C9.72379 12.2972 10.2958 11.9401 10.8003 11.5075L15.1468 15.8546C15.3421 16.0499 15.6587 16.0499 15.8539 15.8547C16.0492 15.6594 16.0492 15.3428 15.854 15.1476L11.5075 10.8004C11.9664 10.2655 12.34 9.65508 12.6087 8.98918C13.258 7.38019 13.2415 5.57918 12.5628 3.98236C11.8842 2.38553 10.599 1.1237 8.99003 0.47444C7.38104 -0.174818 5.58003 -0.158315 3.98321 0.520319ZM1.40264 4.46732C1.95265 3.10428 3.02161 2.01555 4.37434 1.44065C5.72708 0.865754 7.25278 0.851774 8.61583 1.40179C9.97887 1.9518 11.0676 3.02075 11.6425 4.37349C12.2174 5.72622 12.2314 7.25193 11.6814 8.61497C11.1313 9.97802 10.0624 11.0667 8.70966 11.6416C7.35692 12.2165 5.83122 12.2305 4.46817 11.6805C3.10513 11.1305 2.01641 10.0615 1.44151 8.7088C0.866609 7.35607 0.852629 5.83036 1.40264 4.46732Z" fill="#9FA0A8"/>
</svg>
