<svg width="22" height="22" viewBox="0 0 22 22" fill="none" xmlns="http://www.w3.org/2000/svg">
<path d="M18.2702 3.72407C16.8314 2.28654 14.9986 1.30788 13.0037 0.911783C11.0087 0.515685 8.94107 0.719938 7.06216 1.49872C5.18325 2.2775 3.57741 3.59585 2.44763 5.28712C1.31785 6.97839 0.714844 8.96664 0.714844 11.0006C0.714844 13.0345 1.31785 15.0227 2.44763 16.714C3.57741 18.4053 5.18325 19.7236 7.06216 20.5024C8.94107 21.2812 11.0087 21.4854 13.0037 21.0893C14.9986 20.6932 16.8314 19.7146 18.2702 18.277C20.1971 16.3456 21.2792 13.7288 21.2792 11.0006C21.2792 8.27234 20.1971 5.65551 18.2702 3.72407ZM15.0295 13.8125C15.1759 13.9756 15.2543 14.1885 15.2486 14.4076C15.243 14.6267 15.1537 14.8353 14.999 14.9906C14.8444 15.1458 14.6362 15.236 14.4172 15.2426C14.1981 15.2492 13.9849 15.1717 13.8212 15.026L11.1541 12.3589C11.1137 12.319 11.0591 12.2967 11.0023 12.2967C10.9455 12.2967 10.891 12.319 10.8505 12.3589L8.18435 15.026C8.02146 15.1831 7.80396 15.271 7.57762 15.271C7.35128 15.271 7.13378 15.1831 6.97089 15.026C6.89116 14.9464 6.8279 14.8518 6.78475 14.7477C6.74159 14.6436 6.71938 14.532 6.71938 14.4193C6.71938 14.3066 6.74159 14.195 6.78475 14.0909C6.8279 13.9868 6.89116 13.8922 6.97089 13.8125L9.63793 11.1463C9.65787 11.1265 9.6737 11.1029 9.68449 11.0769C9.69529 11.051 9.70085 11.0231 9.70085 10.995C9.70085 10.9669 9.69529 10.939 9.68449 10.913C9.6737 10.887 9.65787 10.8635 9.63793 10.8436L6.97089 8.17657C6.82278 8.01371 6.74298 7.80012 6.74801 7.58004C6.75303 7.35995 6.8425 7.15023 6.99789 6.99429C7.15327 6.83835 7.36268 6.74814 7.58274 6.74234C7.8028 6.73654 8.01667 6.81558 8.18006 6.96311L10.8463 9.63016C10.8662 9.65012 10.8898 9.66596 10.9159 9.67677C10.9419 9.68758 10.9698 9.69314 10.998 9.69314C11.0262 9.69314 11.0542 9.68758 11.0802 9.67677C11.1063 9.66596 11.1299 9.65012 11.1498 9.63016L13.8169 6.96311C13.9778 6.80231 14.196 6.71202 14.4235 6.7121C14.651 6.71218 14.8691 6.80263 15.0299 6.96354C15.1907 7.12446 15.281 7.34266 15.2809 7.57015C15.2808 7.79763 15.1904 8.01577 15.0295 8.17657L12.3624 10.8436C12.3224 10.8838 12.2999 10.9382 12.2999 10.995C12.2999 11.0517 12.3224 11.1062 12.3624 11.1463L15.0295 13.8125Z" fill="black"/>
</svg>
