<svg width="16" height="16" viewBox="0 0 16 16" fill="none" xmlns="http://www.w3.org/2000/svg">
<path d="M3 8.01531C3.00037 8.15716 3.03081 8.29733 3.08933 8.42659C3.14785 8.55584 3.23312 8.67125 3.33952 8.76521L8.00229 12.8643C8.12274 12.9628 8.27676 13.0107 8.4319 12.998C8.58703 12.9853 8.73116 12.9129 8.83392 12.7961C8.93667 12.6793 8.99002 12.5272 8.98272 12.3719C8.97542 12.2166 8.90804 12.0702 8.79479 11.9636L5.19228 8.79729C5.17648 8.78329 5.16532 8.76483 5.16025 8.74435C5.15519 8.72387 5.15648 8.70233 5.16394 8.6826C5.1714 8.66286 5.18468 8.64585 5.20203 8.63382C5.21939 8.62179 5.23998 8.61531 5.26111 8.61523H12.3994C12.5587 8.61523 12.7114 8.55203 12.8241 8.43952C12.9367 8.32701 13 8.17442 13 8.01531C13 7.8562 12.9367 7.7036 12.8241 7.5911C12.7114 7.47859 12.5587 7.41538 12.3994 7.41538L5.26236 7.41538C5.24124 7.41518 5.22069 7.4086 5.20338 7.39652C5.18608 7.38444 5.17284 7.36741 5.16539 7.34768C5.15795 7.32795 5.15665 7.30642 5.16168 7.28594C5.1667 7.26546 5.1778 7.24697 5.19353 7.2329L8.79604 4.06663C8.85904 4.0158 8.9111 3.95277 8.94909 3.88133C8.98708 3.80988 9.01021 3.73151 9.01709 3.6509C9.02397 3.5703 9.01446 3.48915 8.98914 3.41231C8.96381 3.33547 8.92319 3.26455 8.86971 3.2038C8.81623 3.14304 8.75101 3.09372 8.67796 3.0588C8.60491 3.02387 8.52554 3.00406 8.44463 3.00056C8.36372 2.99706 8.28293 3.00994 8.20713 3.03843C8.13133 3.06691 8.06208 3.11042 8.00355 3.16632L3.33994 7.2654C3.23342 7.35929 3.14805 7.47468 3.08945 7.60394C3.03086 7.7332 3.00037 7.87341 3 8.01531Z" fill="#1971D8"/>
</svg>
