<svg width="17" height="10" viewBox="0 0 17 10" fill="none" xmlns="http://www.w3.org/2000/svg">
<path d="M8.81293 9.46003C8.3473 9.46003 7.9482 9.28125 7.68213 8.98329L1.0969 2.36843C0.697795 1.89168 0.764312 1.17656 1.29645 0.819003C1.82859 0.461443 2.56028 0.461443 2.95939 0.938189L8.67989 6.77833C8.74641 6.83793 8.81293 6.83793 8.94596 6.77833L14.6665 0.938189C15.1321 0.461443 15.8638 0.40185 16.3959 0.819003C16.9281 1.23616 16.9946 1.89168 16.529 2.36843C16.529 2.36843 16.529 2.36843 16.4624 2.42802L9.94372 9.04288C9.67765 9.28125 9.21203 9.46003 8.81293 9.46003Z" fill="black"/>
</svg>
