<svg width="17" height="10" viewBox="0 0 17 10" fill="none" xmlns="http://www.w3.org/2000/svg">
<path d="M8.86774 0.539967C9.33336 0.539967 9.73247 0.718747 9.99853 1.01671L16.5838 7.63157C16.9829 8.10832 16.9164 8.82344 16.3842 9.181C15.8521 9.53856 15.1204 9.53856 14.7213 9.06181L9.00077 3.22167C8.93426 3.16207 8.86774 3.16207 8.7347 3.22167L3.0142 9.06181C2.54858 9.53856 1.81688 9.59815 1.28475 9.181C0.752605 8.76384 0.686087 8.10832 1.15171 7.63157C1.15171 7.63157 1.15171 7.63157 1.21823 7.57198L7.73694 0.95712C8.00301 0.718747 8.46863 0.539967 8.86774 0.539967Z" fill="black"/>
</svg>
