<svg width="16" height="16" viewBox="0 0 16 16" fill="none" xmlns="http://www.w3.org/2000/svg">
<path d="M11.1742 8.005C11.1742 8.11501 11.1542 8.22501 11.1142 8.32501C11.0642 8.43501 11.0042 8.53501 10.9242 8.61501L5.67422 13.855C5.48422 14.055 5.16422 14.055 4.97422 13.855C4.78422 13.655 4.77422 13.345 4.97422 13.155L10.1142 8.005L4.97422 2.85501C4.77422 2.65501 4.77422 2.34501 4.97422 2.14501C5.17422 1.94501 5.48422 1.94501 5.68422 2.14501L10.9142 7.395C10.9942 7.475 11.0542 7.565 11.1042 7.67501C11.1442 7.78501 11.1742 7.895 11.1742 8.005Z" fill="#131F3C"/>
</svg>
