<svg width="16" height="10" viewBox="0 0 16 10" fill="none" xmlns="http://www.w3.org/2000/svg">
<path id="Chevron" d="M7.97259 9.46003C7.50697 9.46003 7.10787 9.28125 6.8418 8.98329L0.256567 2.36843C-0.142537 1.89168 -0.07602 1.17656 0.45612 0.819003C0.98826 0.461443 1.71995 0.461443 2.11906 0.938189L7.83956 6.77833C7.90608 6.83793 7.97259 6.83793 8.10563 6.77833L13.8261 0.938189C14.2918 0.461443 15.0234 0.40185 15.5556 0.819003C16.0877 1.23616 16.1542 1.89168 15.6886 2.36843C15.6886 2.36843 15.6886 2.36843 15.6221 2.42802L9.10339 9.04288C8.83732 9.28125 8.3717 9.46003 7.97259 9.46003Z" fill="#131F3C"/>
</svg>
