<svg width="16" height="16" viewBox="0 0 16 16" fill="none" xmlns="http://www.w3.org/2000/svg">
<path d="M10.957 15C10.6893 15.0004 10.4317 14.8971 10.2377 14.7116L4.52364 9.26008C4.35901 9.09743 4.22798 8.90362 4.13812 8.68979C4.04825 8.47597 4.00132 8.24637 4.00003 8.01421C3.99873 7.78206 4.04311 7.55194 4.13058 7.33711C4.21806 7.12229 4.34692 6.92701 4.50973 6.76251L10.2377 1.28859C10.337 1.19363 10.4541 1.1193 10.582 1.06985C10.7099 1.02039 10.8463 0.996778 10.9833 1.00035C11.1203 1.00393 11.2553 1.03462 11.3805 1.09068C11.5057 1.14675 11.6187 1.22708 11.7131 1.32709C11.8075 1.4271 11.8813 1.54484 11.9305 1.67358C11.9796 1.80232 12.0031 1.93954 11.9996 2.0774C11.996 2.21527 11.9655 2.35108 11.9098 2.47708C11.8541 2.60309 11.7742 2.71681 11.6749 2.81177L6.5104 7.7467C6.47613 7.77928 6.44882 7.81856 6.43016 7.86213C6.4115 7.90571 6.40188 7.95265 6.40188 8.0001C6.40188 8.04754 6.4115 8.09449 6.43016 8.13806C6.44882 8.18163 6.47613 8.22091 6.5104 8.25349L11.6749 13.1884C11.8262 13.333 11.931 13.5198 11.9757 13.7249C12.0205 13.93 12.0031 14.1439 11.9258 14.3389C11.8485 14.534 11.7149 14.7012 11.5422 14.819C11.3695 14.9369 11.1656 14.9999 10.957 15Z" fill="black"/>
</svg>
