<svg width="16" height="16" viewBox="0 0 16 16" fill="none" xmlns="http://www.w3.org/2000/svg">
<path d="M11.4759 6.7463L5.77306 1.29059C5.67315 1.19506 5.5555 1.12026 5.42684 1.07046C5.29818 1.02066 5.16103 0.996831 5.02322 1.00034C4.8854 1.00385 4.74963 1.03462 4.62364 1.0909C4.49765 1.14718 4.38392 1.22787 4.28893 1.32836C4.0971 1.5313 3.99329 1.80257 4.00034 2.08249C4.00738 2.36241 4.1247 2.62806 4.32649 2.82098L9.48965 7.7521C9.52391 7.78466 9.55121 7.82391 9.56987 7.86745C9.58852 7.91099 9.59814 7.9579 9.59814 8.00531C9.59814 8.05271 9.58852 8.09962 9.56987 8.14316C9.55121 8.1867 9.52391 8.22595 9.48965 8.25851L4.32649 13.1896C4.12581 13.3813 4.00903 13.6452 4.00186 13.9234C3.99469 14.2016 4.0977 14.4713 4.28824 14.6732C4.47877 14.875 4.74123 14.9924 5.01786 14.9996C5.29449 15.0069 5.56264 14.9033 5.76333 14.7116L11.4898 9.24193C11.6528 9.07766 11.7817 8.88256 11.8693 8.66789C11.9568 8.45322 12.0013 8.22323 12 7.9912C11.9987 7.75917 11.9517 7.5297 11.8618 7.31603C11.7718 7.10236 11.6407 6.90872 11.4759 6.7463Z" fill="black"/>
</svg>
