<svg width="16" height="16" viewBox="0 0 16 16" fill="none" xmlns="http://www.w3.org/2000/svg">
<rect width="16" height="16" rx="8" fill="#131F3C"/>
<path fill-rule="evenodd" clip-rule="evenodd" d="M6.64137 11.0956C6.51949 11.0956 6.40493 11.0493 6.31872 10.9651L3.60207 8.31464C3.42431 8.1411 3.42431 7.85864 3.60207 7.68523C3.68829 7.60111 3.80284 7.5549 3.92472 7.5549C4.04646 7.5549 4.16102 7.60111 4.24724 7.68523L6.4837 9.86709C6.52734 9.90954 6.58429 9.93083 6.64137 9.93083C6.69845 9.93083 6.75539 9.90954 6.79903 9.86709L11.7523 5.03477C11.8385 4.95066 11.9531 4.90445 12.0749 4.90445C12.1967 4.90445 12.3114 4.95066 12.3976 5.03477C12.5753 5.20832 12.5753 5.49077 12.3976 5.66432L6.96402 10.9651C6.8778 11.0493 6.76324 11.0956 6.64137 11.0956Z" fill="white" stroke="white"/>
</svg>
