<svg width="17" height="16" viewBox="0 0 17 16" fill="none" xmlns="http://www.w3.org/2000/svg">
<g id="System alerts/Positive v">
<path id="Vector" d="M8.49805 1C7.11358 1 5.7602 1.41054 4.60906 2.17971C3.45791 2.94888 2.56071 4.04213 2.03089 5.32122C1.50108 6.6003 1.36246 8.00776 1.63255 9.36563C1.90265 10.7235 2.56933 11.9708 3.5483 12.9497C4.52727 13.9287 5.77455 14.5954 7.13242 14.8655C8.49028 15.1356 9.89775 14.997 11.1768 14.4672C12.4559 13.9373 13.5492 13.0401 14.3183 11.889C15.0875 10.7378 15.498 9.38447 15.498 8C15.4959 6.14415 14.7577 4.36493 13.4454 3.05264C12.1331 1.74035 10.3539 1.00216 8.49805 1V1ZM12.5388 5.78333L8.54588 11.2019C8.49874 11.2645 8.43961 11.317 8.37195 11.3564C8.30429 11.3959 8.22945 11.4215 8.15179 11.4317C8.07414 11.4419 7.99523 11.4365 7.91967 11.4159C7.84412 11.3953 7.77342 11.3598 7.71172 11.3116L4.86038 9.03192C4.80055 8.98404 4.75074 8.92485 4.71379 8.85772C4.67684 8.79059 4.65347 8.71684 4.64502 8.64068C4.62795 8.48687 4.67269 8.33258 4.76938 8.21175C4.86608 8.09092 5.00681 8.01345 5.16062 7.99639C5.31443 7.97932 5.46872 8.02406 5.58955 8.12075L7.96722 10.023L11.5996 5.09325C11.6434 5.02763 11.6999 4.97156 11.766 4.92842C11.832 4.88528 11.906 4.85598 11.9837 4.84228C12.0614 4.82857 12.141 4.83076 12.2178 4.8487C12.2946 4.86664 12.3669 4.89996 12.4305 4.94666C12.494 4.99335 12.5474 5.05244 12.5875 5.12036C12.6276 5.18828 12.6534 5.26362 12.6636 5.34183C12.6737 5.42003 12.6678 5.49947 12.6464 5.57536C12.625 5.65124 12.5884 5.72199 12.5388 5.78333Z" fill="white"/>
</g>
</svg>
