<svg width="16" height="16" viewBox="0 0 16 16" fill="none" xmlns="http://www.w3.org/2000/svg">
<g id="Right icon">
<path id="Vector" d="M8 1C6.61553 1 5.26215 1.41054 4.11101 2.17971C2.95987 2.94888 2.06266 4.04213 1.53285 5.32122C1.00303 6.6003 0.86441 8.00776 1.13451 9.36563C1.4046 10.7235 2.07129 11.9708 3.05026 12.9497C4.02922 13.9287 5.2765 14.5954 6.63437 14.8655C7.99224 15.1356 9.3997 14.997 10.6788 14.4672C11.9579 13.9373 13.0511 13.0401 13.8203 11.889C14.5895 10.7378 15 9.38447 15 8C14.9978 6.14415 14.2596 4.36493 12.9474 3.05264C11.6351 1.74035 9.85585 1.00216 8 1V1ZM12.0408 5.78333L8.04783 11.2019C8.00069 11.2645 7.94157 11.317 7.8739 11.3564C7.80624 11.3959 7.7314 11.4215 7.65375 11.4317C7.57609 11.4419 7.49719 11.4365 7.42163 11.4159C7.34607 11.3953 7.27537 11.3598 7.21367 11.3116L4.36234 9.03192C4.30251 8.98404 4.2527 8.92485 4.21574 8.85772C4.17879 8.79059 4.15542 8.71684 4.14697 8.64068C4.12991 8.48687 4.17464 8.33258 4.27134 8.21175C4.36803 8.09092 4.50876 8.01345 4.66257 7.99639C4.81638 7.97932 4.97067 8.02406 5.0915 8.12075L7.46917 10.023L11.1016 5.09325C11.1453 5.02763 11.2019 4.97156 11.2679 4.92842C11.3339 4.88528 11.408 4.85598 11.4856 4.84228C11.5633 4.82857 11.6429 4.83076 11.7197 4.8487C11.7965 4.86664 11.8689 4.89996 11.9324 4.94666C11.996 4.99335 12.0494 5.05244 12.0894 5.12036C12.1295 5.18828 12.1554 5.26362 12.1655 5.34183C12.1756 5.42003 12.1698 5.49947 12.1484 5.57536C12.1269 5.65124 12.0903 5.72199 12.0408 5.78333Z" fill="#138B5D"/>
</g>
</svg>
