<svg width="16" height="17" viewBox="0 0 16 17" fill="none" xmlns="http://www.w3.org/2000/svg">
<path fill-rule="evenodd" clip-rule="evenodd" d="M0.42664 15.1546C0.235244 15.3537 0.24145 15.6702 0.440503 15.8616C0.639555 16.053 0.956077 16.0468 1.14747 15.8477L8.01342 8.70713L15.1536 15.5727C15.3527 15.7641 15.6692 15.7579 15.8606 15.5588C16.052 15.3598 16.0458 15.0433 15.8467 14.8519L8.70653 7.98629L15.5707 0.847532C15.7621 0.648479 15.7559 0.331957 15.5569 0.140561C15.3578 -0.0508362 15.0413 -0.0446297 14.8499 0.154423L7.9857 7.29318L0.846555 0.428621C0.647502 0.237224 0.330981 0.243431 0.139584 0.442483C-0.0518126 0.641536 -0.0456063 0.958057 0.153446 1.14945L7.29259 8.01402L0.42664 15.1546Z" fill="#10111B"/>
</svg>
