<svg width="8" height="8" viewBox="0 0 8 8" fill="none" xmlns="http://www.w3.org/2000/svg">
<path d="M4.97152 4.11649C4.95719 4.10219 4.94582 4.08522 4.93807 4.06653C4.93031 4.04784 4.92632 4.0278 4.92632 4.00756C4.92632 3.98733 4.93031 3.96729 4.93807 3.9486C4.94582 3.92991 4.95719 3.91293 4.97152 3.89864L7.81213 1.05802C7.87091 1.00126 7.91779 0.933352 7.95004 0.858272C7.98229 0.783193 7.99927 0.702442 7.99998 0.620732C8.00069 0.539022 7.98512 0.457988 7.95417 0.38236C7.92323 0.306731 7.87754 0.238022 7.81976 0.180242C7.76198 0.122462 7.69327 0.0767676 7.61764 0.0458256C7.54201 0.0148835 7.46098 -0.000686806 7.37927 2.32349e-05C7.29756 0.000733276 7.21681 0.0177094 7.14173 0.0499611C7.06665 0.0822128 6.99874 0.129094 6.94198 0.18787L4.10136 3.02849C4.08707 3.04281 4.07009 3.05418 4.0514 3.06194C4.03271 3.06969 4.01267 3.07368 3.99244 3.07368C3.9722 3.07368 3.95216 3.06969 3.93347 3.06194C3.91478 3.05418 3.89781 3.04281 3.88352 3.02849L1.0429 0.18787C0.926837 0.0757724 0.771389 0.0137451 0.610037 0.0151472C0.448685 0.0165493 0.294339 0.0812686 0.180242 0.195366C0.0661447 0.309463 0.00142537 0.463809 2.32632e-05 0.625161C-0.00137884 0.786513 0.0606485 0.941961 0.172746 1.05802L3.01336 3.89864C3.02769 3.91293 3.03906 3.92991 3.04681 3.9486C3.05457 3.96729 3.05856 3.98733 3.05856 4.00756C3.05856 4.0278 3.05457 4.04784 3.04681 4.06653C3.03906 4.08522 3.02769 4.10219 3.01336 4.11649L0.172746 6.9571C0.0606485 7.07316 -0.00137884 7.22861 2.32632e-05 7.38996C0.00142537 7.55131 0.0661447 7.70566 0.180242 7.81976C0.294339 7.93386 0.448685 7.99857 0.610037 7.99998C0.771389 8.00138 0.926837 7.93935 1.0429 7.82725L3.88352 4.98664C3.89781 4.97231 3.91478 4.96095 3.93347 4.95319C3.95216 4.94543 3.9722 4.94144 3.99244 4.94144C4.01267 4.94144 4.03271 4.94543 4.0514 4.95319C4.07009 4.96095 4.08707 4.97231 4.10136 4.98664L6.94198 7.82725C7.05804 7.93935 7.21349 8.00138 7.37484 7.99998C7.53619 7.99857 7.69054 7.93386 7.80463 7.81976C7.91873 7.70566 7.98345 7.55131 7.98485 7.38996C7.98625 7.22861 7.92423 7.07316 7.81213 6.9571L4.97152 4.11649Z" fill="black"/>
</svg>
