<svg width="9" height="8" viewBox="0 0 9 8" fill="none" xmlns="http://www.w3.org/2000/svg">
<path id="x shape" fill-rule="evenodd" clip-rule="evenodd" d="M0.147911 7.14633C-0.0473507 7.34159 -0.0473507 7.65817 0.147911 7.85343C0.343174 8.04869 0.659756 8.04869 0.855018 7.85343L4.00137 4.70708L7.14792 7.85363C7.34318 8.04889 7.65976 8.04889 7.85502 7.85363C8.05028 7.65836 8.05028 7.34178 7.85502 7.14652L4.70848 3.99997L7.85502 0.853431C8.05028 0.658169 8.05028 0.341586 7.85502 0.146324C7.65976 -0.0489376 7.34317 -0.0489376 7.14791 0.146324L4.00137 3.29287L0.855022 0.14652C0.65976 -0.0487426 0.343177 -0.0487426 0.147915 0.14652C-0.0473472 0.341782 -0.0473472 0.658364 0.147915 0.853626L3.29426 3.99997L0.147911 7.14633Z" fill="#131F3C"/>
</svg>
