<svg width="979" height="150" viewBox="0 0 979 150" fill="none" xmlns="http://www.w3.org/2000/svg">
<path d="M585.409 5.46094C546.575 8.11298 507.174 21.8101 479.732 30.1757C440.409 42.1628 404.178 54.9115 369.964 67.9739C335.236 81.2322 305.522 93.1909 262.9 104.648C187.28 124.975 95.5986 142.595 4.52246 144.948" stroke="#E9EBEE" stroke-width="9" stroke-miterlimit="10" stroke-linecap="round"/>
<path d="M974.478 144.5C937.592 144.069 846.606 122.657 815.688 116.749C731.032 100.573 736.478 93 710.978 62.5C701.782 46.1462 681.734 27.6134 651.026 14.7635C637.77 9.21642 618.426 4.11999 591.496 5.12829C589.47 5.20416 574.009 6.36126 571.978 6.5" stroke="#E9EBEE" stroke-width="9" stroke-miterlimit="10" stroke-linecap="round"/>
</svg>
