<svg width="18px" height="18px" viewBox="0 0 18 18" version="1.1" xmlns="http://www.w3.org/2000/svg" xmlns:xlink="http://www.w3.org/1999/xlink">
    <defs>
        <path d="M12.5013333,1 C12.7467932,1 12.9509417,1.17687516 12.9932777,1.41012437 L13.0013333,1.5 L13.0013333,3 L16.5013333,3 C16.7467932,3 16.9509417,3.17687516 16.9932777,3.41012437 L17.0013333,3.5 L17.0013333,16.5 C17.0013333,16.7761424 16.7774757,17 16.5013333,17 L16.5013333,17 L1.50133333,17 C1.22519096,17 1.00133333,16.7761424 1.00133333,16.5 L1.00133333,16.5 L1.00133333,3.5 C1.00133333,3.22385763 1.22519096,3 1.50133333,3 L1.50133333,3 L5.00133333,3 L5.00133333,1.5 C5.00133333,1.22385763 5.22519096,1 5.50133333,1 C5.74679322,1 5.9509417,1.17687516 5.99327766,1.41012437 L6.00133333,1.5 L6.00133333,3 L12.0013333,3 L12.0013333,1.5 C12.0013333,1.22385763 12.225191,1 12.5013333,1 Z M16.0003333,8 L2.00033333,8 L2.001,16 L16.001,16 L16.0003333,8 Z M5.00133333,4 L2.001,4 L2.00033333,7 L16.0003333,7 L16.001,4 L13.0013333,4 L13.0013333,5 C13.0013333,5.27614237 12.7774757,5.5 12.5013333,5.5 C12.2558734,5.5 12.051725,5.32312484 12.009389,5.08987563 L12.0013333,5 L12.0013333,4 L6.00133333,4 L6.00133333,5 C6.00133333,5.27614237 5.77747571,5.5 5.50133333,5.5 C5.25587344,5.5 5.05172496,5.32312484 5.009389,5.08987563 L5.00133333,5 L5.00133333,4 Z" id="path-1"></path>
    </defs>
    <g id="Dashboard" stroke="none" stroke-width="1" fill="none" fill-rule="evenodd">
        <g id="Rules_2" transform="translate(-640.000000, -310.000000)">
            <rect fill="#F7F9FF" x="0" y="0" width="1440" height="2107"></rect>
            <rect id="bg" fill="#ECF0FF" x="286" y="170" width="412" height="223" rx="4"></rect>
            <g id="Group-22" transform="translate(310.000000, 272.000000)" fill="#FFFFFF">
                <rect id="bg" x="0" y="22" width="364" height="50" rx="4"></rect>
            </g>
            <g id="ic/design/calendar" transform="translate(640.000000, 310.000000)">
                <rect id="Rectangle" x="0" y="0" width="18" height="18"></rect>
                <mask id="mask-2" fill="white">
                    <use xlink:href="#path-1"></use>
                </mask>
                <use id="streamline-icon-calendar@16x16" fill="#000000" fill-rule="nonzero" xlink:href="#path-1"></use>
                <g id="color/grey/6E6E6E" mask="url(#mask-2)" fill="#6E6E6E">
                    <rect id="Rectangle" x="0" y="0" width="18" height="18"></rect>
                </g>
            </g>
        </g>
    </g>
</svg>
