<svg width="16" height="16" viewBox="0 0 16 16" fill="none" xmlns="http://www.w3.org/2000/svg">
<path d="M14 1.71429H12.2857V0.857143C12.2857 0.629814 12.1954 0.411797 12.0347 0.251051C11.8739 0.0903059 11.6559 0 11.4286 0C11.2012 0 10.9832 0.0903059 10.8225 0.251051C10.6617 0.411797 10.5714 0.629814 10.5714 0.857143V1.71429H5.42857V0.857143C5.42857 0.629814 5.33827 0.411797 5.17752 0.251051C5.01678 0.0903059 4.79876 0 4.57143 0C4.3441 0 4.12608 0.0903059 3.96534 0.251051C3.80459 0.411797 3.71429 0.629814 3.71429 0.857143V1.71429H2C1.46975 1.71489 0.961396 1.9258 0.586455 2.30074C0.211513 2.67568 0.00060496 3.18404 0 3.71429L0 14C0.00060496 14.5302 0.211513 15.0386 0.586455 15.4135C0.961396 15.7885 1.46975 15.9994 2 16H14C14.5302 15.9994 15.0386 15.7885 15.4135 15.4135C15.7885 15.0386 15.9994 14.5302 16 14V3.71429C15.9994 3.18404 15.7885 2.67568 15.4135 2.30074C15.0386 1.9258 14.5302 1.71489 14 1.71429ZM1.71429 3.71429C1.71429 3.63851 1.74439 3.56584 1.79797 3.51226C1.85155 3.45867 1.92422 3.42857 2 3.42857H3.71429V4.28571C3.71429 4.51304 3.80459 4.73106 3.96534 4.89181C4.12608 5.05255 4.3441 5.14286 4.57143 5.14286C4.79876 5.14286 5.01678 5.05255 5.17752 4.89181C5.33827 4.73106 5.42857 4.51304 5.42857 4.28571V3.42857H10.5714V4.28571C10.5714 4.51304 10.6617 4.73106 10.8225 4.89181C10.9832 5.05255 11.2012 5.14286 11.4286 5.14286C11.6559 5.14286 11.8739 5.05255 12.0347 4.89181C12.1954 4.73106 12.2857 4.51304 12.2857 4.28571V3.42857H14C14.0758 3.42857 14.1484 3.45867 14.202 3.51226C14.2556 3.56584 14.2857 3.63851 14.2857 3.71429V6C14.2857 6.07578 14.2556 6.14845 14.202 6.20203C14.1484 6.25561 14.0758 6.28571 14 6.28571H2C1.92422 6.28571 1.85155 6.25561 1.79797 6.20203C1.74439 6.14845 1.71429 6.07578 1.71429 6V3.71429Z" fill="#B4B3C0"/>
</svg>
