<svg width="120" height="120" viewBox="0 0 120 120" fill="none" xmlns="http://www.w3.org/2000/svg">
<path d="M60.3963 108.16C86.9944 108.16 108.556 86.5983 108.556 60.0002C108.556 33.4022 86.9944 11.8402 60.3963 11.8402C33.7982 11.8402 12.2363 33.4022 12.2363 60.0002C12.2363 86.5983 33.7982 108.16 60.3963 108.16Z" fill="#F3F5F8"/>
<path d="M92.0157 40.7172L89.6705 87.1142H17.4795L19.1204 40.553C19.1565 39.5192 20.0053 38.7005 21.039 38.7005H90.0979C91.197 38.7005 92.0716 39.6199 92.0157 40.7172Z" fill="white"/>
<path fill-rule="evenodd" clip-rule="evenodd" d="M115.93 38.0703C115.93 50.1819 106.111 60.0003 93.9997 60.0003C93.6527 60.0003 93.3077 59.9922 92.9647 59.9763L91.4957 89.0345H15.4902L17.201 40.4857C17.2736 38.4087 18.9592 36.7811 21.0387 36.7811H72.1069C72.7742 25.2696 82.3208 16.1403 93.9997 16.1403C106.111 16.1403 115.93 25.9587 115.93 38.0703ZM72.2161 40.6184L21.0387 40.6209L19.4686 85.1948H87.8449L89.1454 59.4612C80.1765 57.4345 73.2915 49.9116 72.2161 40.6184Z" fill="#B6BAC6"/>
<path fill-rule="evenodd" clip-rule="evenodd" d="M96.1504 20.4401H94.4304V25.6001H96.1504V20.4401ZM93.5704 50.5401V55.7001H95.2904V50.5401H93.5704ZM109.051 35.9199H114.211V37.6399H109.051V35.9199ZM79.8104 35.0601H74.6504V36.7801H79.8104V35.0601ZM93.1517 39.072L106.892 46.8549L108.164 44.6108L94.8491 37.0682L87.6932 28.2288L85.6876 29.8514L93.1517 39.072Z" fill="white"/>
<path fill-rule="evenodd" clip-rule="evenodd" d="M26.8643 75.9102H78.0893V73.3302H31.3053C31.9222 71.7656 34.4329 66.2063 39.0124 66.0192C41.1481 65.9329 42.0979 66.6979 43.3016 67.6674L43.3074 67.6721C44.6079 68.7194 46.2212 70.0085 49.3349 69.8892C52.5007 69.7524 54.1678 67.8064 55.6384 66.0898L55.6395 66.0885C56.8845 64.6361 57.9603 63.3812 59.8636 62.9824C62.3335 62.4685 63.6793 63.6965 65.238 65.1188L65.2391 65.1198C67.0485 66.7726 69.2997 68.826 73.1231 66.7197C74.9081 65.7337 79.0081 63.2005 79.5707 62.8529C79.5999 62.8348 79.6196 62.8226 79.6289 62.8169L78.2701 60.6232C78.2247 60.6518 73.6976 63.4552 71.8763 64.4605C69.7616 65.6279 68.8475 64.9207 66.9788 63.2142L66.9668 63.2032C65.2396 61.627 63.0917 59.6668 59.3354 60.4578C56.5719 61.0356 55.035 62.8287 53.679 64.4118C52.3336 65.9823 51.2704 67.2227 49.2237 67.3109C47.0951 67.4089 46.1391 66.6394 44.9369 65.6718L44.9262 65.6631C43.6269 64.6167 42.0111 63.3191 38.9066 63.4409C33.9924 63.6422 31.0499 67.9369 29.6646 70.6817L30.358 54.0339L27.7805 53.9264L26.8643 75.9102ZM29.5593 73.2093L29.5543 73.3302H29.9256L29.5593 73.2093Z" fill="#E9EBEE"/>
<path d="M8.85961 84.5539H103.46L100.45 94.0551H5.84961L8.85961 84.5539Z" fill="#C6CBD3"/>
<path d="M6.35862 92.4503H100.946L100.45 94.0555H5.84961L6.35862 92.4503Z" fill="#B6BAC6"/>
</svg>
