<svg width="56" height="56" viewBox="0 0 56 56" fill="none" xmlns="http://www.w3.org/2000/svg">
<path d="M0 28C0 12.536 12.536 0 28 0C43.464 0 56 12.536 56 28C56 43.464 43.464 56 28 56C12.536 56 0 43.464 0 28Z" fill="#F3F5F8"/>
<path d="M19.0417 31.5417H21.9583C21.9857 31.5418 22.0129 31.5365 22.0382 31.526C22.0635 31.5156 22.0865 31.5003 22.1059 31.4809C22.1253 31.4615 22.1406 31.4385 22.151 31.4132C22.1615 31.3879 22.1668 31.3607 22.1667 31.3333V29.6667C22.1667 29.4457 22.0789 29.2337 21.9226 29.0774C21.7663 28.9211 21.5543 28.8333 21.3333 28.8333H19.6667C19.4457 28.8333 19.2337 28.9211 19.0774 29.0774C18.9211 29.2337 18.8333 29.4457 18.8333 29.6667V31.3333C18.8332 31.3607 18.8385 31.3879 18.849 31.4132C18.8594 31.4385 18.8747 31.4615 18.8941 31.4809C18.9135 31.5003 18.9365 31.5156 18.9618 31.526C18.9871 31.5365 19.0143 31.5418 19.0417 31.5417Z" fill="#C6CBD3"/>
<path d="M24.6667 24.6667C24.4457 24.6667 24.2337 24.7545 24.0774 24.9107C23.9211 25.067 23.8333 25.279 23.8333 25.5V31.3333C23.8332 31.3607 23.8385 31.3879 23.849 31.4132C23.8594 31.4385 23.8747 31.4615 23.8941 31.4809C23.9135 31.5003 23.9365 31.5156 23.9618 31.526C23.9871 31.5365 24.0143 31.5418 24.0417 31.5417H26.9583C26.9857 31.5418 27.0129 31.5365 27.0382 31.526C27.0635 31.5156 27.0865 31.5003 27.1059 31.4809C27.1253 31.4615 27.1406 31.4385 27.151 31.4132C27.1615 31.3879 27.1668 31.3607 27.1667 31.3333V25.5C27.1667 25.279 27.0789 25.067 26.9226 24.9107C26.7663 24.7545 26.5543 24.6667 26.3333 24.6667H24.6667Z" fill="#C6CBD3"/>
<path d="M29.6667 26.3333C29.4457 26.3333 29.2337 26.4211 29.0774 26.5774C28.9211 26.7337 28.8333 26.9457 28.8333 27.1667V31.3333C28.8332 31.3607 28.8385 31.3879 28.849 31.4132C28.8594 31.4385 28.8747 31.4615 28.8941 31.4809C28.9135 31.5003 28.9365 31.5156 28.9618 31.526C28.9871 31.5365 29.0143 31.5418 29.0417 31.5417H31.9583C31.9857 31.5418 32.0129 31.5365 32.0382 31.526C32.0635 31.5156 32.0865 31.5003 32.1059 31.4809C32.1253 31.4615 32.1406 31.4385 32.151 31.4132C32.1615 31.3879 32.1668 31.3607 32.1667 31.3333V27.1667C32.1667 26.9457 32.0789 26.7337 31.9226 26.5774C31.7663 26.4211 31.5543 26.3333 31.3333 26.3333H29.6667Z" fill="#C6CBD3"/>
<path d="M34.0417 31.5417H36.9583C36.9857 31.5418 37.0129 31.5365 37.0382 31.526C37.0635 31.5156 37.0865 31.5003 37.1059 31.4809C37.1253 31.4615 37.1406 31.4385 37.151 31.4132C37.1615 31.3879 37.1668 31.3607 37.1667 31.3333V21.3333C37.1667 21.1123 37.0789 20.9004 36.9226 20.7441C36.7663 20.5878 36.5543 20.5 36.3333 20.5H34.6667C34.4457 20.5 34.2337 20.5878 34.0774 20.7441C33.9211 20.9004 33.8333 21.1123 33.8333 21.3333V31.3333C33.8332 31.3607 33.8385 31.3879 33.849 31.4132C33.8594 31.4385 33.8747 31.4615 33.8941 31.4809C33.9135 31.5003 33.9365 31.5156 33.9618 31.526C33.9871 31.5365 34.0143 31.5418 34.0417 31.5417Z" fill="#C6CBD3"/>
<path d="M18.8333 34.25H37.1667C37.3877 34.25 37.5996 34.1622 37.7559 34.0059C37.9122 33.8496 38 33.6377 38 33.4167C38 33.1957 37.9122 32.9837 37.7559 32.8274C37.5996 32.6711 37.3877 32.5833 37.1667 32.5833H18.8333C18.6123 32.5833 18.4004 32.6711 18.2441 32.8274C18.0878 32.9837 18 33.1957 18 33.4167C18 33.6377 18.0878 33.8496 18.2441 34.0059C18.4004 34.1622 18.6123 34.25 18.8333 34.25Z" fill="#C6CBD3"/>
</svg>
