<svg width="120" height="120" viewBox="0 0 120 120" fill="none" xmlns="http://www.w3.org/2000/svg">
<path d="M60.3684 104.6C85.1108 104.6 105.168 84.5427 105.168 59.8003C105.168 35.0579 85.1108 15.0003 60.3684 15.0003C35.626 15.0003 15.5684 35.0579 15.5684 59.8003C15.5684 84.5427 35.626 104.6 60.3684 104.6Z" fill="#F3F5F8"/>
<path d="M14 84.1798L48 64.0002M48 64.0002L46.422 70.3123M48 64.0002H41.1619" stroke="#C6CBD3" stroke-width="1.57802"/>
<rect x="23.1816" y="90.2053" width="7.36411" height="7.36411" fill="#C6CBD3"/>
<rect x="31.5986" y="82.8414" width="7.36411" height="14.7282" fill="#E9EBEE"/>
<rect x="40.0137" y="76.5289" width="7.36411" height="21.0403" fill="#C6CBD3"/>
<path d="M69.0059 55.5262L66.7726 50.406L66.4609 49.6916L105.874 32.5002L108.315 38.0967C108.315 38.0967 104.002 39.978 106.36 44.3354C108.717 48.6929 111.832 46.4838 111.832 46.4838L114.429 52.4375L75.1345 69.5769L72.6935 63.9805C72.6935 63.9805 76.5963 62.7033 74.686 58.1509C72.625 53.239 69.0059 55.5262 69.0059 55.5262Z" fill="#E9EBEE"/>
<path d="M75.5615 45.8635L84.2871 65.8679" stroke="#C6CBD3" stroke-width="1.03926" stroke-dasharray="2.6 2.6"/>
<ellipse cx="92.1243" cy="50.1635" rx="8.85999" ry="8.85999" transform="rotate(-23.5659 92.1243 50.1635)" fill="white"/>
<path d="M89.7861 56.1147L92.2318 46.5259L93.8229 45.8319L91.3771 55.4207L89.7861 56.1147Z" fill="#B6BAC6"/>
<circle cx="88.6015" cy="49.0569" r="1.23583" transform="rotate(-23.5659 88.6015 49.0569)" fill="white" stroke="#B6BAC6"/>
<circle cx="95.4579" cy="51.7475" r="1.23583" transform="rotate(-23.5659 95.4579 51.7475)" fill="white" stroke="#B6BAC6"/>
<path d="M37.5688 15.5142C33.8668 15.5142 30.2407 16.5643 27.1116 18.5426C23.9825 20.5209 21.4787 23.3462 19.891 26.6905C18.3033 30.0348 17.6968 33.7609 18.142 37.436C18.5871 41.1112 20.0656 44.5847 22.4058 47.4532C24.746 50.3218 27.8519 52.4677 31.3629 53.6417C34.8738 54.8157 38.6457 54.9698 42.2407 54.086C45.8357 53.2021 49.1062 51.3167 51.6726 48.6485C54.2389 45.9804 55.9957 42.639 56.7391 39.0124L37.5688 35.083V15.5142Z" fill="#C6CBD3"/>
<path d="M59.4749 35.9705C60.0566 33.1485 60.0079 30.2328 59.3323 27.4318C58.6567 24.6308 57.3709 22.0136 55.5668 19.767C53.7626 17.5204 51.4846 15.7 48.8955 14.4357C46.3064 13.1714 43.47 12.4945 40.589 12.4533L40.309 32.0201L59.4749 35.9705Z" fill="#E9EBEE"/>
<path d="M95.784 93.2441L77.9277 72.0002L75.1057 99.628L81.7862 93.6348L86.4803 106.034C86.5273 106.159 86.6666 106.222 86.7911 106.174L90.1269 104.911C90.2522 104.864 90.3148 104.725 90.2675 104.6L85.5737 92.2006L95.784 93.2441Z" fill="#C6CBD3"/>
</svg>
