<svg width="120" height="120" viewBox="0 0 120 120" fill="none" xmlns="http://www.w3.org/2000/svg">
<path d="M63.2258 106.8C87.9698 106.8 108.026 86.7425 108.026 62.0001C108.026 37.2577 87.9698 17.2001 63.2258 17.2001C38.4817 17.2001 18.4258 37.2577 18.4258 62.0001C18.4258 86.7425 38.4817 106.8 63.2258 106.8Z" fill="#F3F5F8"/>
<mask id="mask0_601_13333" style="mask-type:alpha" maskUnits="userSpaceOnUse" x="18" y="17" width="91" height="90">
<path d="M63.5656 106.8C88.3097 106.8 108.366 86.7423 108.366 61.9999C108.366 37.2575 88.3097 17.1999 63.5656 17.1999C38.8216 17.1999 18.7656 37.2575 18.7656 61.9999C18.7656 86.7423 38.8216 106.8 63.5656 106.8Z" fill="#F3F5F8"/>
</mask>
<g mask="url(#mask0_601_13333)">
<path d="M121.336 48.8515L119.154 92.0115H52L53.5264 48.6987C53.56 47.7371 54.3496 46.9755 55.3112 46.9755H119.552C120.574 46.9755 121.388 47.8307 121.336 48.8515Z" fill="white"/>
<path fill-rule="evenodd" clip-rule="evenodd" d="M61.6016 62.4619V58.1755L91.2016 58.6443V62.9755L61.6016 62.4619ZM61.6018 72.8619V68.5755L112.802 69.0443V73.3755L61.6018 72.8619ZM61.6018 78.9755V83.2619L112.802 83.7755V79.4443L61.6018 78.9755Z" fill="#E9EBEE"/>
</g>
<path fill-rule="evenodd" clip-rule="evenodd" d="M13.6289 40.1571C13.6289 55.0212 25.7219 67.1134 40.5859 67.1134C47.2529 67.1134 53.3621 64.6807 58.0728 60.6564L94.3934 103.6L102.393 95.9926L61.3726 57.3019C65.2251 52.6394 67.5422 46.6638 67.5422 40.1571C67.5422 25.293 55.45 13.2001 40.5859 13.2001C25.7219 13.2001 13.6289 25.293 13.6289 40.1571Z" fill="#C6CBD3"/>
<path d="M40.8258 62.0001C53.197 62.0001 63.2258 51.9713 63.2258 39.6001C63.2258 27.2289 53.197 17.2001 40.8258 17.2001C28.4546 17.2001 18.4258 27.2289 18.4258 39.6001C18.4258 51.9713 28.4546 62.0001 40.8258 62.0001Z" fill="white"/>
<path fill-rule="evenodd" clip-rule="evenodd" d="M45.7649 31.7375L40.8257 36.6766L35.8867 31.7375L33.6242 34L38.5633 38.9391L32.9648 44.5375L35.2273 46.8L40.8258 41.2016L46.4242 46.8L48.6867 44.5375L43.0882 38.9391L48.0274 34L45.7649 31.7375ZM75.6242 70.8001C76.0242 72.6665 75.6242 76.2401 70.8242 75.6001L77.2242 83.2001C78.9603 83.7337 82.5042 83.3601 82.8242 77.6001L75.6242 70.8001Z" fill="#B6BAC6"/>
</svg>
