<svg width="120" height="120" viewBox="0 0 120 120" fill="none" xmlns="http://www.w3.org/2000/svg">
<path d="M60.3692 104.8C85.1115 104.8 105.169 84.7426 105.169 60.0002C105.169 35.2578 85.1115 15.2002 60.3692 15.2002C35.6268 15.2002 15.5692 35.2578 15.5692 60.0002C15.5692 84.7426 35.6268 104.8 60.3692 104.8Z" fill="#F3F5F8"/>
<path d="M18.6221 36.8001H113.422L99.0221 96.0001H8.66708C6.60208 96.0001 5.07773 94.0732 5.55297 92.0637L18.6221 36.8001Z" fill="#E9EBEE"/>
<path fill-rule="evenodd" clip-rule="evenodd" d="M18.6219 36.8002L21.1808 27.5378C21.5627 26.1555 22.8177 25.196 24.2517 25.19L116.314 24.8002L113.428 36.5313L18.6219 36.8002ZM99.8215 92.8003H5.34259C5.34259 94.5676 6.77527 96.0003 8.54259 96.0003H99.0215L99.8215 92.8003Z" fill="#B6BAC6"/>
<path fill-rule="evenodd" clip-rule="evenodd" d="M25.4211 45.6004H73.8211L70.6211 59.6004H21.8211L25.4211 45.6004ZM97.0207 45.6004H77.4207L69.4207 81.2004H90.2207L97.0207 45.6004ZM37.2908 68.4276C33.3863 72.6401 33.242 78.8551 36.9685 82.3091C40.695 85.763 46.8812 85.1481 50.7857 80.9355C54.6902 76.723 54.8345 70.508 51.108 67.054C47.3815 63.6001 41.1953 64.215 37.2908 68.4276Z" fill="white"/>
<path d="M21.0211 68.8001H42.2211L41.4211 72.0001H19.8211L21.0211 68.8001Z" fill="#C6CBD3"/>
<path fill-rule="evenodd" clip-rule="evenodd" d="M29.8357 31.2C29.8357 32.2032 29.0224 33.0165 28.0193 33.0165C27.0161 33.0165 26.2028 32.2032 26.2028 31.2C26.2028 30.1969 27.0161 29.3836 28.0193 29.3836C29.0224 29.3836 29.8357 30.1969 29.8357 31.2ZM35.5644 31.2002C35.5644 32.2034 34.7512 33.0167 33.748 33.0167C32.7448 33.0167 31.9316 32.2034 31.9316 31.2002C31.9316 30.197 32.7448 29.3838 33.748 29.3838C34.7512 29.3838 35.5644 30.197 35.5644 31.2002ZM39.4773 33.0165C40.4805 33.0165 41.2938 32.2032 41.2938 31.2C41.2938 30.1969 40.4805 29.3836 39.4773 29.3836C38.4741 29.3836 37.6609 30.1969 37.6609 31.2C37.6609 32.2032 38.4741 33.0165 39.4773 33.0165ZM49.4222 48.0002H28.2222L27.0222 51.2002H48.6222L49.4222 48.0002ZM67.8219 53.6001H26.9362L24.6219 56.8001H66.279L67.8219 53.6001ZM85.8225 56.4002L81.0225 79.2002H85.0225L90.6225 52.0002L85.8225 56.4002ZM77.0225 66.4002L74.2225 79.6002H78.2225L81.8225 62.4002L77.0225 66.4002Z" fill="#E9EBEE"/>
<path fill-rule="evenodd" clip-rule="evenodd" d="M93.2195 55.1577L113.868 70.268L104.495 71.5718L111.417 81.6473C111.487 81.7484 111.461 81.887 111.359 81.9565L108.649 83.819C108.548 83.8887 108.409 83.8632 108.34 83.7613L101.418 73.6866L96.749 80.5182L93.2195 55.1577ZM50.2215 73.6003H64.2215L63.5597 76.8003H49.4215L50.2215 73.6003ZM27.8215 77.6003H43.8215L43.0215 80.8003H26.2215L27.8215 77.6003Z" fill="#B6BAC6"/>
</svg>
