<svg width="180" height="106" viewBox="0 0 180 106" fill="none" xmlns="http://www.w3.org/2000/svg">
<g opacity="0.5" clip-path="url(#clip0_129_22998)">
<path d="M140.446 35.1888H42.6465V58.001H140.446V35.1888Z" fill="#131F3C"/>
<path d="M107.886 49.3847C110.76 49.3847 113.09 47.049 113.09 44.1678C113.09 41.2866 110.76 38.9509 107.886 38.9509C105.012 38.9509 102.682 41.2866 102.682 44.1678C102.682 47.049 105.012 49.3847 107.886 49.3847Z" fill="white"/>
<path d="M106.797 45.8672C107.733 45.8672 108.492 45.1064 108.492 44.1679C108.492 43.2293 107.733 42.4685 106.797 42.4685C105.861 42.4685 105.102 43.2293 105.102 44.1679C105.102 45.1064 105.861 45.8672 106.797 45.8672Z" fill="#131F3C"/>
<path d="M108.248 44.4091C108.649 44.4091 108.974 44.0831 108.974 43.681C108.974 43.279 108.649 42.953 108.248 42.953C107.847 42.953 107.521 43.279 107.521 43.681C107.521 44.0831 107.847 44.4091 108.248 44.4091Z" fill="white"/>
<path d="M95.7802 49.3847C98.6544 49.3847 100.984 47.049 100.984 44.1678C100.984 41.2866 98.6544 38.9509 95.7802 38.9509C92.9061 38.9509 90.5762 41.2866 90.5762 44.1678C90.5762 47.049 92.9061 49.3847 95.7802 49.3847Z" fill="white"/>
<path d="M97.1132 45.8672C98.0494 45.8672 98.8084 45.1064 98.8084 44.1679C98.8084 43.2293 98.0494 42.4685 97.1132 42.4685C96.1769 42.4685 95.418 43.2293 95.418 44.1679C95.418 45.1064 96.1769 45.8672 97.1132 45.8672Z" fill="#131F3C"/>
<path d="M98.5661 44.4091C98.9672 44.4091 99.2923 44.0831 99.2923 43.681C99.2923 43.279 98.9672 42.953 98.5661 42.953C98.165 42.953 97.8398 43.279 97.8398 43.681C97.8398 44.0831 98.165 44.4091 98.5661 44.4091Z" fill="white"/>
<path d="M144.802 50.7196L101.669 47.0775L99.1426 102.894L139.961 95.8553L144.802 50.7196Z" fill="#C6CBD3"/>
<path d="M37.3203 47.8075L101.669 47.0775L99.1424 102.894L40.7088 98.7674L37.3203 47.8075Z" fill="#E9EBEE"/>
<path d="M145.499 55.1769L101.678 39.5148L102.163 38.1411L146.997 54.8915L145.499 55.1769Z" fill="#C6CBD3"/>
<path d="M35.8388 51.1936L35.168 50.4465L101.795 38.1102L102.043 39.5452L35.8388 51.1936Z" fill="#C6CBD3"/>
<path d="M146.997 54.891L101.955 38.8284L103.373 -0.000366211L148.92 24.7526L146.997 54.891Z" fill="#C6CBD3"/>
<path d="M35.1695 50.4462L101.955 38.8284L103.373 -0.000366211L34.1738 20.3844L35.1695 50.4462Z" fill="#E9EBEE"/>
<path d="M118.173 91.0032L129.309 90.0319L128.824 97.7988L117.689 99.7395L118.173 91.0032Z" fill="#F3F5F8"/>
<path d="M118.173 91.0026L117.689 91.974V99.7389L118.173 91.0026Z" fill="#C6CBD3"/>
<path d="M74.1154 91.9746L60.0703 91.6106L60.0741 100.224L74.5989 101.196L74.1154 91.9746Z" fill="white"/>
<path d="M74.3581 101.209L73.8842 92.208L60.0703 91.6102L60.5672 91.2462L75.0824 91.4876L74.8416 101.182L74.3581 101.209Z" fill="#C6CBD3"/>
</g>
<defs>
<clipPath id="clip0_129_22998">
<rect width="180" height="105.564" fill="white"/>
</clipPath>
</defs>
</svg>
