<svg width="110" height="94" viewBox="0 0 110 94" fill="none" xmlns="http://www.w3.org/2000/svg">
<path d="M55.3703 93.3002C80.1127 93.3002 100.17 73.2426 100.17 48.5002C100.17 23.7578 80.1127 3.7002 55.3703 3.7002C30.6279 3.7002 10.5703 23.7578 10.5703 48.5002C10.5703 73.2426 30.6279 93.3002 55.3703 93.3002Z" fill="#F3F5F8"/>
<path d="M73.0919 34.5625L70.9103 77.7225H3.75586L5.28228 34.4097C5.31587 33.4481 6.10547 32.6865 7.06704 32.6865H71.3079C72.3303 32.6865 73.1438 33.5417 73.0919 34.5625Z" fill="white"/>
<path d="M90.9352 24.5684L90.8445 22.1887L105.946 21.6137L106.037 23.9934L90.9352 24.5684ZM88.5664 17.5793L87.5602 15.4215L108.912 5.46211L109.918 7.61993L88.5664 17.5793ZM86.1094 11.9348L84.0547 10.7301L89.9328 0.699615L91.9875 1.9043L86.1094 11.9348Z" fill="#B6BAC6"/>
<path fill-rule="evenodd" clip-rule="evenodd" d="M84.2919 18.1925C85.4247 20.7053 84.4551 23.5941 82.1247 24.6453L78.0207 15.5461C80.3511 14.4949 83.1583 15.6797 84.2919 18.1925ZM74.8758 34.6527L72.7917 75.8996H90.5383L87.7256 84.6996H1.73828L2.02153 75.8996H2.03344L3.49766 34.3473C3.56562 32.4152 5.13359 30.9012 7.06797 30.9012H71.3086C72.2836 30.9012 73.2281 31.3059 73.8992 32.0129C74.5695 32.7184 74.9258 33.6809 74.8758 34.6527ZM71.3086 34.4691L69.2144 75.8996H5.60757L7.06797 34.473L71.3086 34.4691Z" fill="#C6CBD3"/>
<path fill-rule="evenodd" clip-rule="evenodd" d="M69.4431 7.77911L82.5247 36.7827L62.1663 38.7787L54.4711 21.7179L69.4431 7.77911ZM13.7385 42.1002V46.3866L41.7385 46.9002V42.569L13.7385 42.1002ZM13.7383 52.5004V56.7868L62.5383 57.3004V52.9692L13.7383 52.5004ZM13.7383 67.1868V62.9004L62.5383 63.3692V67.7004L13.7383 67.1868Z" fill="#E9EBEE"/>
<path d="M69.6298 10.1522L71.124 13.4554L56.2321 22.8489L55.8105 22.2618L69.6298 10.1522Z" fill="white"/>
<path fill-rule="evenodd" clip-rule="evenodd" d="M68.1595 4.93677C70.4899 3.88589 73.2299 4.92277 74.2811 7.25261L85.8659 32.9373C86.9163 35.2668 85.8795 38.0076 83.5499 39.0588L68.1595 4.93677ZM67.5027 51.0997L65.5027 54.6997L55.9028 39.8997C52.1164 41.6069 47.0918 39.8287 45.3846 36.0431L45.0622 35.3287C43.2926 31.4055 43.9028 24.6997 48.3029 21.8997L54.0781 18.6581L67.5027 51.0997ZM87.8001 83.2448H1.80544L1.73828 84.738H87.3386L87.8001 83.2448Z" fill="#B6BAC6"/>
</svg>
