<svg width="120" height="120" viewBox="0 0 120 120" fill="none" xmlns="http://www.w3.org/2000/svg">
<path d="M60.3703 100.4C85.1127 100.4 105.17 80.3424 105.17 55.6C105.17 30.8577 85.1127 10.8 60.3703 10.8C35.6279 10.8 15.5703 30.8576 15.5703 55.6C15.5703 80.3424 35.6279 100.4 60.3703 100.4Z" fill="#F3F5F8"/>
<path d="M108.814 61.4444C109.239 70.4195 107.625 77.4942 105.243 77.578C102.862 77.6618 100.615 70.7231 100.19 61.7479C99.7657 52.7727 101.457 46.4466 103.838 46.3627C106.22 46.2789 108.389 52.4691 108.814 61.4444Z" fill="#C6CBD3"/>
<path d="M64.1562 27.6002L102.956 48.4002C102.956 48.4002 105.756 53.5915 105.756 62.8002C105.756 76.0002 102.956 76.4002 102.956 76.4002L66.8202 94.0564C66.6122 94.0428 62.3229 93.8956 62.1144 93.8643C36.7146 89.9777 57.6207 31.7747 64.1562 27.6002Z" fill="#E9EBEE"/>
<path d="M62.047 93.8539C70.8772 93.8539 78.0354 78.9248 78.0354 60.5088C78.0354 42.0928 70.8772 27.1637 62.047 27.1637C53.2169 27.1637 46.0586 42.0928 46.0586 60.5088C46.0586 78.9248 53.2169 93.8539 62.047 93.8539Z" fill="#C6CBD3"/>
<path d="M62.047 27.1637C53.2169 27.1637 46.0586 42.0928 46.0586 60.5088C46.0586 78.9248 53.2169 93.8539 62.047 93.8539C70.8772 93.8539 78.0355 78.9248 78.0355 60.5088C78.0355 42.0928 70.8772 27.1637 62.047 27.1637ZM62.047 87.7887C54.823 87.7887 48.9668 75.5751 48.9668 60.5088C48.9668 45.4425 54.823 33.2289 62.047 33.2289C69.2711 33.2289 75.1273 45.4425 75.1273 60.5088C75.1273 75.5751 69.2711 87.7887 62.047 87.7887Z" fill="white"/>
<path fill-rule="evenodd" clip-rule="evenodd" d="M41.979 74.2932C42.9922 74.8045 44.6322 76.9276 44.5173 78.0566C44.4285 78.9292 43.4177 78.1455 42.5707 77.4889C42.2028 77.2037 41.8659 76.9425 41.6487 76.8512C41.4197 76.7507 41.164 76.6879 40.9088 76.6252C40.1677 76.443 39.4308 76.2619 39.3635 75.1629C39.2538 73.8098 41.0246 73.8116 41.979 74.2932ZM26.0476 88.0604C25.2212 87.9082 24.407 87.7583 23.7349 87.1623C22.9138 86.4244 21.7211 84.6592 21.7595 83.5103C21.7494 82.7995 22.4896 81.9108 23.2398 81.7329C24.0925 81.5246 24.8111 82.2929 25.3315 82.9192C25.7817 83.4652 26.0562 84.0918 26.3308 84.7183L26.3308 84.7183L26.3308 84.7184C26.6511 85.4493 26.9713 86.1802 27.5705 86.7832C27.9621 87.2019 28.5096 87.4149 29.0467 87.6239C29.7637 87.9029 30.4622 88.1747 30.7468 88.9192C31.4056 90.5075 29.2562 89.3411 28.2214 88.7797C28.0269 88.6741 27.8717 88.5899 27.7821 88.5494C27.2288 88.2779 26.6351 88.1686 26.0476 88.0604ZM56.7328 102.192C55.7349 101.652 53.1442 102.348 52.2823 103.086C51.4705 103.782 50.7873 105.416 52.0783 105.835C53.1186 106.196 53.5694 105.586 54.0228 104.972C54.1789 104.76 54.3353 104.549 54.5162 104.376C54.684 104.211 55.0548 104 55.4595 103.77C56.3916 103.241 57.5039 102.61 56.7328 102.192ZM71.5189 79.6H42.2194C42.2194 79.6 32.8767 79.6546 31.6789 82.9631C31.2066 84.2675 32.0265 85.198 32.8878 86.1754C33.6115 86.9967 34.3646 87.8513 34.4049 88.9888C34.5417 92.8519 28.2721 92.75 22.1282 92.6502C16.0099 92.5507 10.0162 92.4533 10.5978 96.2756C11.7191 103.645 34.4049 101.18 34.4049 101.18L57.1216 100.339C57.1216 100.339 63.3156 100.205 63.664 102.301C63.8115 103.189 63.0828 103.675 62.2959 104.2C61.6954 104.6 61.061 105.023 60.7562 105.664C57.8223 111.841 82.3825 108.047 82.3825 108.047C82.3825 108.047 98.7538 106.063 98.5568 100.339C98.4848 98.246 95.3943 98.1164 92.3266 97.9877C89.2554 97.8589 86.2071 97.731 86.2335 95.6346C86.2419 94.9615 86.6581 94.4362 87.1162 93.858C87.5347 93.3298 87.9882 92.7574 88.198 91.9876C90.1964 84.6547 82.9586 86 82.9586 86C82.9586 86 76.1586 90 70.5586 91.6C66.8613 92.6564 60.7562 91.6 60.7562 91.6C60.7562 91.6 52.9418 89.6894 60.7562 88.2881C68.5707 86.8868 71.5189 79.6 71.5189 79.6Z" fill="#B6BAC6"/>
<path d="M96.949 47.1593C100.161 46.8396 103.932 42.8337 99.6432 34.5256C97.596 30.5601 93.4628 24.6273 84.9458 24.4C84.9458 24.4 73.9877 24.9713 75.5032 33.3664C75.8329 35.1925 77.9958 39.229 82.4005 36.1033C83.7257 35.163 81.6459 30.8606 86.8028 31.3208C89.6335 31.5734 98.4008 35.5989 93.3419 40.6222C92.8109 41.1494 91.7185 41.1408 91.6734 43.1081C91.6734 43.1081 91.7358 47.678 96.949 47.1593Z" fill="#C6CBD3"/>
</svg>
