<svg width="16" height="16" viewBox="0 0 16 16" fill="none" xmlns="http://www.w3.org/2000/svg">
<g id="System alerts/Info">
<path id="Vector" d="M8 1C6.61553 1 5.26215 1.41054 4.11101 2.17971C2.95987 2.94888 2.06266 4.04213 1.53285 5.32122C1.00303 6.6003 0.86441 8.00776 1.13451 9.36563C1.4046 10.7235 2.07129 11.9708 3.05026 12.9497C4.02922 13.9287 5.2765 14.5954 6.63437 14.8655C7.99224 15.1356 9.3997 14.997 10.6788 14.4672C11.9579 13.9373 13.0511 13.0401 13.8203 11.889C14.5895 10.7378 15 9.38447 15 8C14.9979 6.14413 14.2597 4.36489 12.9474 3.05259C11.6351 1.7403 9.85587 1.00212 8 1V1ZM8.75 11.5C8.75 11.6989 8.67098 11.8897 8.53033 12.0303C8.38968 12.171 8.19891 12.25 8 12.25C7.80109 12.25 7.61032 12.171 7.46967 12.0303C7.32902 11.8897 7.25 11.6989 7.25 11.5V8C7.25 7.80109 7.32902 7.61032 7.46967 7.46967C7.61032 7.32902 7.80109 7.25 8 7.25C8.19891 7.25 8.38968 7.32902 8.53033 7.46967C8.67098 7.61032 8.75 7.80109 8.75 8V11.5ZM8 6C7.80222 6 7.60888 5.94135 7.44443 5.83147C7.27998 5.72159 7.15181 5.56541 7.07612 5.38268C7.00043 5.19996 6.98063 4.99889 7.01922 4.80491C7.0578 4.61093 7.15304 4.43274 7.2929 4.29289C7.43275 4.15304 7.61093 4.0578 7.80491 4.01921C7.99889 3.98063 8.19996 4.00043 8.38269 4.07612C8.56541 4.15181 8.72159 4.27998 8.83147 4.44443C8.94135 4.60888 9 4.80222 9 5C9 5.26522 8.89464 5.51957 8.70711 5.70711C8.51957 5.89464 8.26522 6 8 6Z" fill="#131F3C"/>
</g>
</svg>
