<svg width="17" height="16" viewBox="0 0 17 16" fill="none" xmlns="http://www.w3.org/2000/svg">
<g id="System alerts/Alert">
<path id="Alert Triangle" d="M15.3572 13.1239L9.59117 1.68667C9.48667 1.47954 9.3296 1.30606 9.13697 1.18502C8.94434 1.06398 8.72349 1 8.49836 1C8.27322 1 8.05238 1.06398 7.85975 1.18502C7.66712 1.30606 7.51004 1.47954 7.40554 1.68667L1.6389 13.1239C1.5404 13.3192 1.49208 13.5377 1.49863 13.7581C1.50519 13.9785 1.56638 14.1934 1.67629 14.382C1.78621 14.5707 1.94113 14.7267 2.12607 14.8349C2.31102 14.9432 2.51973 15 2.73202 15H14.2641C14.4764 15 14.6851 14.9432 14.87 14.8349C15.055 14.7267 15.2099 14.5707 15.3198 14.382C15.4297 14.1934 15.4909 13.9785 15.4975 13.7581C15.504 13.5377 15.4557 13.3192 15.3572 13.1239ZM7.88116 5.70604C7.88116 5.53611 7.94616 5.37313 8.06184 5.25297C8.17753 5.1328 8.33444 5.0653 8.49805 5.0653C8.66166 5.0653 8.81856 5.1328 8.93425 5.25297C9.04994 5.37313 9.11493 5.53611 9.11493 5.70604V9.55049C9.11493 9.72043 9.04994 9.8834 8.93425 10.0036C8.81856 10.1237 8.66166 10.1912 8.49805 10.1912C8.33444 10.1912 8.17753 10.1237 8.06184 10.0036C7.94616 9.8834 7.88116 9.72043 7.88116 9.55049V5.70604ZM8.52889 13.081H8.51162C8.26834 13.0802 8.03479 12.9817 7.8598 12.8062C7.68482 12.6306 7.58195 12.3916 7.57272 12.1391C7.56827 12.0135 7.58797 11.8883 7.63065 11.7707C7.67333 11.6531 7.73815 11.5455 7.82131 11.4543C7.90448 11.363 8.00432 11.2898 8.115 11.2391C8.22569 11.1884 8.345 11.1611 8.46597 11.1588H8.48324C8.72647 11.1591 8.96016 11.2571 9.13539 11.4323C9.31062 11.6075 9.41382 11.8463 9.42338 12.0987C9.42816 12.2246 9.40867 12.3502 9.36606 12.4681C9.32344 12.586 9.25856 12.6939 9.17522 12.7854C9.09189 12.877 8.99178 12.9502 8.88079 13.001C8.76979 13.0517 8.65015 13.0789 8.52889 13.081Z" fill="white"/>
</g>
</svg>
