<svg width="16" height="16" viewBox="0 0 16 16" fill="none" xmlns="http://www.w3.org/2000/svg">
<g id="System alerts/Alert">
<path id="Alert Triangle" d="M14.8591 13.1239L9.09312 1.68667C8.98862 1.47954 8.83155 1.30606 8.63892 1.18502C8.44629 1.06398 8.22544 1 8.00031 1C7.77517 1 7.55433 1.06398 7.3617 1.18502C7.16907 1.30606 7.012 1.47954 6.9075 1.68667L1.14085 13.1239C1.04235 13.3192 0.994037 13.5377 1.00059 13.7581C1.00714 13.9785 1.06833 14.1934 1.17825 14.382C1.28816 14.5707 1.44308 14.7267 1.62803 14.8349C1.81297 14.9432 2.02168 15 2.23397 15H13.766C13.9783 15 14.187 14.9432 14.372 14.8349C14.5569 14.7267 14.7118 14.5707 14.8218 14.382C14.9317 14.1934 14.9929 13.9785 14.9994 13.7581C15.006 13.5377 14.9577 13.3192 14.8591 13.1239ZM7.38312 5.70604C7.38312 5.53611 7.44811 5.37313 7.5638 5.25297C7.67949 5.1328 7.83639 5.0653 8 5.0653C8.16361 5.0653 8.32052 5.1328 8.4362 5.25297C8.55189 5.37313 8.61689 5.53611 8.61689 5.70604V9.55049C8.61689 9.72043 8.55189 9.8834 8.4362 10.0036C8.32052 10.1237 8.16361 10.1912 8 10.1912C7.83639 10.1912 7.67949 10.1237 7.5638 10.0036C7.44811 9.8834 7.38312 9.72043 7.38312 9.55049V5.70604ZM8.03084 13.081H8.01357C7.7703 13.0802 7.53674 12.9817 7.36176 12.8062C7.18677 12.6306 7.08391 12.3916 7.07467 12.1391C7.07023 12.0135 7.08992 11.8883 7.1326 11.7707C7.17529 11.6531 7.2401 11.5455 7.32327 11.4543C7.40643 11.363 7.50627 11.2898 7.61696 11.2391C7.72764 11.1884 7.84696 11.1611 7.96792 11.1588H7.9852C8.22842 11.1591 8.46211 11.2571 8.63734 11.4323C8.81258 11.6075 8.91577 11.8463 8.92533 12.0987C8.93011 12.2246 8.91062 12.3502 8.86801 12.4681C8.8254 12.586 8.76051 12.6939 8.67718 12.7854C8.59384 12.877 8.49374 12.9502 8.38274 13.001C8.27175 13.0517 8.1521 13.0789 8.03084 13.081Z" fill="#BB1A1A"/>
</g>
</svg>
