<svg width="24" height="24" viewBox="0 0 24 24" fill="none" xmlns="http://www.w3.org/2000/svg">
    <g clip-path="url(#clip0_8639_65872)">
        <path d="M21 17.5C20.6022 17.5 20.2206 17.342 19.9393 17.0607C19.658 16.7794 19.5 16.3978 19.5 16V11.14C19.5502 9.24239 18.9239 7.38877 17.7331 5.9104C16.5424 4.43204 14.8647 3.42526 13 3.07V1C13 0.734784 12.8946 0.48043 12.7071 0.292893C12.5196 0.105357 12.2652 0 12 0C11.7348 0 11.4804 0.105357 11.2929 0.292893C11.1054 0.48043 11 0.734784 11 1V3.07C9.13526 3.42526 7.45761 4.43204 6.26686 5.9104C5.07611 7.38877 4.44985 9.24239 4.5 11.14V16C4.5 16.3978 4.34196 16.7794 4.06066 17.0607C3.77936 17.342 3.39782 17.5 3 17.5C2.73478 17.5 2.48043 17.6054 2.29289 17.7929C2.10536 17.9804 2 18.2348 2 18.5C2 18.7652 2.10536 19.0196 2.29289 19.2071C2.48043 19.3946 2.73478 19.5 3 19.5H21C21.2652 19.5 21.5196 19.3946 21.7071 19.2071C21.8946 19.0196 22 18.7652 22 18.5C22 18.2348 21.8946 17.9804 21.7071 17.7929C21.5196 17.6054 21.2652 17.5 21 17.5Z" fill="black"/>
        <path d="M14.2393 21H9.75934C9.69965 21.002 9.64264 21.0252 9.59862 21.0656C9.5546 21.1059 9.52647 21.1607 9.51934 21.22C9.51439 21.3133 9.51439 21.4067 9.51934 21.5C9.51934 22.163 9.78273 22.7989 10.2516 23.2678C10.7204 23.7366 11.3563 24 12.0193 24C12.6824 24 13.3183 23.7366 13.7871 23.2678C14.2559 22.7989 14.5193 22.163 14.5193 21.5C14.5243 21.4067 14.5243 21.3133 14.5193 21.22C14.5156 21.1871 14.5054 21.1552 14.4893 21.1263C14.4731 21.0973 14.4514 21.0719 14.4254 21.0514C14.3993 21.031 14.3695 21.0159 14.3375 21.007C14.3056 20.9982 14.2722 20.9958 14.2393 21Z" fill="black"/>
    </g>
    <defs>
        <clipPath id="clip0_8639_65872">
            <rect width="24" height="24" fill="white"/>
        </clipPath>
    </defs>
</svg>
