<?xml version="1.0" encoding="UTF-8"?>
<svg width="16px" height="16px" viewBox="0 0 16 16" version="1.1" xmlns="http://www.w3.org/2000/svg"
     xmlns:xlink="http://www.w3.org/1999/xlink">
    <!-- Generator: sketchtool 64 (101010) - https://sketch.com -->
    <title>471AAE74-54BD-437A-B952-D4116BFAE7CE</title>
    <desc>Created with sketchtool.</desc>
    <defs>
        <path d="M8,1.77777778 C4.56377778,1.77777778 1.77777778,4.56377778 1.77777778,8 C1.77777778,11.4362222 4.56377778,14.2222222 8,14.2222222 C11.4362222,14.2222222 14.2222222,11.4362222 14.2222222,8 C14.2185926,4.56533333 11.4346667,1.78140741 8,1.77777778 Z M8.12962963,4.37037037 C8.55896296,4.37037037 8.90740741,4.71881481 8.90740741,5.14814815 C8.90740741,5.57748148 8.55896296,5.92592593 8.12962963,5.92592593 C7.7002963,5.92592593 7.35185185,5.57748148 7.35185185,5.14814815 C7.35185185,4.71881481 7.7002963,4.37037037 8.12962963,4.37037037 Z M9.2962963,11.3703704 L7.22222222,11.3703704 C6.936,11.3703704 6.7037037,11.1380741 6.7037037,10.8518519 C6.7037037,10.5656296 6.936,10.3333333 7.22222222,10.3333333 L7.61111111,10.3333333 C7.68266667,10.3333333 7.74074074,10.2752593 7.74074074,10.2037037 L7.74074074,7.87037037 C7.74074074,7.79881481 7.68266667,7.74074074 7.61111111,7.74074074 L7.22222222,7.74074074 C6.936,7.74074074 6.7037037,7.50844444 6.7037037,7.22222222 C6.7037037,6.936 6.936,6.7037037 7.22222222,6.7037037 L7.74074074,6.7037037 C8.3137037,6.7037037 8.77777778,7.16777778 8.77777778,7.74074074 L8.77777778,10.2037037 C8.77777778,10.2752593 8.83585185,10.3333333 8.90740741,10.3333333 L9.2962963,10.3333333 C9.58251852,10.3333333 9.81481481,10.5656296 9.81481481,10.8518519 C9.81481481,11.1380741 9.58251852,11.3703704 9.2962963,11.3703704 Z"
              id="path-1"></path>
    </defs>
    <g id="Page-1" stroke="none" stroke-width="1" fill="none" fill-rule="evenodd">
        <g id="Tooltip-States" transform="translate(-504.000000, -257.000000)">
            <g id="ic/interaction/information" transform="translate(503.000000, 256.000000)">
                <rect id="Rectangle" x="0" y="0" width="16" height="16"></rect>
                <mask id="mask-2" fill="white">
                    <use xlink:href="#path-1"></use>
                </mask>
                <g id="streamline-icon-information-circle@14x14" fill-rule="nonzero"></g>
                <g id="color/grey/6E6E6E" mask="url(#mask-2)" fill="#303030">
                    <rect id="Rectangle" x="0" y="0" width="16" height="16"></rect>
                </g>
            </g>
        </g>
    </g>
</svg>
