<svg width="17" height="16" viewBox="0 0 17 16" fill="none" xmlns="http://www.w3.org/2000/svg">
<g id="System alerts/Info">
<path id="Vector" d="M8.49805 1C7.11358 1 5.7602 1.41054 4.60906 2.17971C3.45791 2.94888 2.56071 4.04213 2.03089 5.32122C1.50108 6.6003 1.36246 8.00776 1.63255 9.36563C1.90265 10.7235 2.56933 11.9708 3.5483 12.9497C4.52727 13.9287 5.77455 14.5954 7.13242 14.8655C8.49028 15.1356 9.89775 14.997 11.1768 14.4672C12.4559 13.9373 13.5492 13.0401 14.3183 11.889C15.0875 10.7378 15.498 9.38447 15.498 8C15.4959 6.14413 14.7578 4.36489 13.4455 3.05259C12.1332 1.7403 10.3539 1.00212 8.49805 1V1ZM9.24805 11.5C9.24805 11.6989 9.16903 11.8897 9.02838 12.0303C8.88773 12.171 8.69696 12.25 8.49805 12.25C8.29914 12.25 8.10837 12.171 7.96772 12.0303C7.82707 11.8897 7.74805 11.6989 7.74805 11.5V8C7.74805 7.80109 7.82707 7.61032 7.96772 7.46967C8.10837 7.32902 8.29914 7.25 8.49805 7.25C8.69696 7.25 8.88773 7.32902 9.02838 7.46967C9.16903 7.61032 9.24805 7.80109 9.24805 8V11.5ZM8.49805 6C8.30027 6 8.10693 5.94135 7.94248 5.83147C7.77803 5.72159 7.64986 5.56541 7.57417 5.38268C7.49848 5.19996 7.47868 4.99889 7.51726 4.80491C7.55585 4.61093 7.65109 4.43274 7.79094 4.29289C7.9308 4.15304 8.10898 4.0578 8.30296 4.01921C8.49694 3.98063 8.69801 4.00043 8.88073 4.07612C9.06346 4.15181 9.21964 4.27998 9.32952 4.44443C9.4394 4.60888 9.49805 4.80222 9.49805 5C9.49805 5.26522 9.39269 5.51957 9.20516 5.70711C9.01762 5.89464 8.76327 6 8.49805 6Z" fill="white"/>
</g>
</svg>
