<svg width="16" height="16" viewBox="0 0 16 16" fill="none" xmlns="http://www.w3.org/2000/svg">
<g id="General/Lock">
<path id="Vector" d="M12.7368 6.54167H12.2632V4.9375C12.2632 3.89321 11.814 2.89169 11.0145 2.15327C10.215 1.41484 9.13066 1 8 1C6.86934 1 5.78499 1.41484 4.98549 2.15327C4.18599 2.89169 3.73684 3.89321 3.73684 4.9375V6.54167H3.26316C2.92815 6.54167 2.60686 6.66458 2.36997 6.88338C2.13308 7.10217 2 7.39891 2 7.70833V13.8333C2 14.1428 2.13308 14.4395 2.36997 14.6583C2.60686 14.8771 2.92815 15 3.26316 15H12.7368C13.0719 15 13.3931 14.8771 13.63 14.6583C13.8669 14.4395 14 14.1428 14 13.8333V7.70833C14 7.39891 13.8669 7.10217 13.63 6.88338C13.3931 6.66458 13.0719 6.54167 12.7368 6.54167ZM8 11.7917C7.75017 11.7917 7.50595 11.7232 7.29823 11.595C7.0905 11.4669 6.9286 11.2846 6.83299 11.0715C6.73739 10.8583 6.71237 10.6237 6.76111 10.3974C6.80985 10.1711 6.93016 9.9632 7.10681 9.80004C7.28347 9.63688 7.50854 9.52577 7.75357 9.48075C7.9986 9.43573 8.25258 9.45884 8.48339 9.54714C8.7142 9.63544 8.91148 9.78498 9.05028 9.97683C9.18907 10.1687 9.26316 10.3943 9.26316 10.625C9.26316 10.9344 9.13007 11.2312 8.89319 11.45C8.6563 11.6687 8.33501 11.7917 8 11.7917ZM10.6842 6.25C10.6842 6.32735 10.6509 6.40154 10.5917 6.45624C10.5325 6.51094 10.4522 6.54167 10.3684 6.54167H5.63158C5.54783 6.54167 5.4675 6.51094 5.40828 6.45624C5.34906 6.40154 5.31579 6.32735 5.31579 6.25V4.9375C5.31579 4.27998 5.59859 3.6494 6.10198 3.18446C6.60536 2.71953 7.2881 2.45833 8 2.45833C8.7119 2.45833 9.39464 2.71953 9.89802 3.18446C10.4014 3.6494 10.6842 4.27998 10.6842 4.9375V6.25Z" fill="#B6BAC6"/>
</g>
</svg>
