<svg width="26" height="32" viewBox="0 0 26 32" fill="none" xmlns="http://www.w3.org/2000/svg">
<path d="M22.9987 12.6667H21.9987V9C21.9987 6.61305 21.0505 4.32387 19.3627 2.63604C17.6748 0.948212 15.3856 0 12.9987 0C10.6117 0 8.32256 0.948212 6.63474 2.63604C4.94691 4.32387 3.9987 6.61305 3.9987 9V12.6667H2.9987C2.29145 12.6667 1.61318 12.9476 1.11308 13.4477C0.612983 13.9478 0.332031 14.6261 0.332031 15.3333V29.3333C0.332031 30.0406 0.612983 30.7189 1.11308 31.219C1.61318 31.719 2.29145 32 2.9987 32H22.9987C23.7059 32 24.3842 31.719 24.8843 31.219C25.3844 30.7189 25.6654 30.0406 25.6654 29.3333V15.3333C25.6654 14.6261 25.3844 13.9478 24.8843 13.4477C24.3842 12.9476 23.7059 12.6667 22.9987 12.6667ZM12.9987 24.6667C12.4713 24.6667 11.9557 24.5103 11.5172 24.2173C11.0786 23.9242 10.7369 23.5078 10.535 23.0205C10.3332 22.5332 10.2804 21.997 10.3833 21.4798C10.4862 20.9625 10.7401 20.4873 11.1131 20.1144C11.486 19.7414 11.9612 19.4875 12.4785 19.3846C12.9957 19.2817 13.5319 19.3345 14.0192 19.5363C14.5065 19.7382 14.9229 20.0799 15.216 20.5185C15.509 20.957 15.6654 21.4726 15.6654 22C15.6654 22.7072 15.3844 23.3855 14.8843 23.8856C14.3842 24.3857 13.7059 24.6667 12.9987 24.6667ZM18.6654 12C18.6654 12.1768 18.5951 12.3464 18.4701 12.4714C18.3451 12.5964 18.1755 12.6667 17.9987 12.6667H7.9987C7.82189 12.6667 7.65232 12.5964 7.52729 12.4714C7.40227 12.3464 7.33203 12.1768 7.33203 12V9C7.33203 7.49711 7.92905 6.05577 8.99176 4.99306C10.0545 3.93036 11.4958 3.33333 12.9987 3.33333C14.5016 3.33333 15.9429 3.93036 17.0056 4.99306C18.0683 6.05577 18.6654 7.49711 18.6654 9V12Z" fill="#9FA0A8"/>
</svg>
