<?xml version="1.0" encoding="UTF-8"?>
<svg width="18px" height="18px" viewBox="0 0 18 18" version="1.1" xmlns="http://www.w3.org/2000/svg" xmlns:xlink="http://www.w3.org/1999/xlink">
    <title>118BBEF1-5C70-4628-BCFF-92652622F0A9</title>
    <defs>
        <path d="M13.4166667,7.54166667 L12.9791667,7.54166667 L12.9791667,5.9375 C12.9791667,3.76283333 11.2163333,2 9.04166667,2 C6.867,2 5.10416667,3.76283333 5.10416667,5.9375 L5.10416667,7.54166667 L4.66666667,7.54166667 C4.02208333,7.54166667 3.5,8.06375 3.5,8.70833333 L3.5,14.8333333 C3.5,15.4779167 4.02208333,16 4.66666667,16 L13.4166667,16 C14.06125,16 14.5833333,15.4779167 14.5833333,14.8333333 L14.5833333,8.70833333 C14.5833333,8.06375 14.06125,7.54166667 13.4166667,7.54166667 Z M9.04166667,12.7916667 C8.39708333,12.7916667 7.875,12.2695833 7.875,11.625 C7.875,10.9804167 8.39708333,10.4583333 9.04166667,10.4583333 C9.68625,10.4583333 10.2083333,10.9804167 10.2083333,11.625 C10.2083333,12.2695833 9.68625,12.7916667 9.04166667,12.7916667 Z M11.5208333,7.25 C11.5208333,7.411 11.3901667,7.54166667 11.2291667,7.54166667 L6.85416667,7.54166667 C6.69316667,7.54166667 6.5625,7.411 6.5625,7.25 L6.5625,5.9375 C6.5625,4.56841667 7.67258333,3.45833333 9.04166667,3.45833333 C10.41075,3.45833333 11.5208333,4.56841667 11.5208333,5.9375 L11.5208333,7.25 Z" id="path-1"></path>
    </defs>
    <g id="Navigation" stroke="none" stroke-width="1" fill="none" fill-rule="evenodd">
        <g id="Business-Overview_open_Page_Title" transform="translate(-188.000000, -221.000000)">
            <g id="Group-8">
                <g id="Group-6" transform="translate(52.000000, 221.000000)">
                    <g id="ic/interaction/lock-copy" transform="translate(136.000000, 0.000000)">
                        <rect id="Rectangle" x="0" y="0" width="18" height="18"></rect>
                        <mask id="mask-2" fill="white">
                            <use xlink:href="#path-1"></use>
                        </mask>
                        <g id="streamline-icon-lock-2@16x16" fill-rule="nonzero"></g>
                        <g id="color/grey/6E6E6E" mask="url(#mask-2)" fill="black">
                            <rect id="Rectangle" x="0" y="0" width="18" height="18"></rect>
                        </g>
                    </g>
                </g>
            </g>
        </g>
    </g>
</svg>
