<svg width="16" height="16" viewBox="0 0 16 16" fill="none" xmlns="http://www.w3.org/2000/svg">
<path d="M12.9993 6.33333H12.4993V4.5C12.4993 3.30653 12.0252 2.16193 11.1813 1.31802C10.3374 0.474106 9.19282 0 7.99935 0C6.80587 0 5.66128 0.474106 4.81737 1.31802C3.97345 2.16193 3.49935 3.30653 3.49935 4.5V6.33333H2.99935C2.64573 6.33333 2.30659 6.47381 2.05654 6.72386C1.80649 6.97391 1.66602 7.31305 1.66602 7.66667V14.6667C1.66602 15.0203 1.80649 15.3594 2.05654 15.6095C2.30659 15.8595 2.64573 16 2.99935 16H12.9993C13.353 16 13.6921 15.8595 13.9422 15.6095C14.1922 15.3594 14.3327 15.0203 14.3327 14.6667V7.66667C14.3327 7.31305 14.1922 6.97391 13.9422 6.72386C13.6921 6.47381 13.353 6.33333 12.9993 6.33333ZM7.99935 12.3333C7.73564 12.3333 7.47785 12.2551 7.25859 12.1086C7.03932 11.9621 6.86843 11.7539 6.76751 11.5102C6.66659 11.2666 6.64019 10.9985 6.69164 10.7399C6.74308 10.4812 6.87007 10.2437 7.05654 10.0572C7.24301 9.87072 7.48059 9.74373 7.73923 9.69229C7.99787 9.64084 8.26596 9.66724 8.50959 9.76816C8.75323 9.86908 8.96147 10.04 9.10798 10.2592C9.25448 10.4785 9.33268 10.7363 9.33268 11C9.33268 11.3536 9.19221 11.6928 8.94216 11.9428C8.69211 12.1929 8.35297 12.3333 7.99935 12.3333ZM10.8327 6C10.8327 6.08841 10.7976 6.17319 10.7351 6.2357C10.6725 6.29821 10.5878 6.33333 10.4993 6.33333H5.49935C5.41094 6.33333 5.32616 6.29821 5.26365 6.2357C5.20113 6.17319 5.16602 6.08841 5.16602 6V4.5C5.16602 3.74855 5.46453 3.02788 5.99588 2.49653C6.52723 1.96518 7.2479 1.66667 7.99935 1.66667C8.7508 1.66667 9.47147 1.96518 10.0028 2.49653C10.5342 3.02788 10.8327 3.74855 10.8327 4.5V6Z" fill="white"/>
</svg>
