<svg width="16" height="16" viewBox="0 0 16 16" fill="none" xmlns="http://www.w3.org/2000/svg">
    <g id="General/More info">
        <path id="Vector" d="M7.99896 4C7.95281 4 7.9077 4.01368 7.86933 4.03932C7.83095 4.06496 7.80105 4.1014 7.78339 4.14404C7.76573 4.18668 7.76111 4.23359 7.77011 4.27885C7.77911 4.32412 7.80133 4.36569 7.83397 4.39833C7.8666 4.43096 7.90817 4.45318 7.95344 4.46218C7.9987 4.47119 8.04561 4.46657 8.08825 4.44891C8.13089 4.43124 8.16733 4.40134 8.19297 4.36297C8.21861 4.3246 8.23229 4.27948 8.23229 4.23333C8.23229 4.17145 8.20771 4.1121 8.16395 4.06834C8.12019 4.02458 8.06084 4 7.99896 4Z" stroke="#B6BAC6" stroke-linecap="round" stroke-linejoin="round"/>
        <path id="Vector_2" d="M8 11.9313V6.79797" stroke="#B6BAC6" stroke-linecap="round"/>
        <path id="Vector_3" d="M3.40381 12.5962C2.18482 11.3772 1.5 9.72391 1.5 8C1.5 6.27609 2.18482 4.62279 3.40381 3.40381C4.62279 2.18482 6.27609 1.5 8 1.5C9.72391 1.5 11.3772 2.18482 12.5962 3.40381C13.8152 4.62279 14.5 6.27609 14.5 8C14.5 9.72391 13.8152 11.3772 12.5962 12.5962C11.3772 13.8152 9.72391 14.5 8 14.5C6.27609 14.5 4.62279 13.8152 3.40381 12.5962Z" stroke="#B6BAC6"/>
    </g>
</svg>
