<svg width="46" height="45" viewBox="0 0 46 45" fill="none" xmlns="http://www.w3.org/2000/svg">
<path id="Vector" d="M44.5999 31.4026C44.5999 32.1664 44.2965 32.899 43.7564 33.4391C43.2163 33.9792 42.4837 34.2826 41.7199 34.2826H34.5199V44.3626L20.1199 34.2826H4.2799C3.51608 34.2826 2.78354 33.9792 2.24343 33.4391C1.70333 32.899 1.3999 32.1664 1.3999 31.4026V4.0426C1.3999 3.27877 1.70333 2.54623 2.24343 2.00613C2.78354 1.46603 3.51608 1.1626 4.2799 1.1626H41.7199C42.4837 1.1626 43.2163 1.46603 43.7564 2.00613C44.2965 2.54623 44.5999 3.27877 44.5999 4.0426V31.4026Z" fill="white" stroke="#131F3C" stroke-linecap="round" stroke-linejoin="round"/>
</svg>
