<svg width="25" height="24" viewBox="0 0 25 24" fill="none" xmlns="http://www.w3.org/2000/svg">
<path d="M3.54167 15.5417H6.45834C6.48572 15.5418 6.51287 15.5365 6.53819 15.526C6.56352 15.5156 6.58653 15.5003 6.60589 15.4809C6.62526 15.4615 6.6406 15.4385 6.65103 15.4132C6.66147 15.3879 6.66678 15.3607 6.66667 15.3333V13.6667C6.66667 13.4457 6.57887 13.2337 6.42259 13.0774C6.26631 12.9211 6.05435 12.8333 5.83334 12.8333H4.16667C3.94565 12.8333 3.73369 12.9211 3.57741 13.0774C3.42113 13.2337 3.33334 13.4457 3.33334 13.6667V15.3333C3.33322 15.3607 3.33854 15.3879 3.34897 15.4132C3.3594 15.4385 3.37474 15.4615 3.39411 15.4809C3.41348 15.5003 3.43649 15.5156 3.46181 15.526C3.48714 15.5365 3.51428 15.5418 3.54167 15.5417Z" fill="#131F3C"/>
<path d="M9.16667 8.66667C8.94566 8.66667 8.73369 8.75446 8.57741 8.91074C8.42113 9.06703 8.33334 9.27899 8.33334 9.5V15.3333C8.33322 15.3607 8.33854 15.3879 8.34897 15.4132C8.3594 15.4385 8.37474 15.4615 8.39411 15.4809C8.41348 15.5003 8.43649 15.5156 8.46181 15.526C8.48714 15.5365 8.51428 15.5418 8.54167 15.5417H11.4583C11.4857 15.5418 11.5129 15.5365 11.5382 15.526C11.5635 15.5156 11.5865 15.5003 11.6059 15.4809C11.6253 15.4615 11.6406 15.4385 11.651 15.4132C11.6615 15.3879 11.6668 15.3607 11.6667 15.3333V9.5C11.6667 9.27899 11.5789 9.06703 11.4226 8.91074C11.2663 8.75446 11.0543 8.66667 10.8333 8.66667H9.16667Z" fill="#131F3C"/>
<path d="M14.1667 10.3333C13.9457 10.3333 13.7337 10.4211 13.5774 10.5774C13.4211 10.7337 13.3333 10.9457 13.3333 11.1667V15.3333C13.3332 15.3607 13.3385 15.3879 13.349 15.4132C13.3594 15.4385 13.3747 15.4615 13.3941 15.4809C13.4135 15.5003 13.4365 15.5156 13.4618 15.526C13.4871 15.5365 13.5143 15.5418 13.5417 15.5417H16.4583C16.4857 15.5418 16.5129 15.5365 16.5382 15.526C16.5635 15.5156 16.5865 15.5003 16.6059 15.4809C16.6253 15.4615 16.6406 15.4385 16.651 15.4132C16.6615 15.3879 16.6668 15.3607 16.6667 15.3333V11.1667C16.6667 10.9457 16.5789 10.7337 16.4226 10.5774C16.2663 10.4211 16.0543 10.3333 15.8333 10.3333H14.1667Z" fill="#131F3C"/>
<path d="M18.5417 15.5417H21.4583C21.4857 15.5418 21.5129 15.5365 21.5382 15.526C21.5635 15.5156 21.5865 15.5003 21.6059 15.4809C21.6253 15.4615 21.6406 15.4385 21.651 15.4132C21.6615 15.3879 21.6668 15.3607 21.6667 15.3333V5.33333C21.6667 5.11232 21.5789 4.90036 21.4226 4.74408C21.2663 4.5878 21.0543 4.5 20.8333 4.5H19.1667C18.9457 4.5 18.7337 4.5878 18.5774 4.74408C18.4211 4.90036 18.3333 5.11232 18.3333 5.33333V15.3333C18.3332 15.3607 18.3385 15.3879 18.349 15.4132C18.3594 15.4385 18.3747 15.4615 18.3941 15.4809C18.4135 15.5003 18.4365 15.5156 18.4618 15.526C18.4871 15.5365 18.5143 15.5418 18.5417 15.5417Z" fill="#131F3C"/>
<path d="M3.33333 18.25H21.6667C21.8877 18.25 22.0996 18.1622 22.2559 18.0059C22.4122 17.8496 22.5 17.6377 22.5 17.4167C22.5 17.1957 22.4122 16.9837 22.2559 16.8274C22.0996 16.6711 21.8877 16.5833 21.6667 16.5833H3.33333C3.11232 16.5833 2.90036 16.6711 2.74408 16.8274C2.5878 16.9837 2.5 17.1957 2.5 17.4167C2.5 17.6377 2.5878 17.8496 2.74408 18.0059C2.90036 18.1622 3.11232 18.25 3.33333 18.25Z" fill="#131F3C"/>
</svg>
