<svg width="23" height="22" viewBox="0 0 23 22" fill="none" xmlns="http://www.w3.org/2000/svg">
<path d="M20.9965 8.9325L19.8454 8.52173C19.6787 8.46469 19.5263 8.37237 19.3986 8.25106C19.2709 8.12976 19.1709 7.98234 19.1054 7.81887C19.0352 7.65919 18.999 7.48668 18.999 7.31227C18.999 7.13785 19.0352 6.96534 19.1054 6.80566L19.6992 5.69204C19.8922 5.28834 19.9552 4.83481 19.8794 4.39388C19.8037 3.95296 19.5931 3.54633 19.2765 3.22999C18.9599 2.91365 18.5529 2.70317 18.1116 2.62752C17.6703 2.55187 17.2164 2.61477 16.8124 2.80757L15.6978 3.337C15.5373 3.40453 15.3649 3.43932 15.1908 3.43932C15.0167 3.43932 14.8443 3.40453 14.6838 3.337C14.522 3.26863 14.376 3.16769 14.255 3.04049C14.134 2.91328 14.0405 2.76253 13.9803 2.59763L13.5692 1.43836C13.4179 1.01723 13.1401 0.653059 12.7738 0.395612C12.4076 0.138164 11.9707 0 11.5228 0C11.075 0 10.6381 0.138164 10.2718 0.395612C9.90556 0.653059 9.62778 1.01723 9.47646 1.43836L9.01968 2.62501C8.95952 2.78991 8.86602 2.94066 8.74499 3.06787C8.62397 3.19508 8.47801 3.29601 8.31623 3.36438C8.15574 3.43191 7.98335 3.4667 7.8092 3.4667C7.63506 3.4667 7.46267 3.43191 7.30218 3.36438L6.18763 2.80757C5.7836 2.61477 5.32969 2.55187 4.8884 2.62752C4.44711 2.70317 4.04014 2.91365 3.72354 3.22999C3.40694 3.54633 3.19628 3.95296 3.12056 4.39388C3.04485 4.83481 3.10781 5.28834 3.30077 5.69204L3.83063 6.80566C3.90084 6.96534 3.93709 7.13785 3.93709 7.31227C3.93709 7.48668 3.90084 7.65919 3.83063 7.81887C3.76518 7.98234 3.66519 8.12976 3.53748 8.25106C3.40977 8.37237 3.25735 8.46469 3.09065 8.52173L1.93956 8.9325C1.51808 9.0837 1.1536 9.36125 0.89594 9.72722C0.638279 10.0932 0.5 10.5297 0.5 10.9772C0.5 11.4246 0.638279 11.8612 0.89594 12.2271C1.1536 12.5931 1.51808 12.8707 1.93956 13.0219L3.09065 13.4326C3.25735 13.4897 3.40977 13.582 3.53748 13.7033C3.66519 13.8246 3.76518 13.972 3.83063 14.1355C3.90084 14.2952 3.93709 14.4677 3.93709 14.6421C3.93709 14.8165 3.90084 14.989 3.83063 15.1487L3.30077 16.2623C3.09141 16.6675 3.01551 17.1283 3.0839 17.5791C3.1523 18.0299 3.3615 18.4476 3.68163 18.7725C4.00176 19.0975 4.41645 19.313 4.8665 19.3884C5.31654 19.4638 5.77893 19.3952 6.18763 19.1924L7.30218 18.6721C7.46139 18.5997 7.63428 18.5623 7.8092 18.5623C7.98413 18.5623 8.15702 18.5997 8.31623 18.6721C8.47891 18.7391 8.62563 18.8395 8.74684 18.9669C8.86805 19.0943 8.96101 19.2458 9.01968 19.4115L9.43078 20.5616C9.58211 20.9828 9.85989 21.3469 10.2262 21.6044C10.5924 21.8618 11.0293 22 11.4772 22C11.925 22 12.3619 21.8618 12.7282 21.6044C13.0944 21.3469 13.3722 20.9828 13.5235 20.5616L13.9346 19.4115C13.9933 19.2458 14.0863 19.0943 14.2075 18.9669C14.3287 18.8395 14.4754 18.7391 14.6381 18.6721C14.7973 18.5997 14.9702 18.5623 15.1451 18.5623C15.32 18.5623 15.4929 18.5997 15.6521 18.6721L16.7667 19.1924C17.1766 19.4128 17.6467 19.4953 18.1073 19.4277C18.5679 19.3601 18.9944 19.1459 19.3235 18.817C19.6527 18.4881 19.867 18.062 19.9347 17.6018C20.0023 17.1416 19.9198 16.6719 19.6992 16.2623L19.1694 15.1487C19.0992 14.989 19.0629 14.8165 19.0629 14.6421C19.0629 14.4677 19.0992 14.2952 19.1694 14.1355C19.2348 13.972 19.3348 13.8246 19.4625 13.7033C19.5902 13.582 19.7426 13.4897 19.9094 13.4326L21.0604 13.0219C21.4819 12.8707 21.8464 12.5931 22.1041 12.2271C22.3617 11.8612 22.5 11.4246 22.5 10.9772C22.5 10.5297 22.3617 10.0932 22.1041 9.72722C21.8464 9.36125 21.4819 9.0837 21.0604 8.9325H20.9965ZM11.4772 15.3495C10.6157 15.3287 9.77769 15.0648 9.05995 14.5883C8.3422 14.1118 7.77399 13.4422 7.42094 12.6567C7.19943 12.1246 7.08517 11.554 7.0847 10.9777C7.08423 10.4014 7.19756 9.83061 7.4182 9.29811C7.63885 8.76562 7.96247 8.28185 8.37052 7.87451C8.77858 7.46718 9.26306 7.14428 9.7962 6.92432C10.8734 6.49462 12.076 6.50223 13.1477 6.94556C14.2194 7.38888 15.0754 8.23285 15.5334 9.29762C15.7549 9.82975 15.8692 10.4003 15.8696 10.9767C15.8701 11.553 15.7568 12.1237 15.5361 12.6562C15.3155 13.1887 14.9919 13.6725 14.5838 14.0798C14.1757 14.4872 13.6913 14.8101 13.1581 15.03C12.6262 15.2524 12.0536 15.3612 11.4772 15.3495Z" fill="black"/>
</svg>
