<svg width="120" height="86" viewBox="0 0 120 86" fill="none" xmlns="http://www.w3.org/2000/svg">
<path d="M26.649 47.2987C24.5125 47.8711 22.5397 47.6112 20.7305 46.5188C18.9176 45.4123 17.7211 43.7767 17.141 41.6119C16.5686 39.4754 16.7978 37.473 17.8288 35.6044C18.8559 33.7217 20.4448 32.4923 22.5954 31.916C23.8405 31.5824 24.9567 31.5032 25.9438 31.6785C26.9272 31.8396 27.9424 32.2045 28.9895 32.7731L28.2044 34.2573C26.4114 33.282 24.673 33.0199 22.9893 33.471C21.3481 33.9108 20.133 34.8657 19.3441 36.3358C18.5693 37.802 18.415 39.4053 18.8813 41.1456C19.3439 42.8718 20.2861 44.1812 21.7082 45.074C23.1265 45.9526 24.6492 46.174 26.2763 45.738C27.2384 45.4802 28.0399 45.0759 28.6809 44.525C29.3218 43.9741 29.9277 43.2356 30.4983 42.3093L31.9147 43.1808C31.3036 44.2393 30.5951 45.1039 29.7892 45.7748C28.9832 46.4457 27.9365 46.9537 26.649 47.2987ZM43.6985 40.9332C42.8944 42.3467 41.6788 43.2714 40.0517 43.7074C38.4246 44.1434 36.9166 43.9485 35.5276 43.1226C34.1528 42.293 33.2531 41.0858 32.8285 39.5012C32.4077 37.9307 32.5922 36.4406 33.3822 35.0309C34.1825 33.6033 35.3962 32.6715 37.0233 32.2355C38.6504 31.7995 40.1585 31.9945 41.5474 32.8203C42.9364 33.6461 43.8432 34.8514 44.2678 36.436C44.6886 38.0066 44.4988 39.5056 43.6985 40.9332ZM39.7018 42.2316C40.8761 41.917 41.7283 41.2488 42.2583 40.2273C42.8024 39.2019 42.9134 38.0879 42.5911 36.8853C42.2727 35.6968 41.6055 34.7913 40.5894 34.1688C39.5876 33.5426 38.5136 33.383 37.3676 33.6901C36.1932 34.0047 35.343 34.6799 34.8167 35.7156C34.2868 36.7372 34.1829 37.8493 34.5051 39.0519C34.8236 40.2404 35.4837 41.1478 36.4856 41.7741C37.4837 42.3862 38.5557 42.5387 39.7018 42.2316ZM48.6953 41.1184L45.7552 30.146L47.3894 29.7081L47.8841 31.5546C48.4323 29.9216 49.4279 28.9117 50.8711 28.525C52.5124 28.0852 53.882 28.4992 54.9799 29.767C55.5374 28.0557 56.6297 26.982 58.2568 26.546C59.516 26.2086 60.6126 26.3394 61.5465 26.9384C62.4945 27.5336 63.1505 28.5103 63.5145 29.8686L65.3342 36.66L63.7 37.0979L61.9826 30.6885C61.6983 29.6273 61.2256 28.882 60.5646 28.4525C59.914 28.0051 59.143 27.9009 58.2516 28.1397C57.3885 28.371 56.7485 28.8685 56.3314 29.6323C55.9143 30.3962 55.846 31.3016 56.1266 32.3486L57.8212 38.6731L56.2083 39.1053L54.4795 32.6535C54.2065 31.6347 53.7376 30.9036 53.0729 30.46C52.4222 30.0126 51.6583 29.9064 50.7811 30.1414C49.9038 30.3765 49.2624 30.8971 48.8567 31.7034C48.4509 32.5097 48.3827 33.4151 48.6519 34.4197L50.3294 40.6805L48.6953 41.1184ZM65.3419 22.3274L64.8586 20.5234L66.7262 20.023L67.2096 21.8269L65.3419 22.3274ZM69.0307 35.6695L66.0907 24.6972L67.7248 24.2593L70.6649 35.2317L69.0307 35.6695ZM74.4573 34.2155L71.5173 23.2431L73.1515 22.8052L73.6633 24.7153C74.1435 23.055 75.2042 22.005 76.8454 21.5652C78.1471 21.2164 79.281 21.3448 80.2469 21.9504C81.2091 22.5418 81.8684 23.5024 82.2248 24.8324L84.0502 31.6451L82.416 32.0829L80.6986 25.6735C80.4219 24.6407 79.937 23.9062 79.2439 23.4702C78.5611 23.0162 77.7387 22.9181 76.7766 23.1759C75.8286 23.4299 75.1287 23.9587 74.6767 24.7622C74.2248 25.5657 74.1353 26.4768 74.4083 27.4955L76.0915 33.7776L74.4573 34.2155ZM93.3167 32.8471C91.4632 33.3438 89.6642 33.2799 87.9198 32.6554L88.3214 31.183C89.8591 31.7718 91.392 31.8615 92.9201 31.4521C94.151 31.1223 95.0293 30.523 95.5547 29.6543C96.0981 28.796 96.2011 27.7372 95.8637 26.4779L95.5168 25.1833C94.7698 27.0364 93.5404 28.1923 91.8284 28.651C90.4418 29.0226 89.1051 28.8727 87.8182 28.2015C86.5417 27.5124 85.6968 26.3967 85.2836 24.8545C84.8703 23.3122 85.0531 21.9288 85.832 20.7041C86.6071 19.4652 87.6808 18.6619 89.0532 18.2941C90.8077 17.824 92.4339 18.1769 93.9317 19.3526L93.4029 17.3789L95.0371 16.941L97.4653 26.0033C97.9089 27.6587 97.7888 29.0784 97.1052 30.2624C96.3906 31.5003 95.1277 32.3619 93.3167 32.8471ZM91.76 27.1226C92.8353 26.8344 93.6814 26.2286 94.2984 25.3051C94.9153 24.3815 95.0778 23.375 94.7859 22.2856C94.4939 21.1961 93.8519 20.4128 92.8596 19.9356C91.8815 19.4546 90.8477 19.3601 89.7583 19.652C88.683 19.9401 87.8703 20.5294 87.3204 21.4198C86.7808 22.2923 86.6607 23.2875 86.9602 24.4052C87.2483 25.4805 87.855 26.2733 88.7803 26.7836C89.7198 27.2901 90.713 27.4031 91.76 27.1226ZM44.3855 64.2415C42.1076 64.8518 39.872 64.6016 37.6788 63.4909L38.3889 61.9813C39.3746 62.4906 40.3091 62.8088 41.1924 62.9361C42.0899 63.0596 43.0409 62.9867 44.0454 62.7176C45.0359 62.4522 45.7727 62.0045 46.256 61.3746C46.7355 60.7305 46.8729 60.0265 46.6682 59.2624C46.4748 58.5408 46.0524 58.0398 45.4011 57.7594C44.7497 57.479 43.6324 57.3841 42.0492 57.4747C40.1783 57.5666 38.7665 57.3914 37.8139 56.949C36.8613 56.5067 36.2239 55.6842 35.9017 54.4816C35.587 53.3072 35.7872 52.2148 36.5021 51.2044C37.217 50.1939 38.282 49.4991 39.6968 49.12C41.6635 48.593 43.5668 48.7351 45.4068 49.5463L44.7774 51.1025C43.1735 50.3797 41.6004 50.225 40.0582 50.6382C39.1102 50.8922 38.4087 51.3304 37.9537 51.9528C37.4949 52.561 37.3603 53.2188 37.5499 53.9262C37.747 54.662 38.1784 55.1681 38.8439 55.4447C39.5236 55.7175 40.6942 55.8133 42.3557 55.7321C44.1379 55.6488 45.5002 55.8373 46.4424 56.2976C47.395 56.7399 48.0248 57.5341 48.3319 58.6801C48.6693 59.9394 48.4683 61.0851 47.7288 62.1173C46.9856 63.1353 45.8712 63.8434 44.3855 64.2415ZM61.2583 57.9689C60.4542 59.3824 59.2386 60.3071 57.6115 60.7431C55.9844 61.1791 54.4763 60.9841 53.0874 60.1583C51.7126 59.3287 50.8129 58.1215 50.3882 56.5369C49.9674 54.9663 50.152 53.4763 50.942 52.0666C51.7423 50.639 52.956 49.7072 54.5831 49.2712C56.2102 48.8352 57.7182 49.0301 59.1072 49.856C60.4961 50.6818 61.4029 51.8871 61.8275 53.4717C62.2484 55.0422 62.0586 56.5413 61.2583 57.9689ZM57.2615 59.2673C58.4359 58.9526 59.2881 58.2845 59.8181 57.263C60.3622 56.2376 60.4732 55.1236 60.1509 53.921C59.8324 52.7325 59.1652 51.827 58.1492 51.2045C57.1473 50.5782 56.0734 50.4187 54.9273 50.7257C53.753 51.0404 52.9027 51.7156 52.3765 52.7513C51.8465 53.7729 51.7426 54.885 52.0649 56.0876C52.3833 57.2761 53.0435 58.1835 54.0454 58.8098C55.0434 59.4219 56.1155 59.5744 57.2615 59.2673ZM74.9787 54.2925C74.1746 55.706 72.959 56.6307 71.3319 57.0667C69.7048 57.5027 68.1968 57.3077 66.8078 56.4819C65.433 55.6523 64.5333 54.4451 64.1087 52.8605C63.6879 51.29 63.8724 49.7999 64.6624 48.3902C65.4627 46.9626 66.6764 46.0308 68.3035 45.5948C69.9306 45.1588 71.4387 45.3537 72.8276 46.1796C74.2166 47.0054 75.1234 48.2107 75.548 49.7953C75.9688 51.3658 75.7791 52.8649 74.9787 54.2925ZM70.982 55.5909C72.1563 55.2763 73.0085 54.6081 73.5385 53.5866C74.0826 52.5612 74.1936 51.4472 73.8714 50.2446C73.5529 49.0561 72.8857 48.1506 71.8697 47.5281C70.8678 46.9019 69.7938 46.7423 68.6478 47.0494C67.4734 47.364 66.6232 48.0392 66.097 49.0749C65.567 50.0965 65.4631 51.2086 65.7853 52.4112C66.1038 53.5997 66.7639 54.5071 67.7658 55.1334C68.7639 55.7455 69.8359 55.898 70.982 55.5909ZM79.9755 54.4777L77.0354 43.5053L78.6696 43.0674L79.1814 44.9775C79.6616 43.3172 80.7223 42.2672 82.3635 41.8274C83.6652 41.4786 84.7991 41.607 85.765 42.2126C86.7272 42.804 87.3865 43.7647 87.7429 45.0947L89.5683 51.9073L87.9341 52.3452L86.2167 45.9358C85.94 44.9029 85.4551 44.1685 84.762 43.7324C84.0792 43.2785 83.2568 43.1804 82.2947 43.4382C81.3467 43.6922 80.6468 44.2209 80.1948 45.0244C79.7429 45.8279 79.6534 46.739 79.9264 47.7578L81.6096 54.0398L79.9755 54.4777Z" fill="#C6CBD3"/>
<path fill-rule="evenodd" clip-rule="evenodd" d="M106.151 4.23602C106.327 4.32121 106.2 4.27949 106.469 4.31291C106.585 4.15787 106.491 4.25085 106.716 4.09555C106.47 3.6176 106.549 3.73143 106.145 3.60579C106.028 4.0277 106.225 3.77189 105.796 4.00735C106.072 4.32271 105.755 4.13023 106.151 4.23602ZM79.7106 66.4902C79.7373 66.5902 79.7618 66.6895 79.7858 66.791C79.9244 66.7546 80.0665 66.7197 80.2076 66.6837C80.1589 66.4837 80.1074 66.2864 80.0605 66.0867C80.0138 66.0997 79.9643 66.111 79.9209 66.1228C79.8222 66.5314 80.013 66.2151 79.7106 66.4902ZM110.556 59.3659C110.266 59.471 110.597 59.5948 110.77 59.6252C110.857 59.3735 110.617 59.3976 110.556 59.3659ZM71.908 69.3868C72.8108 69.1946 74.8992 68.8164 75.1097 68.4314C75.4466 68.3982 75.4765 68.4136 75.7093 68.4377C75.6062 68.6211 75.5023 68.8068 75.3971 68.9915C75.2548 69.0224 75.1152 69.0604 74.9771 69.0946C75.0121 69.2438 75.0493 69.3959 75.0865 69.5416C75.6553 69.5517 76.5394 69.666 77.0633 69.6783C77.8479 69.4298 78.635 69.184 79.4214 68.9337C81.5571 68.9239 84.1265 68.31 85.898 67.32C86.1185 67.1943 86.3675 67.6233 86.6751 67.4416C86.8135 67.1943 86.9523 66.9503 87.0907 66.7046C87.3369 66.545 87.7851 66.5573 87.9372 66.4952C88.414 66.2942 108.18 61.4157 108.674 61.4124C108.941 61.4147 109.344 61.3526 109.797 61.2609L112.593 60.507C112.842 60.4201 113.01 60.356 113.04 60.3256C113.542 60.204 113.981 60.0552 114.268 59.8602C114.304 59.7996 114.336 59.7381 114.372 59.6798C112.921 59.0722 110.783 60.6844 109.192 60.4965C108.597 60.6111 108.523 60.551 108.133 60.4422C108.107 60.3442 108.084 60.2449 108.059 60.1472C108.425 60.1942 108.305 60.1449 108.555 60.3389C109.098 60.114 109.226 59.8336 109.252 59.5328C109.516 59.1086 109.374 59.4302 109.243 58.9008C109.667 58.5424 110.11 58.4532 110.402 58.1411C110.621 57.9833 110.533 58.0766 110.646 57.92C110.608 57.8828 110.589 57.8411 110.572 57.7923L87.459 64.0238C87.4163 64.3859 87.3968 64.751 87.4618 65.1895C87.2422 65.3451 87.3316 65.2529 87.2175 65.4112C87.1241 65.4328 87.03 65.4551 86.9353 65.4798C86.8527 64.9254 86.8569 64.5163 86.801 64.2012L85.4338 64.5706C85.4762 65.1383 85.3963 65.2885 85.3873 65.8637C84.4226 66.0467 84.2089 66.1027 83.2766 66.3932C83.3136 66.5395 83.3498 66.69 83.3873 66.8375C83.0312 66.794 82.3397 66.8543 82.2231 66.9712C82.1292 66.9953 82.0348 67.0187 81.9409 67.0405C81.9721 66.8332 82.0001 66.5498 82.0762 66.3754C81.8974 66.2618 81.7196 66.1485 81.5426 66.0351C81.4474 66.057 81.3545 66.0816 81.2599 66.1062C81.4102 66.4259 81.423 66.2397 81.3713 66.5515C81.4087 66.6995 81.4437 66.8475 81.4821 66.9976C81.5573 66.8166 81.5246 66.9481 81.5486 66.6641C81.5958 66.6508 81.6422 66.6407 81.6879 66.6309C81.6614 66.9109 81.6969 66.7817 81.6215 66.9624C81.6357 67.0126 81.6482 67.0601 81.6609 67.1131C81.2569 66.9785 81.42 67.1026 81.2299 66.5854C80.8823 66.9671 81.1925 66.9656 81.0963 67.2521C80.7834 67.5547 80.4842 67.4519 80.0735 67.3479C80.037 67.5974 79.8879 67.2124 79.577 67.1556C79.0656 67.1363 79.4599 67.5542 78.947 67.6303C78.2208 67.7426 76.7616 67.4348 76.2659 67.6667C76.0999 67.7446 76.0676 68.1779 75.6344 68.1407C75.4531 68.1263 74.8288 67.6125 74.6068 67.6089C73.8391 67.5976 73.5729 68.3997 72.5952 68.0319L71.9512 68.2068C71.9 68.2364 71.8496 68.2708 71.7901 68.3115C71.8298 68.6701 71.8698 69.0277 71.908 69.3868ZM109.682 60.0583C110.168 59.6371 109.705 59.7768 110.311 59.5836C110.245 59.1916 110.248 59.0644 110.269 58.8036C110.177 58.8292 110.08 58.8511 109.987 58.8757C109.895 59.1863 109.786 59.6075 109.645 59.911C109.658 59.9573 109.669 60.008 109.682 60.0583ZM64.2637 12.3689C63.9872 12.0533 64.3041 12.2445 63.9081 12.1403C63.8084 12.3061 63.7138 12.4036 63.559 12.5416C63.5834 12.6431 63.6071 12.7391 63.6321 12.8414C63.9258 12.6695 63.9767 12.6361 64.1223 12.4016C64.171 12.3923 64.2172 12.381 64.2637 12.3689ZM78.6215 66.9225C78.4694 66.6858 78.5573 66.7838 78.407 66.6601C78.4322 66.7594 78.4554 66.8571 78.4806 66.9559C78.5288 66.9438 78.5765 66.9333 78.6215 66.9225ZM111.297 59.3386C111.308 59.1785 111.318 59.0165 111.328 58.8556C111.209 58.7838 111.091 58.7044 110.972 58.6317C110.785 58.6767 110.598 58.7225 110.41 58.7707C110.563 59.0052 110.474 58.9084 110.624 59.0323C110.844 59.321 110.898 59.173 111.297 59.3386ZM63.6907 11.8779C63.9172 11.7598 66.3984 11.1394 66.6504 11.1396C67.0175 11.1386 68.0718 11.3223 68.4507 11.164C68.5945 11.1072 68.9359 10.6029 69.0425 10.5416C69.6189 10.2139 71.8169 9.91033 72.1773 9.91862C73.6082 9.95681 94.0772 3.27103 94.6638 3.45547C95.1373 3.56252 94.8891 3.71028 95.2355 3.94423C95.2624 3.65851 96.9915 3.75752 97.9702 3.88794L99.1771 3.56252C100.117 3.30922 101.07 3.36702 101.931 3.67535C102.298 3.31676 102.546 3.43637 102.778 3.0117C102.825 2.99787 102.873 2.98858 102.918 2.97652C102.705 2.89057 102.539 2.92274 102.178 2.99938C102.122 2.45559 102.081 2.46087 101.883 1.81255C102.118 1.75425 102.351 1.69343 102.586 1.63488C102.496 1.20945 102.484 0.986308 102.508 0.707629C102.691 0.660387 102.882 0.614401 103.066 0.567159C102.972 0.977764 103.16 0.656366 102.86 0.934794C103.306 1.11371 103.5 0.965451 103.563 0.759897C103.722 0.906147 103.739 0.981534 103.852 1.32052C104.217 1.17327 104.116 1.16347 104.491 1.47783C104.585 1.4527 104.678 1.42858 104.772 1.40847C104.32 0.921476 104.208 0.991837 104.372 0.398293C104.036 0.340748 104.135 0.320142 103.876 0.207564C103.864 0.157558 103.851 0.11107 103.84 0.0613145C103.771 0.246012 103.785 0.220631 103.81 0.540522C103.762 0.55384 103.715 0.563641 103.668 0.576456C103.575 0.0982539 103.373 0.42895 103.699 0.0934794C103.665 0.0502577 103.645 0.0283956 103.621 0L73.3844 8.15281C73.3874 8.16613 73.3917 8.17869 73.3952 8.19201C73.3795 8.17819 73.372 8.1704 73.36 8.15934L67.0322 9.86509C65.3531 10.4775 63.4994 10.9688 62.6843 11.0369L59.2956 11.9513C58.9325 12.2373 58.6615 12.6858 58.3726 12.7325C58.0762 13.0371 58.1988 12.7371 58.2015 13.2477C58.8888 13.2273 59.0761 13.6583 59.6512 13.6741C60.2615 13.6905 63.0704 12.2053 63.6907 11.8779ZM106.122 4.71566C106.028 4.74029 105.934 4.76492 105.843 4.78753C105.866 4.88679 105.89 4.98555 105.914 5.08456C106.01 5.06068 106.101 5.0353 106.197 5.01294C106.173 4.91494 106.147 4.81492 106.122 4.71566ZM104.483 0.846604C104.698 0.648086 104.628 0.755889 104.41 0.549832C104.433 0.649594 104.459 0.744833 104.483 0.846604ZM112.773 58.6549C112.867 58.63 112.961 58.6081 113.055 58.584C112.812 58.1364 113.074 58.3337 112.661 58.2076C112.7 58.3573 112.737 58.5058 112.773 58.6549ZM112.09 57.7198C111.964 57.5391 111.938 57.4675 111.897 57.4353L111.546 57.5303C111.542 57.6052 111.545 57.5803 111.492 57.7102C111.68 58.0274 111.72 58.006 111.92 58.2344C112.015 58.2123 112.11 58.1867 112.203 58.1641C112.116 57.7349 112.248 57.9243 112.09 57.7198ZM112.976 57.1441L112.339 57.316C112.422 57.515 112.504 57.712 112.586 57.9095C112.623 57.8487 112.657 57.7879 112.692 57.7271C112.819 57.6424 112.949 57.5572 113.076 57.4738C113.038 57.3399 113.007 57.2353 112.976 57.1441ZM111.712 58.6028C111.771 58.6404 111.83 58.6786 111.891 58.7156C111.878 58.6676 111.865 58.6178 111.853 58.5666C111.947 58.5429 112.041 58.5191 112.134 58.4977C111.969 58.4115 111.694 58.3756 111.498 58.3399C111.653 58.5756 111.562 58.4774 111.712 58.6028ZM113.329 57.8839C113.236 57.907 113.142 57.9309 113.047 57.9512C113.22 58.0352 113.095 58.0025 113.366 58.0344C113.355 57.9819 113.343 57.9346 113.329 57.8839ZM83.5124 65.5431C83.7606 65.5349 84.0068 65.524 84.2538 65.516C84.1766 65.128 84.1097 65.0308 84.1759 64.9101L83.3013 65.1449C83.3655 65.2986 83.4222 65.4012 83.5124 65.5431ZM30.1138 79.8108C30.1603 79.8 30.207 79.7864 30.2544 79.7759C30.0986 79.5404 30.1915 79.6362 30.0399 79.5128C30.0654 79.6126 30.0908 79.7103 30.1138 79.8108ZM31.0206 79.2416L30.4635 79.3927C30.464 79.3982 30.4632 79.4017 30.463 79.4047C30.6503 79.36 30.8386 79.316 31.0256 79.266C31.0231 79.2575 31.0211 79.2489 31.0206 79.2416ZM29.8314 79.8822C29.8666 79.8176 29.9015 79.7583 29.9348 79.6962C29.8416 79.7196 29.748 79.7427 29.6543 79.7658C29.5602 79.9578 29.74 79.9252 29.8314 79.8822ZM42.5379 17.4412C42.3276 17.1198 42.4243 17.2088 42.1451 17.0653C41.9785 17.0019 40.58 16.9859 40.2776 17.3721C39.1953 17.5902 39.1197 17.885 39.306 18.8791C40.0289 18.7228 40.5588 18.5798 41.2468 18.868C42.4327 18.5431 42.0384 18.1134 42.5379 17.4412ZM3.70798 44.1449C3.62682 44.8447 3.7297 45.9404 4.29932 46.5234C4.31106 46.5731 4.3238 46.6236 4.33603 46.6721C4.43143 46.6498 4.52283 46.6256 4.61822 46.6028C4.51134 46.0698 4.25687 45.3202 4.45565 44.747C4.1892 44.7123 4.31131 44.7523 4.13725 44.6676C3.74719 44.5359 4.44966 43.8557 4.47862 43.6361C4.37049 43.4008 4.26261 43.1616 4.15398 42.9257C4.29358 42.8917 4.43442 42.8563 4.57477 42.8224C4.53781 42.6701 4.5016 42.5241 4.46514 42.3728C5.01428 42.5384 5.87008 44.0635 5.83387 44.8769C5.83387 44.8769 6.28762 44.9603 6.59902 45.0498L3.77715 34.4542C3.06794 31.7903 1.86252 29.6244 7.10521 28.3876L22.5548 24.221C22.6407 24.1398 22.7127 24.0586 22.7638 23.9815C22.8006 23.9177 22.8343 23.8576 22.868 23.7963C22.8223 23.8069 22.7763 23.8199 22.7289 23.8322C22.6914 23.6822 22.6527 23.5335 22.6175 23.3862C22.6655 23.3729 22.7112 23.3628 22.7579 23.3498C22.8925 23.5556 22.9189 23.5717 23.0453 23.9119C23.336 23.9021 23.6344 23.8765 23.9315 23.8506L32.8649 21.4422C32.8806 21.437 32.8961 21.4299 32.9098 21.4231C32.9738 21.3998 33.0442 21.3874 33.1114 21.3761L34.4901 21.0042C34.8587 20.6582 35.1831 20.1561 35.5399 19.9755C35.9819 19.7576 36.9606 19.8933 37.5872 19.783C37.5492 19.6322 37.513 19.4857 37.4743 19.3359C38.2699 19.2681 38.3528 19.0193 38.8835 18.9854C38.9187 18.9231 38.9524 18.864 38.9874 18.7987C38.9514 18.6514 38.9132 18.5022 38.8777 18.3531C38.1583 18.367 37.2907 17.9888 36.374 18.5072C35.9989 18.716 34.7635 19.5131 34.3712 19.4799C33.1631 19.3764 31.381 19.6108 29.2699 20.0471L26.7487 20.7263C23.5352 21.6611 20.4901 22.5275 18.0748 23.0661L1.29465 27.5903C-0.87369 27.9431 0.313493 30.5922 0.416129 31.8845C1.29465 34.7261 2.44488 42.649 3.70798 44.1449ZM40.8227 76.5993L39.8483 76.8616C39.8778 76.975 39.9047 77.0883 39.9322 77.2004C40.5121 77.026 40.552 76.9368 40.8449 76.6581C40.8367 76.635 40.8319 76.6207 40.8227 76.5993ZM36.8343 77.9754C36.865 77.8824 36.8341 77.793 36.8113 77.6799L33.984 78.4433C34.0719 78.5823 34.0269 78.5307 34.1605 78.6413C34.6814 78.8531 36.3923 78.7205 36.8343 77.9754ZM29.1652 80.2049C29.1282 80.0596 29.0922 79.9166 29.0573 79.7709L28.2801 79.9812C28.3256 80.0518 28.3708 80.128 28.4252 80.231C28.6707 80.2227 28.9184 80.2147 29.1652 80.2049ZM53.6605 14.2244C53.694 14.1586 53.7284 14.1018 53.7624 14.0392C53.1041 13.895 52.3655 14.0075 51.8221 14.0503C51.7269 14.4279 51.3326 14.6996 50.984 14.8896C51.0092 14.9921 51.0339 15.0888 51.0587 15.1899C51.7936 15.075 52.102 15.2394 52.7178 15.2502C52.9503 14.8566 53.4213 14.6099 53.6605 14.2244ZM56.2064 14.8517C56.1402 14.9821 56.07 15.0984 55.9909 15.2065L57.7097 14.7431C57.5097 14.6185 57.2879 14.521 57.0147 14.4903C56.8529 14.6833 56.5907 14.7567 56.2064 14.8517ZM51.0946 16.575C51.2846 16.4933 51.4804 16.4227 51.6832 16.3677L52.509 16.1453C52.4993 16.1295 52.4925 16.1167 52.4795 16.0978C52.1402 16.1305 51.798 16.1616 51.4577 16.1956C51.356 16.325 51.2252 16.4509 51.0946 16.575ZM57.3551 13.457C57.3192 13.3097 57.2827 13.1622 57.2445 13.013C56.4696 13.0228 55.3893 13.1153 55.0971 13.3909C54.4261 13.5578 54.2276 13.6972 53.903 14.0056C54.6581 14.6986 56.0848 13.8598 57.3551 13.457ZM21.2863 82.5587C21.2628 82.4604 21.2388 82.3614 21.2134 82.2629C21.1195 82.2855 21.0256 82.3094 20.9312 82.3305C21.0568 82.7305 20.8762 82.5463 21.2863 82.5587ZM50.6659 14.8132C50.2579 14.8964 50.435 14.7559 50.2429 14.9182C50.15 14.9406 50.0551 14.9647 49.9627 14.9891C50.0119 15.1864 50.0591 15.3831 50.1108 15.5834C50.4679 15.4628 50.5726 15.3987 50.7758 15.259C50.7419 15.1112 50.7034 14.963 50.6659 14.8132ZM18.6936 84.1543C18.9086 83.954 18.8381 84.0643 18.6184 83.8568C18.6444 83.956 18.6688 84.055 18.6936 84.1543ZM49.6989 75.5294C49.2602 75.3773 49.5631 75.5902 49.4472 75.1175C46.9075 75.6063 40.7401 78.3501 38.0424 78.6232C36.9159 78.7346 35.914 79.6161 35.2634 79.4728C34.9698 79.7807 35.0557 79.5927 35.1296 80.1377C34.9718 79.9928 34.9545 79.9189 34.8409 79.5799C33.9262 79.6859 33.5633 79.0353 33.3663 78.6094L31.8717 79.013C32.079 79.166 32.2775 79.1122 32.7517 78.9929C32.6211 79.5771 31.7421 80.1852 31.2474 80.1604C31.2132 80.2199 31.1777 80.2812 31.144 80.3441C31.3543 80.8318 31.4222 80.763 31.647 81.165C31.5993 81.1786 31.5513 81.1881 31.5046 81.2004C31.2546 80.823 31.2074 80.9461 31.0014 80.378C30.236 80.729 29.2526 81.0575 29.1792 81.4645C28.8416 81.4068 28.9435 81.3882 28.6835 81.2728C28.2822 80.9921 28.645 81.7201 28.1556 81.5628C27.8232 81.456 28.1603 81.3015 27.52 81.4068C27.6422 80.9735 27.8587 80.9846 28.4305 80.8627C28.4185 80.813 28.4073 80.764 28.3941 80.7145C27.9888 80.7243 27.6269 80.7444 27.0905 80.8811C27.1092 81.1997 27.1267 81.1791 27.0608 81.3613C27.1232 81.6098 27.1832 81.8573 27.2443 82.1053C26.6887 81.9181 26.9482 81.5723 26.2142 81.5721C26.2215 81.2198 26.2215 81.1547 26.3493 80.9067C26.3378 80.8584 26.3244 80.8089 26.3114 80.7592C25.93 80.8589 25.6683 80.926 25.5025 81.1175C25.2153 81.3761 21.7854 82.6245 21.8945 83.1969C21.3711 83.0771 21.647 83.0841 21.014 83.2598C20.8801 83.0517 20.8522 83.0359 20.7246 82.6994C20.2873 83.4125 20.0815 83.4367 19.1833 83.7146C19.3007 83.7925 19.42 83.8681 19.5399 83.945C19.5022 84.3252 19.5476 84.2046 19.3678 84.4594C19.6425 84.774 19.3291 84.5815 19.7227 84.6881C19.7464 84.7861 19.7711 84.8861 19.7946 84.9849C19.4065 84.8735 19.7159 85.0801 19.441 84.7552C19.0739 84.9891 18.8891 85.1957 18.7445 85.5646C18.0585 85.6495 17.4267 85.3839 17.1515 85.1713C17.0097 85.207 16.8708 85.2419 16.7298 85.2768C17.0504 85.7601 17.5334 85.9284 18.0423 86.0001L22.2322 84.8705C22.323 84.7831 26.011 83.7299 26.1313 83.6498C25.8319 83.3324 22.4292 84.3951 21.9083 84.4589C21.8835 84.3599 21.8581 84.2611 21.8356 84.1596C21.9597 83.951 25.6289 82.7408 25.6953 82.4941C26.0479 82.4737 26.621 82.3833 26.7174 82.3948C26.8588 82.3611 26.9996 82.3252 27.1402 82.291C26.9941 82.7441 27.1822 82.4981 26.7554 82.5441C26.9769 82.872 26.9676 82.7421 27.1849 83.0683C27.6996 82.8836 27.6806 82.8245 27.9568 82.5624C27.7438 82.2408 27.8419 82.3277 27.5622 82.184C27.7673 81.8948 28.0045 81.7814 28.4742 81.6389C28.5334 82.1362 28.441 82.3833 28.7324 82.6823C28.4415 83.0037 28.1718 82.9781 27.7503 83.3826L36.2361 81.0952C36.9388 80.4574 37.6968 80.2016 39.1526 80.082C40.0339 80.0116 41.3802 79.2336 42.844 78.6896C44.0549 78.2357 46.297 77.9855 47.9194 77.3967C48.0677 77.3419 48.3362 77.5862 48.4159 77.5874C48.4201 77.5859 52.0768 76.6732 52.0768 76.6732C52.9086 76.091 54.1755 75.0182 54.8802 74.7094C55.6503 74.3749 56.7424 74.7147 57.2793 74.7428C58.1566 74.7901 64.7023 72.6054 65.379 72.5971C66.6926 72.5797 67.4757 72.2036 68.7203 71.6045C69.7362 71.1155 73.6506 71.1698 74.4927 70.1636C74.7976 69.9392 74.675 69.9452 74.9806 69.7238C74.858 69.3451 74.7956 69.2356 74.6568 69.0172C73.776 69.2167 71.9043 69.4632 71.5599 69.7899C71.5115 69.8015 71.4663 69.8143 71.4176 69.8244C71.4236 69.469 71.4238 69.406 71.5537 69.1589C71.4198 68.8677 71.4456 68.88 71.3012 68.7486C71.0163 68.4372 71.1624 68.8931 70.9449 68.5202C70.6475 68.7129 70.6679 68.7539 70.4569 68.9582C70.4692 69.2193 70.4859 69.4793 70.4989 69.7387C69.9173 69.7897 69.4653 69.4281 68.9801 69.6444C68.6329 69.7975 68.2731 70.4898 67.8603 70.5538C64.7595 71.0587 56.5114 73.4826 53.6773 74.6948C52.6459 75.1368 50.0446 74.4875 49.6989 75.5294ZM18.6846 83.5221C18.6744 83.4738 18.6602 83.4231 18.6487 83.3763C18.5553 83.3979 18.4611 83.4213 18.3663 83.4442C18.5428 83.5286 18.4167 83.4939 18.6846 83.5221ZM28.3416 82.3059C28.2477 82.3302 28.1533 82.3518 28.0594 82.3762C28.3271 82.5044 28.2327 82.5858 28.3416 82.3059ZM4.47098 43.004C4.49546 43.1038 4.52093 43.204 4.5454 43.302C4.75966 43.1028 4.68999 43.2121 4.47098 43.004ZM12.0426 69.2137C12.0908 69.2021 12.138 69.1898 12.1842 69.1785C12.0316 68.9458 12.1203 69.0391 11.9709 68.9157C11.9937 69.0164 12.0181 69.1149 12.0426 69.2137ZM4.80488 44.3449C4.99267 44.2974 5.17921 44.2489 5.368 44.2032C5.34303 44.1036 5.31806 44.0059 5.29358 43.9061C5.04786 43.9147 4.79938 43.9237 4.55216 43.9338C4.63706 44.0692 4.72072 44.2064 4.80488 44.3449ZM11.6593 69.4675C11.3702 69.5768 11.6978 69.6976 11.8741 69.7311C11.9605 69.4763 11.7198 69.4999 11.6593 69.4675ZM114.409 56.8244C114.363 56.8362 114.318 56.846 114.269 56.8576C114.306 57.0064 114.342 57.1559 114.38 57.3041C114.79 57.1971 115.146 57.1051 115.402 57.2076C115.545 57.1737 115.685 57.1383 115.825 57.1008C115.743 56.9651 115.657 56.8289 115.574 56.6895C115.055 56.6194 114.557 56.8526 114.409 56.8244ZM113.499 57.366C113.564 57.4901 113.513 57.5384 113.996 57.56C114.019 57.658 114.045 57.7552 114.07 57.8563C114.117 57.8462 114.162 57.8341 114.209 57.8221C114.049 57.2522 114.057 57.1856 113.706 56.9971C113.637 57.1217 113.569 57.2439 113.499 57.366ZM26.7628 83.1738C26.7505 83.1258 26.7388 83.0758 26.7258 83.0273C26.4928 82.9964 26.4639 82.9786 26.1237 83.0173C26.4119 83.2268 26.3003 83.2009 26.7628 83.1738ZM12.4383 77.0258C12.4848 77.0155 12.532 77.0049 12.5782 76.9914C12.5285 76.5561 12.6321 76.6461 12.4304 76.3961C12.4091 76.6418 12.3939 76.67 12.4383 77.0258ZM9.87428 67.704C10.0721 68.6873 12.0674 75.3344 12.0009 75.8721C12.0256 75.9684 12.0509 76.0691 12.0748 76.1674C12.1692 76.1428 12.2626 76.1191 12.3563 76.0963C12.1053 74.8381 10.8095 68.5458 9.87428 67.704ZM14.1448 81.4972C14.0035 81.1856 13.7255 80.9024 13.6446 80.6768C13.4311 80.0973 13.3984 78.9095 12.9851 78.6285C13.0361 79.316 13.5672 80.2946 13.5028 80.7112C13.4973 80.7346 13.1904 81.1394 13.1901 81.263C13.2096 82.2601 14.1626 82.9203 14.1371 83.8702C14.7247 84.2627 15.0323 84.6662 15.7371 84.8934C15.7483 84.9394 15.7603 84.9912 15.774 85.0422C15.8207 85.0299 15.8667 85.0178 15.9141 85.0057C15.5583 84.3798 15.0538 84.4263 14.7374 83.8777C14.247 83.0354 14.4333 82.1232 14.1448 81.4972ZM12.518 77.9545C12.6274 78.1897 12.735 78.4252 12.8447 78.6621C12.8919 78.6518 12.9376 78.6393 12.9852 78.6284C12.8059 78.1078 12.8541 78.1342 12.518 77.9545ZM4.23072 46.8555C4.28066 47.0543 4.32911 47.2536 4.37805 47.4516C4.42725 47.438 4.47395 47.4262 4.51965 47.4146C4.55436 47.3533 4.59057 47.2948 4.62628 47.235C4.38355 46.7854 4.64276 46.9829 4.23072 46.8555ZM4.63427 44.8605C4.66973 45.0086 4.70694 45.1561 4.7434 45.3061C4.83779 45.2815 4.93319 45.2601 5.02609 45.2335C4.78435 44.7884 5.04531 44.9859 4.63427 44.8605ZM116.559 56.4449C116.123 56.3562 115.734 56.16 115.366 55.9346C115.33 55.969 115.291 56.0009 115.253 56.0326C115.554 56.2906 115.763 56.417 115.965 57.0679C116.316 56.75 116.175 56.7694 116.634 56.7445C116.608 56.6437 116.586 56.5457 116.559 56.4449ZM5.2778 45.6479C5.3642 45.3951 5.12472 45.4174 5.06428 45.386C4.77311 45.4938 5.10299 45.615 5.2778 45.6479ZM9.83734 67.5547C10.0097 67.0534 9.50246 65.6824 9.14186 65.3562C9.37386 66.0877 9.6066 66.8242 9.83734 67.5547ZM118.051 54.0198C118.088 54.167 118.125 54.3165 118.161 54.4643C118.195 54.4035 118.231 54.3412 118.267 54.2831C118.485 54.1233 118.396 54.2195 118.51 54.0597C118.356 54.0481 118.203 54.0326 118.051 54.0198ZM103.452 3.31452C103.5 3.30397 103.545 3.29165 103.591 3.2816C103.438 3.04665 103.53 3.14214 103.38 3.02026C103.403 3.11525 103.43 3.21903 103.452 3.31452ZM102.592 2.26609C102.605 2.3171 102.617 2.3656 102.629 2.41661C102.722 2.39224 102.817 2.36887 102.911 2.34449C102.779 2.05425 102.806 2.06858 102.661 1.93514C102.634 2.21282 102.668 2.08742 102.592 2.26609ZM103.911 3.35998C103.958 3.34691 104.007 3.33736 104.053 3.3253C103.898 3.09286 103.988 3.18584 103.836 3.06245C103.862 3.16146 103.886 3.25972 103.911 3.35998ZM104.152 5.29192C104.36 5.07078 104.514 4.87 104.561 4.77728C104.644 4.7044 104.724 4.62977 104.809 4.55765C104.53 4.24203 104.847 4.43728 104.451 4.33099C104.426 4.22947 104.402 4.13272 104.376 4.03372C104.799 4.09101 104.741 4.17067 105.052 4.33928C105.039 4.28802 105.027 4.23877 105.015 4.18901C105.075 3.97718 104.99 4.04703 104.866 3.59572C104.596 3.71533 104.328 3.83243 104.058 3.95431C104.022 3.80429 103.986 3.65854 103.947 3.50902C103.493 3.72136 103.11 3.87339 102.696 4.0312C103.25 4.34783 103.749 4.77225 104.152 5.29192ZM110.099 17.3234C110.204 17.0125 110.121 16.6466 109.877 16.428C109.952 16.7261 110.025 17.0241 110.099 17.3234ZM105.444 4.71698C105.387 4.67727 105.326 4.64008 105.266 4.60013C105.247 4.84991 105.228 4.87378 105.274 5.23086C105.414 5.19493 105.555 5.16126 105.696 5.12633C105.564 4.8376 105.591 4.84815 105.444 4.71698ZM105.888 6.49906C105.646 6.05277 105.907 6.25079 105.494 6.12439C105.649 6.35784 105.558 6.26285 105.708 6.38548C105.722 6.43473 105.733 6.486 105.747 6.53475C105.793 6.52293 105.84 6.51062 105.888 6.49906ZM104.369 3.40222C104.418 3.39015 104.463 3.3791 104.51 3.36704C104.356 3.13283 104.448 3.22933 104.296 3.10444C104.323 3.20671 104.345 3.30421 104.369 3.40222ZM116.768 56.0778C117.059 56.162 117.031 56.0507 117.472 55.9037C117.459 55.8522 117.448 55.8024 117.434 55.7526C117.17 55.7232 116.956 55.7237 116.554 55.8132C116.71 56.0487 116.617 55.9517 116.768 56.0778ZM117.827 56.1291C117.816 56.0791 117.803 56.0303 117.79 55.9818C117.697 56.0027 117.601 56.0263 117.508 56.0507C117.684 56.1329 117.558 56.0977 117.827 56.1291ZM116.076 55.0988C115.977 55.2473 115.87 55.391 115.752 55.5295C115.806 55.57 115.865 55.6064 115.916 55.6564C115.986 55.5184 116.019 55.28 116.086 55.14C116.084 55.1277 116.079 55.1114 116.076 55.0988ZM106.343 5.61129C106.185 6.20584 106.113 6.42245 105.998 6.94714C105.905 7.37433 106.318 7.45072 106.223 7.84047C106.233 7.88822 106.247 7.93772 106.257 7.98974C105.811 7.85178 105.822 7.52887 105.789 7.31603C105.491 6.9974 105.781 7.13008 105.294 7.12279C105.342 7.32131 105.392 7.51857 105.441 7.7186C105.395 7.73091 105.349 7.74197 105.301 7.75327C105.251 7.63944 105.201 7.52887 105.146 7.41579L116.741 50.9611C117.131 52.4246 116.855 53.9027 116.104 55.0523C116.253 55.2079 116.144 55.2584 116.302 55.4047C116.313 55.4521 116.326 55.5032 116.339 55.5517C116.406 55.4278 116.478 55.3092 116.546 55.1858C117.097 55.1579 117.097 55.2775 117.501 55.4195C117.526 55.5197 117.55 55.6182 117.576 55.7168C117.622 55.7057 117.669 55.6924 117.716 55.6821C117.493 55.1018 117.449 54.9956 116.931 54.929C116.883 54.7322 116.832 54.5357 116.786 54.3347C117.323 54.1686 117.076 54.2653 117.665 54.2706C117.734 53.4969 117.678 52.7216 117.429 52.1191C117.487 52.1583 117.547 52.1957 117.608 52.2321C117.889 52.3839 117.973 52.6623 118.214 52.8717C118.273 52.9099 118.334 52.9458 118.392 52.9862C118.379 52.9377 118.368 52.888 118.354 52.8375C118.401 52.8257 118.449 52.8124 118.497 52.8003C118.753 52.6488 118.177 52.7219 118.177 52.7219C118.154 52.6262 118.128 52.5246 118.104 52.4229C118.352 52.4166 117.971 52.5764 118.219 52.5674C118.134 52.9933 118.778 52.7578 118.392 52.9862C118.417 53.0848 118.443 53.186 118.465 53.2853C118.618 53.4077 118.529 53.3051 118.681 53.5456C118.986 53.2795 118.233 53.3906 118.581 53.4245C118.931 53.2054 118.565 53.3705 118.79 53.0589C118.777 53.0079 118.765 52.9591 118.752 52.9101C118.798 52.8973 118.846 52.8845 118.893 52.8737C118.943 53.0707 118.992 53.2712 119.041 53.4677C118.77 53.5891 119.128 53.5406 118.861 53.6587C119.091 54.359 119.667 55.6198 119.627 56.1535C119.563 56.6925 119.357 57.139 119.255 57.669C119.1 57.7937 118.875 57.9527 118.767 58.1063C118.295 58.112 118.256 58.0613 117.952 57.8371C117.419 58.0851 117.229 58.4259 117.011 58.8591C117.052 58.9483 117.203 59.03 117.368 59.2185L118.291 58.9707C118.981 58.0407 119.412 56.8445 119.816 56.5938C119.95 56.4307 119.572 56.535 119.894 56.4251C119.874 56.0879 119.933 55.7979 120 55.5097L110.342 17.4359C110.331 17.5917 110.364 17.7578 110.424 18.0302C110.377 18.0435 110.33 18.0551 110.284 18.0657C109.774 16.9934 109.597 16.1968 109.262 15.158C108.557 15.1871 108.674 14.9736 108.231 14.6255C108.207 14.528 108.184 14.4285 108.16 14.3308C108.511 14.4438 108.67 14.5562 109.115 14.5637C109.174 13.9279 107.561 7.48339 107.352 7.25572C107.403 6.9288 107.311 7.13762 107.574 7.04087L107.502 6.77224C107.364 6.37445 107.225 5.97943 107.085 5.58013C106.608 5.62084 106.719 5.63968 106.343 5.61129ZM105.753 3.22854C105.733 3.47555 105.714 3.5032 105.76 3.85877C105.854 3.83515 105.948 3.81002 106.041 3.78891C105.924 3.45168 105.911 3.37378 105.753 3.22854ZM119.271 55.9261C119.296 56.0261 119.321 56.1236 119.344 56.2254C119.561 56.0214 119.491 56.1347 119.271 55.9261ZM117.777 54.7199C117.801 54.8186 117.826 54.9174 117.852 55.0154C118.063 54.8146 117.994 54.9259 117.777 54.7199ZM103.171 3.38716C103.144 3.2879 103.122 3.18688 103.097 3.08938C103.003 3.11225 102.91 3.13788 102.817 3.15999C102.941 3.55677 102.758 3.37183 103.171 3.38716Z" fill="#C6CBD3"/>
</svg>
