<svg width="72" height="52" viewBox="0 0 72 52" fill="none" xmlns="http://www.w3.org/2000/svg">
<path d="M16.4054 29.0585C13.8689 29.7382 11.4629 28.243 10.7799 25.6939C10.1137 23.2076 11.4203 20.6503 14.007 19.9572C15.6018 19.5298 16.6891 19.871 17.7902 20.4643L17.3257 21.3424C16.3964 20.8378 15.433 20.5575 14.2401 20.8772C12.2938 21.3987 11.2611 23.3712 11.8095 25.418C12.3546 27.4522 14.2511 28.6533 16.1849 28.1351C17.3904 27.8121 18.0569 27.1356 18.6829 26.1065L19.521 26.6222C18.8533 27.797 18.0001 28.6312 16.4054 29.0585Z" fill="#B6BAC6"/>
<path d="M24.3353 26.9337C22.389 27.4552 20.5596 26.3035 20.0616 24.445C19.5704 22.6117 20.5847 20.6711 22.5435 20.1462C24.4899 19.6247 26.3319 20.7731 26.8298 22.6315C27.3211 24.4648 26.2942 26.4088 24.3353 26.9337ZM24.1283 26.0606C25.5347 25.6837 26.2113 24.2911 25.8378 22.8973C25.4644 21.5035 24.1159 20.64 22.7472 21.0068C21.3408 21.3836 20.6801 22.7854 21.0536 24.1792C21.4271 25.5731 22.7596 26.4273 24.1283 26.0606Z" fill="#B6BAC6"/>
<path d="M29.4494 25.4019L27.7099 18.9099L28.6768 18.6508L28.9695 19.7433C29.2249 18.9885 29.6444 18.2435 30.7368 17.9508C31.7916 17.6682 32.6211 18.0516 33.1678 18.6856C33.4407 17.8454 33.9765 17.0827 35.1067 16.7799C36.601 16.3795 37.7868 17.1385 38.2175 18.7458L39.2942 22.764L38.3273 23.0231L37.3111 19.2309C36.9747 17.9752 36.1584 17.4402 35.1036 17.7228C34.1242 17.9853 33.5031 18.9323 33.8463 20.2131L34.849 23.9551L33.8946 24.2108L32.8718 20.3935C32.5454 19.1754 31.7132 18.6313 30.6835 18.9072C29.6539 19.1831 29.1041 20.2456 29.4238 21.4385L30.4163 25.1428L29.4494 25.4019Z" fill="#B6BAC6"/>
<path d="M39.2987 14.2839L39.0127 13.2165L40.1177 12.9204L40.4037 13.9878L39.2987 14.2839ZM41.4812 22.178L39.7417 15.686L40.7086 15.4269L42.4481 21.9189L41.4812 22.178Z" fill="#B6BAC6"/>
<path d="M44.692 21.3177L42.9525 14.8257L43.9194 14.5666L44.2222 15.6967C44.4607 14.8791 44.9874 14.1324 46.105 13.8329C47.6746 13.4123 48.8739 14.2215 49.2877 15.766L50.3678 19.7968L49.4009 20.0559L48.3848 16.2637C48.0618 15.0582 47.2069 14.4798 46.0642 14.7859C44.9467 15.0854 44.3366 16.1237 44.663 17.3417L45.6589 21.0586L44.692 21.3177Z" fill="#B6BAC6"/>
<path d="M55.8504 20.5081C54.7705 20.7974 53.6852 20.7652 52.6573 20.3946L52.8949 19.5235C53.7804 19.8649 54.6866 19.9316 55.6158 19.6827C57.0473 19.2991 57.7646 18.259 57.3574 16.7396L57.1522 15.9736C56.789 16.8785 56.1628 17.7057 54.9699 18.0254C53.4128 18.4426 51.6056 17.6752 51.0975 15.7791C50.5895 13.883 51.7834 12.3114 53.3279 11.8975C54.5459 11.5712 55.4985 11.9619 56.2144 12.5238L55.9014 11.356L56.8683 11.0969L58.305 16.4588C58.5742 17.4634 58.4781 18.3101 58.092 18.9788C57.6691 19.7112 56.8801 20.2322 55.8504 20.5081ZM54.9294 17.121C56.16 16.7913 57.0764 15.5902 56.7197 14.2591C56.3631 12.9281 54.9756 12.3712 53.7451 12.701C52.5145 13.0307 51.7261 14.1571 52.0895 15.5133C52.4394 16.8192 53.7239 17.444 54.9294 17.121Z" fill="#B6BAC6"/>
<path d="M26.7895 38.6725C25.3957 39.046 24.1285 38.8876 22.8214 38.2284L23.2415 37.3352C24.3802 37.9184 25.3703 38.0972 26.5883 37.7709C27.7687 37.4546 28.379 36.6181 28.1401 35.7266C27.9214 34.9104 27.3574 34.5635 25.4072 34.6689C23.2678 34.7711 22.1636 34.3671 21.7699 32.8979C21.3998 31.5166 22.3453 30.1732 24.0154 29.7257C25.2962 29.3825 26.3104 29.501 27.3938 29.9779L27.0214 30.8986C26.0269 30.4518 25.1333 30.3817 24.2292 30.6239C23.0865 30.9301 22.5264 31.7531 22.7451 32.5693C22.9672 33.3981 23.5437 33.7416 25.5885 33.6378C27.6618 33.5399 28.7577 34.0134 29.1245 35.3821C29.5282 36.8889 28.5349 38.2048 26.7895 38.6725Z" fill="#B6BAC6"/>
<path d="M34.6149 36.6026C32.6685 37.1242 30.8391 35.9724 30.3411 34.114C29.8499 32.2806 30.8642 30.34 32.8231 29.8151C34.7694 29.2936 36.6114 30.442 37.1094 32.3004C37.6006 34.1337 36.5738 36.0778 34.6149 36.6026ZM34.4078 35.7295C35.8142 35.3526 36.4908 33.9601 36.1174 32.5662C35.7439 31.1724 34.3955 30.309 33.0268 30.6757C31.6204 31.0526 30.9597 32.4543 31.3331 33.8482C31.7066 35.242 33.0391 36.0962 34.4078 35.7295Z" fill="#B6BAC6"/>
<path d="M42.7328 34.4274C40.7865 34.949 38.957 33.7972 38.4591 31.9388C37.9678 30.1054 38.9821 28.1648 40.941 27.6399C42.8873 27.1184 44.7293 28.2668 45.2273 30.1252C45.7185 31.9586 44.6917 33.9026 42.7328 34.4274ZM42.5257 33.5543C43.9321 33.1774 44.6088 31.7849 44.2353 30.391C43.8618 28.9972 42.5134 28.1338 41.1447 28.5005C39.7383 28.8774 39.0776 30.2791 39.4511 31.673C39.8245 33.0668 41.157 33.921 42.5257 33.5543Z" fill="#B6BAC6"/>
<path d="M47.8469 32.8956L46.1074 26.4036L47.0743 26.1446L47.3771 27.2747C47.6156 26.4571 48.1423 25.7103 49.2598 25.4109C50.8295 24.9903 52.0288 25.7995 52.4426 27.344L53.5227 31.3748L52.5558 31.6339L51.5397 27.8417C51.2166 26.6362 50.3618 26.0577 49.2191 26.3639C48.1015 26.6634 47.4915 27.7016 47.8178 28.9197L48.8138 32.6365L47.8469 32.8956Z" fill="#B6BAC6"/>
<path fill-rule="evenodd" clip-rule="evenodd" d="M63.3064 3.06463C63.4105 3.11504 63.3349 3.09035 63.4943 3.11013C63.563 3.01839 63.5075 3.07341 63.6403 2.98152C63.4948 2.69873 63.5419 2.76609 63.3025 2.69175C63.2335 2.94138 63.3498 2.79002 63.0958 2.92933C63.2592 3.11593 63.072 3.00204 63.3064 3.06463ZM47.662 39.8984C47.6778 39.9576 47.6923 40.0163 47.7065 40.0764C47.7885 40.0548 47.8726 40.0341 47.956 40.0129C47.9272 39.8945 47.8968 39.7778 47.869 39.6596C47.8414 39.6673 47.8121 39.674 47.7864 39.681C47.7281 39.9228 47.8409 39.7356 47.662 39.8984ZM65.9121 35.6832C65.7409 35.7453 65.9362 35.8186 66.0389 35.8366C66.0905 35.6876 65.9485 35.7019 65.9121 35.6832ZM43.0456 41.6122C43.5797 41.4985 44.8154 41.2747 44.94 41.0469C45.1393 41.0273 45.157 41.0364 45.2947 41.0507C45.2337 41.1592 45.1722 41.2691 45.11 41.3783C45.0258 41.3966 44.9432 41.4191 44.8615 41.4393C44.8822 41.5276 44.9042 41.6176 44.9262 41.7038C45.2628 41.7097 45.7858 41.7774 46.0958 41.7847C46.5601 41.6376 47.0258 41.4922 47.4911 41.3441C48.7546 41.3383 50.2749 40.9751 51.323 40.3893C51.4535 40.315 51.6008 40.5688 51.7828 40.4613C51.8647 40.315 51.9468 40.1706 52.0287 40.0252C52.1744 39.9308 52.4396 39.9381 52.5296 39.9014C52.8116 39.7824 64.5063 36.896 64.799 36.894C64.9569 36.8954 65.1955 36.8586 65.4633 36.8044L67.1175 36.3583C67.2647 36.3069 67.3641 36.269 67.382 36.251C67.6788 36.179 67.939 36.091 68.1086 35.9756C68.1299 35.9398 68.1491 35.9034 68.1702 35.8689C67.3114 35.5094 66.0467 36.4633 65.1054 36.3521C64.7533 36.4199 64.7094 36.3844 64.4788 36.32C64.4636 36.262 64.45 36.2033 64.4348 36.1454C64.6515 36.1732 64.5804 36.1441 64.7285 36.2589C65.0497 36.1258 65.1255 35.9599 65.1409 35.7819C65.2967 35.5309 65.2133 35.7212 65.1355 35.408C65.3863 35.196 65.6485 35.1432 65.8211 34.9585C65.951 34.8652 65.8988 34.9203 65.9653 34.8277C65.943 34.8057 65.9318 34.781 65.9216 34.7522L52.2466 38.4391C52.2214 38.6533 52.2098 38.8694 52.2483 39.1288C52.1184 39.2209 52.1713 39.1663 52.1038 39.26C52.0485 39.2727 51.9928 39.286 51.9368 39.3005C51.8879 38.9726 51.8904 38.7305 51.8573 38.5441L51.0484 38.7626C51.0735 39.0985 51.0262 39.1874 51.0209 39.5277C50.4501 39.636 50.3236 39.6691 49.7721 39.841C49.7939 39.9275 49.8154 40.0166 49.8375 40.1039C49.6268 40.0781 49.2177 40.1138 49.1487 40.183C49.0931 40.1972 49.0373 40.2111 48.9817 40.224C49.0002 40.1013 49.0168 39.9336 49.0618 39.8304C48.956 39.7632 48.8508 39.6962 48.7461 39.6291C48.6898 39.6421 48.6348 39.6566 48.5788 39.6712C48.6678 39.8603 48.6753 39.7502 48.6447 39.9347C48.6669 40.0222 48.6876 40.1098 48.7103 40.1986C48.7548 40.0915 48.7354 40.1693 48.7496 40.0013C48.7775 39.9934 48.805 39.9874 48.8321 39.9816C48.8164 40.1473 48.8374 40.0709 48.7928 40.1778C48.8012 40.2075 48.8086 40.2356 48.8161 40.267C48.577 40.1873 48.6735 40.2607 48.5611 39.9547C48.3554 40.1806 48.5389 40.1797 48.482 40.3492C48.2969 40.5282 48.1199 40.4674 47.8768 40.4058C47.8553 40.5535 47.7671 40.3257 47.5831 40.2921C47.2805 40.2806 47.5138 40.5279 47.2103 40.5729C46.7807 40.6394 45.9173 40.4573 45.6241 40.5945C45.5258 40.6406 45.5067 40.8969 45.2504 40.8749C45.1431 40.8664 44.7737 40.5624 44.6424 40.5603C44.1882 40.5536 44.0307 41.0282 43.4522 40.8105L43.0712 40.914C43.0409 40.9316 43.011 40.9519 42.9759 40.976C42.9994 41.1882 43.023 41.3997 43.0456 41.6122ZM65.3954 36.0928C65.683 35.8436 65.409 35.9263 65.7675 35.8119C65.728 35.58 65.7303 35.5048 65.7424 35.3504C65.6883 35.3656 65.6305 35.3785 65.5759 35.3931C65.5213 35.5769 65.4565 35.8261 65.3733 36.0057C65.3808 36.033 65.3876 36.0631 65.3954 36.0928ZM38.5226 7.87663C38.359 7.68989 38.5465 7.80304 38.3122 7.74133C38.2533 7.83946 38.1973 7.89715 38.1057 7.97877C38.1201 8.03884 38.1342 8.09564 38.1489 8.15615C38.3227 8.05445 38.3528 8.03468 38.439 7.89596C38.4678 7.89046 38.4951 7.88377 38.5226 7.87663ZM47.0177 40.1541C46.9277 40.0141 46.9797 40.072 46.8907 39.9989C46.9057 40.0576 46.9194 40.1155 46.9343 40.1739C46.9628 40.1668 46.9911 40.1605 47.0177 40.1541ZM66.3508 35.667C66.3569 35.5723 66.3631 35.4764 66.3691 35.3812C66.2988 35.3387 66.2289 35.2917 66.1581 35.2487C66.0475 35.2754 65.9373 35.3024 65.8259 35.331C65.9164 35.4697 65.8635 35.4124 65.9522 35.4857C66.0828 35.6566 66.1149 35.569 66.3508 35.667ZM38.1837 7.58611C38.3177 7.51623 39.7857 7.14914 39.9348 7.14929C40.152 7.1487 40.7758 7.25738 41 7.16371C41.0851 7.13011 41.2871 6.83171 41.3502 6.79544C41.6912 6.60156 42.9917 6.42196 43.2049 6.42686C44.0515 6.44946 56.1624 2.49371 56.5094 2.60284C56.7896 2.66617 56.6427 2.7536 56.8476 2.89202C56.8636 2.72297 57.8866 2.78155 58.4657 2.85871L59.1798 2.66617C59.7359 2.5163 60.2997 2.5505 60.8092 2.73293C61.0261 2.52076 61.173 2.59154 61.3105 2.34027C61.338 2.33209 61.3664 2.32659 61.3934 2.31945C61.2672 2.26861 61.1688 2.28764 60.9552 2.33298C60.9219 2.01124 60.8981 2.01436 60.781 1.63077C60.9196 1.59628 61.0574 1.5603 61.1966 1.52566C61.1436 1.27394 61.1362 1.14191 61.1504 0.97703C61.2591 0.949078 61.3717 0.92187 61.4807 0.893918C61.4253 1.13686 61.5363 0.946699 61.3588 1.11144C61.6226 1.2173 61.7377 1.12957 61.7746 1.00796C61.8687 1.09449 61.8789 1.13909 61.946 1.33966C62.162 1.25253 62.102 1.24673 62.3237 1.43273C62.3795 1.41786 62.4348 1.40359 62.49 1.3917C62.2225 1.10356 62.1561 1.14519 62.2533 0.794006C62.0545 0.759958 62.1133 0.747767 61.96 0.681159C61.9527 0.651571 61.9453 0.624066 61.9389 0.594627C61.8981 0.703906 61.906 0.68889 61.921 0.878158C61.8927 0.886038 61.8649 0.891837 61.8368 0.899419C61.7817 0.616483 61.6623 0.812145 61.8551 0.613658C61.8349 0.588085 61.8234 0.57515 61.8089 0.55835L43.9191 5.38209C43.9209 5.38997 43.9234 5.39741 43.9255 5.40529C43.9162 5.39711 43.9117 5.3925 43.9047 5.38596L40.1607 6.39519C39.1673 6.75752 38.0705 7.04819 37.5882 7.08848L35.5832 7.62953C35.3684 7.79872 35.2081 8.06412 35.0371 8.09177C34.8617 8.27197 34.9343 8.09445 34.9359 8.39656C35.3425 8.38452 35.4533 8.6395 35.7936 8.64887C36.1547 8.65854 37.8166 7.77984 38.1837 7.58611ZM63.2888 3.34846C63.2329 3.36303 63.1778 3.3776 63.1235 3.39098C63.1375 3.44971 63.1512 3.50814 63.1654 3.56672C63.2223 3.5526 63.2764 3.53758 63.3331 3.52435C63.3192 3.46636 63.3034 3.40719 63.2888 3.34846ZM62.3192 1.05925C62.446 0.941793 62.4048 1.00558 62.2759 0.883659C62.2897 0.942685 62.305 0.999034 62.3192 1.05925ZM67.2242 35.2624C67.2799 35.2477 67.3352 35.2348 67.391 35.2205C67.2469 34.9557 67.4019 35.0724 67.158 34.9978C67.1807 35.0864 67.2026 35.1743 67.2242 35.2624ZM66.8201 34.7092C66.7453 34.6023 66.7301 34.5599 66.7059 34.5409L66.4981 34.5971C66.4958 34.6414 66.4975 34.6267 66.4658 34.7035C66.5773 34.8912 66.6007 34.8785 66.7193 35.0137C66.7757 35.0006 66.8315 34.9854 66.8867 34.9721C66.835 34.7181 66.9135 34.8302 66.8201 34.7092ZM67.3439 34.3686L66.9669 34.4703C67.0163 34.588 67.065 34.7046 67.1134 34.8214C67.1349 34.7855 67.1552 34.7495 67.1759 34.7135C67.2512 34.6634 67.328 34.613 67.4034 34.5636C67.3808 34.4844 67.3626 34.4225 67.3439 34.3686ZM66.5964 35.2316C66.6314 35.2539 66.666 35.2766 66.7022 35.2984C66.6948 35.27 66.6871 35.2406 66.68 35.2102C66.7351 35.1963 66.7908 35.1821 66.8461 35.1695C66.7481 35.1185 66.5859 35.0972 66.4698 35.0761C66.5615 35.2156 66.5076 35.1575 66.5964 35.2316ZM67.5528 34.8063C67.4983 34.82 67.4424 34.8341 67.3863 34.8461C67.4888 34.8958 67.4146 34.8765 67.5748 34.8953C67.5684 34.8643 67.5611 34.8363 67.5528 34.8063ZM49.9114 39.338C50.0583 39.3331 50.2039 39.3267 50.3501 39.322C50.3044 39.0924 50.2648 39.0349 50.304 38.9635L49.7865 39.1024C49.8245 39.1934 49.8581 39.254 49.9114 39.338ZM18.3173 47.7797C18.3447 47.7733 18.3724 47.7653 18.4005 47.759C18.3083 47.6197 18.3632 47.6764 18.2735 47.6034C18.2886 47.6624 18.3037 47.7202 18.3173 47.7797ZM18.8538 47.443L18.5241 47.5323C18.5244 47.5356 18.524 47.5377 18.5238 47.5395C18.6346 47.513 18.746 47.487 18.8567 47.4574C18.8552 47.4523 18.8541 47.4473 18.8538 47.443ZM18.1503 47.8219C18.1711 47.7837 18.1918 47.7486 18.2115 47.7119C18.1564 47.7257 18.101 47.7394 18.0455 47.7531C17.9898 47.8667 18.0962 47.8474 18.1503 47.8219ZM25.6683 10.8777C25.5439 10.6876 25.601 10.7402 25.4358 10.6553C25.3373 10.6178 24.5099 10.6083 24.331 10.8368C23.6906 10.9659 23.6458 11.1403 23.756 11.7285C24.1838 11.636 24.4973 11.5514 24.9044 11.7219C25.6061 11.5297 25.3728 11.2754 25.6683 10.8777ZM2.69389 26.6774C2.64587 27.0915 2.70674 27.7397 3.04377 28.0846C3.05071 28.1141 3.05825 28.144 3.06549 28.1727C3.12193 28.1594 3.176 28.1452 3.23245 28.1316C3.16921 27.8163 3.01865 27.3728 3.13626 27.0336C2.97861 27.0131 3.05086 27.0368 2.94787 26.9867C2.71708 26.9087 3.13271 26.5063 3.14985 26.3763C3.08588 26.2372 3.02205 26.0956 2.95777 25.956C3.04037 25.9359 3.1237 25.915 3.20674 25.8949C3.18487 25.8048 3.16345 25.7184 3.14187 25.6289C3.46678 25.7269 3.97313 26.6292 3.95171 27.1105C3.95171 27.1105 4.22017 27.1599 4.40442 27.2128L2.73481 20.9437C2.3152 19.3676 1.60199 18.0861 4.70392 17.3543L13.8449 14.8891C13.8958 14.8411 13.9383 14.793 13.9686 14.7474C13.9903 14.7096 14.0103 14.6741 14.0302 14.6378C14.0032 14.6441 13.976 14.6518 13.9479 14.6591C13.9258 14.5703 13.9029 14.4823 13.882 14.3952C13.9104 14.3873 13.9374 14.3813 13.9651 14.3736C14.0447 14.4954 14.0604 14.5049 14.1351 14.7062C14.3071 14.7004 14.4837 14.6852 14.6595 14.6699L19.9451 13.245C19.9544 13.2419 19.9635 13.2377 19.9717 13.2337C20.0095 13.2199 20.0511 13.2126 20.0909 13.2059L20.9066 12.9858C21.1247 12.7811 21.3166 12.484 21.5278 12.3771C21.7893 12.2482 22.3684 12.3285 22.7391 12.2633C22.7166 12.1741 22.6952 12.0874 22.6723 11.9988C23.143 11.9586 23.1921 11.8114 23.5061 11.7914C23.5269 11.7545 23.5468 11.7195 23.5675 11.6809C23.5462 11.5938 23.5236 11.5054 23.5027 11.4173C23.077 11.4255 22.5637 11.2017 22.0213 11.5084C21.7994 11.632 21.0684 12.1036 20.8363 12.084C20.1215 12.0227 19.0671 12.1614 17.818 12.4195L16.3263 12.8214C14.425 13.3745 12.6233 13.8871 11.1943 14.2058L1.266 16.8826C-0.0169334 17.0913 0.685483 18.6587 0.74621 19.4233C1.266 21.1046 1.94655 25.7923 2.69389 26.6774ZM24.6535 45.8796L24.077 46.0348C24.0944 46.1019 24.1104 46.1689 24.1266 46.2352C24.4697 46.1321 24.4933 46.0793 24.6666 45.9144C24.6618 45.9007 24.659 45.8922 24.6535 45.8796ZM22.2937 46.6938C22.3119 46.6388 22.2936 46.5858 22.2801 46.5189L20.6073 46.9706C20.6593 47.0528 20.6327 47.0223 20.7118 47.0878C21.02 47.2131 22.0322 47.1346 22.2937 46.6938ZM17.756 48.0128C17.7341 47.9269 17.7128 47.8423 17.6921 47.7561L17.2323 47.8805C17.2592 47.9223 17.286 47.9674 17.3182 48.0283C17.4634 48.0234 17.61 48.0186 17.756 48.0128ZM32.2492 8.97448C32.269 8.93552 32.2894 8.90192 32.3095 8.8649C31.92 8.77956 31.4829 8.84617 31.1614 8.87144C31.1051 9.09491 30.8718 9.25563 30.6656 9.36803C30.6805 9.42869 30.6951 9.48593 30.7097 9.5457C31.1446 9.47776 31.327 9.57499 31.6914 9.58139C31.829 9.34855 32.1076 9.20255 32.2492 8.97448ZM33.7554 9.34558C33.7162 9.42274 33.6747 9.49158 33.6279 9.55552L34.6448 9.28135C34.5265 9.20761 34.3953 9.14992 34.2336 9.13178C34.1379 9.24597 33.9828 9.28938 33.7554 9.34558ZM30.7309 10.3652C30.8433 10.3169 30.9591 10.2751 31.0791 10.2426L31.5677 10.111C31.562 10.1016 31.558 10.094 31.5503 10.0829C31.3495 10.1022 31.1471 10.1206 30.9457 10.1407C30.8856 10.2173 30.8081 10.2918 30.7309 10.3652ZM34.4352 8.52041C34.4139 8.43329 34.3923 8.34601 34.3697 8.2577C33.9112 8.26349 33.2721 8.31821 33.0992 8.48131C32.7022 8.58003 32.5847 8.66255 32.3926 8.84498C32.8394 9.25504 33.6836 8.75874 34.4352 8.52041ZM13.0945 49.4055C13.0806 49.3474 13.0664 49.2888 13.0514 49.2305C12.9958 49.2439 12.9402 49.258 12.8844 49.2705C12.9587 49.5072 12.8519 49.3982 13.0945 49.4055ZM30.4773 9.32283C30.2359 9.37205 30.3407 9.28893 30.227 9.38498C30.1721 9.39821 30.1159 9.41249 30.0613 9.42691C30.0904 9.54362 30.1183 9.66004 30.1489 9.77853C30.3602 9.70717 30.4221 9.66926 30.5423 9.58659C30.5222 9.49917 30.4995 9.41145 30.4773 9.32283ZM11.5602 50.3496C11.6875 50.2311 11.6458 50.2964 11.5158 50.1736C11.5311 50.2323 11.5456 50.2909 11.5602 50.3496ZM29.9052 45.2465C29.6456 45.1566 29.8248 45.2825 29.7563 45.0028C28.2536 45.292 24.6046 46.9154 23.0084 47.0771C22.3419 47.1429 21.7491 47.6645 21.3642 47.5797C21.1905 47.7619 21.2413 47.6507 21.285 47.9731C21.1917 47.8874 21.1815 47.8437 21.1142 47.6431C20.573 47.7058 20.3583 47.3209 20.2417 47.0689L19.3574 47.3077C19.4801 47.3982 19.5975 47.3664 19.8781 47.2958C19.8009 47.6414 19.2808 48.0013 18.9881 47.9865C18.9678 48.0218 18.9468 48.058 18.9269 48.0952C19.0513 48.3838 19.0915 48.3431 19.2245 48.5809C19.1962 48.589 19.1679 48.5946 19.1403 48.6019C18.9924 48.3786 18.9644 48.4515 18.8425 48.1153C18.3897 48.323 17.8078 48.5173 17.7644 48.7582C17.5646 48.724 17.6249 48.713 17.4711 48.6447C17.2336 48.4787 17.4483 48.9094 17.1587 48.8163C16.9621 48.7531 17.1615 48.6617 16.7827 48.724C16.855 48.4677 16.9831 48.4742 17.3214 48.4021C17.3143 48.3727 17.3077 48.3437 17.2998 48.3144C17.06 48.3202 16.8459 48.3321 16.5286 48.4129C16.5397 48.6015 16.55 48.5893 16.511 48.6971C16.5479 48.8441 16.5834 48.9906 16.6196 49.1373C16.2908 49.0265 16.4444 48.822 16.0101 48.8218C16.0144 48.6134 16.0144 48.5749 16.09 48.4281C16.0832 48.3996 16.0753 48.3703 16.0676 48.3408C15.842 48.3999 15.6871 48.4396 15.589 48.5528C15.4191 48.7058 13.3897 49.4445 13.4543 49.7832C13.1446 49.7122 13.3079 49.7164 12.9333 49.8203C12.8541 49.6972 12.8376 49.6879 12.7621 49.4888C12.5033 49.9107 12.3816 49.925 11.8501 50.0894C11.9196 50.1355 11.9902 50.1803 12.0611 50.2258C12.0388 50.4507 12.0657 50.3794 11.9593 50.5301C12.1218 50.7163 11.9364 50.6024 12.1693 50.6654C12.1833 50.7234 12.1979 50.7826 12.2118 50.841C11.9822 50.7752 12.1653 50.8974 12.0026 50.7051C11.7854 50.8435 11.6761 50.9658 11.5905 51.184C11.1846 51.2343 10.8108 51.0771 10.648 50.9513C10.5641 50.9725 10.4819 50.9931 10.3985 51.0138C10.5882 51.2997 10.8739 51.3993 11.175 51.4417L13.654 50.7734C13.7078 50.7216 15.8898 50.0985 15.9611 50.0511C15.7839 49.8633 13.7706 50.4921 13.4624 50.5298C13.4478 50.4713 13.4327 50.4128 13.4194 50.3528C13.4928 50.2294 15.6638 49.5133 15.7031 49.3673C15.9117 49.3553 16.2508 49.3017 16.3078 49.3086C16.3915 49.2887 16.4748 49.2674 16.558 49.2472C16.4715 49.5153 16.5828 49.3697 16.3303 49.3969C16.4613 49.5909 16.4559 49.5141 16.5844 49.707C16.8889 49.5978 16.8777 49.5628 17.0411 49.4078C16.9151 49.2174 16.9732 49.2689 16.8077 49.1838C16.929 49.0127 17.0693 48.9457 17.3473 48.8614C17.3823 49.1556 17.3276 49.3017 17.5 49.4787C17.3279 49.6688 17.1683 49.6537 16.9189 49.893L21.9397 48.5396C22.3555 48.1623 22.8039 48.0109 23.6653 47.9401C24.1867 47.8985 24.9833 47.4382 25.8494 47.1163C26.5659 46.8478 27.8924 46.6997 28.8523 46.3514C28.9401 46.3189 29.0989 46.4635 29.1461 46.4642C29.1486 46.4633 31.3121 45.9233 31.3121 45.9233C31.8043 45.5788 32.5538 44.9441 32.9708 44.7614C33.4265 44.5635 34.0726 44.7645 34.3903 44.7812C34.9093 44.8091 38.7822 43.5165 39.1826 43.5116C39.9598 43.5013 40.4232 43.2788 41.1596 42.9243C41.7606 42.635 44.0766 42.6671 44.5749 42.0718C44.7553 41.939 44.6827 41.9426 44.8636 41.8116C44.791 41.5875 44.7541 41.5227 44.6719 41.3935C44.1508 41.5116 43.0434 41.6574 42.8397 41.8507C42.811 41.8575 42.7842 41.8651 42.7554 41.8711C42.759 41.6608 42.7591 41.6235 42.836 41.4774C42.7568 41.305 42.772 41.3123 42.6866 41.2346C42.518 41.0504 42.6044 41.3201 42.4757 41.0994C42.2998 41.2135 42.3119 41.2377 42.187 41.3586C42.1943 41.513 42.2042 41.6669 42.2118 41.8204C41.8677 41.8505 41.6003 41.6366 41.3132 41.7646C41.1078 41.8552 40.8949 42.2648 40.6507 42.3027C38.816 42.6014 33.9359 44.0355 32.2591 44.7528C31.6489 45.0143 30.1097 44.6301 29.9052 45.2465ZM11.5551 49.9756C11.549 49.947 11.5406 49.917 11.5338 49.8893C11.4785 49.9021 11.4228 49.9159 11.3667 49.9295C11.4711 49.9794 11.3965 49.9589 11.5551 49.9756ZM17.2688 49.256C17.2133 49.2704 17.1574 49.2832 17.1019 49.2976C17.2602 49.3734 17.2044 49.4216 17.2688 49.256ZM3.14542 26.0024C3.1599 26.0614 3.17497 26.1207 3.18945 26.1787C3.31622 26.0608 3.275 26.1255 3.14542 26.0024ZM7.62514 41.5098C7.65365 41.5029 7.68158 41.4956 7.70891 41.489C7.61864 41.3513 7.67109 41.4064 7.58273 41.3334C7.59618 41.3931 7.61066 41.4513 7.62514 41.5098ZM3.34297 26.7957C3.45408 26.7676 3.56445 26.739 3.67615 26.7119C3.66137 26.653 3.6466 26.5952 3.63212 26.5362C3.48673 26.5412 3.33971 26.5466 3.19344 26.5525C3.24368 26.6326 3.29317 26.7138 3.34297 26.7957ZM7.39834 41.6599C7.22724 41.7246 7.42109 41.7961 7.5254 41.8159C7.57653 41.6651 7.43409 41.6791 7.39834 41.6599ZM68.192 34.1794C68.1651 34.1864 68.1382 34.1922 68.1089 34.1991C68.1312 34.2871 68.1524 34.3756 68.1748 34.4633C68.4173 34.3999 68.6278 34.3455 68.7794 34.4062C68.8642 34.3861 68.9473 34.3651 69.03 34.343C68.9813 34.2627 68.9306 34.1821 68.8811 34.0996C68.5741 34.0581 68.2797 34.1961 68.192 34.1794ZM67.6537 34.4999C67.6917 34.5733 67.6618 34.6018 67.9476 34.6146C67.9613 34.6726 67.9762 34.7302 67.991 34.7899C68.0192 34.784 68.046 34.7768 68.0735 34.7697C67.9788 34.4325 67.9833 34.3931 67.7762 34.2816C67.7351 34.3553 67.6946 34.4276 67.6537 34.4999ZM16.3347 49.7695C16.3275 49.7411 16.3205 49.7115 16.3129 49.6828C16.175 49.6645 16.1579 49.654 15.9566 49.6769C16.1271 49.8009 16.0611 49.7855 16.3347 49.7695ZM7.85932 46.1319C7.88681 46.1258 7.91473 46.1196 7.94207 46.1115C7.91266 45.854 7.97398 45.9072 7.8546 45.7593C7.84204 45.9047 7.83302 45.9214 7.85932 46.1319ZM6.34235 40.6165C6.45937 41.1983 7.63991 45.1311 7.60061 45.4493C7.61524 45.5063 7.63016 45.5659 7.64434 45.624C7.7002 45.6094 7.75545 45.5955 7.81086 45.5819C7.66237 44.8375 6.89568 41.1146 6.34235 40.6165ZM8.86907 48.7775C8.78544 48.5931 8.62099 48.4256 8.57312 48.2921C8.44679 47.9492 8.42743 47.2464 8.1829 47.0802C8.21304 47.487 8.52732 48.0659 8.48919 48.3124C8.48594 48.3263 8.30436 48.5658 8.30421 48.6389C8.31573 49.2289 8.87956 49.6195 8.86449 50.1815C9.21215 50.4137 9.39418 50.6525 9.81114 50.7869C9.81779 50.8141 9.82488 50.8447 9.83301 50.8749C9.86064 50.8676 9.88782 50.8605 9.9159 50.8534C9.70535 50.483 9.40689 50.5105 9.21968 50.1859C8.9295 49.6876 9.03972 49.1479 8.86907 48.7775ZM7.90646 46.6814C7.97117 46.8206 8.03485 46.9599 8.09972 47.1001C8.12764 47.094 8.15468 47.0866 8.1829 47.0802C8.07682 46.7721 8.10533 46.7877 7.90646 46.6814ZM3.00328 28.2812C3.03283 28.3988 3.0615 28.5167 3.09046 28.6339C3.11956 28.6258 3.14719 28.6188 3.17423 28.612C3.19477 28.5757 3.21619 28.5411 3.23732 28.5057C3.09371 28.2397 3.24707 28.3566 3.00328 28.2812ZM3.2419 27.1008C3.26288 27.1884 3.2849 27.2757 3.30647 27.3644C3.36232 27.3499 3.41876 27.3372 3.47373 27.3215C3.3307 27.0582 3.4851 27.175 3.2419 27.1008ZM69.4644 33.9549C69.206 33.9025 68.9758 33.7863 68.7581 33.653C68.737 33.6733 68.714 33.6922 68.6915 33.711C68.8699 33.8637 68.9931 33.9384 69.1129 34.3235C69.3206 34.1354 69.237 34.1469 69.5087 34.1322C69.4934 34.0725 69.4801 34.0146 69.4644 33.9549ZM3.62281 27.5666C3.67393 27.4171 3.53224 27.4303 3.49648 27.4117C3.3242 27.4755 3.51938 27.5472 3.62281 27.5666ZM6.32048 40.5282C6.42243 40.2316 6.12234 39.4204 5.90899 39.2274C6.04625 39.6602 6.18396 40.096 6.32048 40.5282ZM70.3468 32.52C70.3689 32.6072 70.391 32.6956 70.4118 32.7831C70.4323 32.7471 70.4536 32.7102 70.4746 32.6759C70.6039 32.5813 70.5511 32.6382 70.6184 32.5437C70.5273 32.5368 70.4366 32.5276 70.3468 32.52ZM61.7087 2.51943C61.7374 2.51318 61.7641 2.5059 61.7915 2.49995C61.7007 2.36093 61.755 2.41743 61.6662 2.34532C61.6801 2.40152 61.696 2.46293 61.7087 2.51943ZM61.2003 1.89914C61.2078 1.92932 61.2151 1.95801 61.2225 1.9882C61.2774 1.97377 61.3336 1.95995 61.389 1.94553C61.3111 1.7738 61.3269 1.78228 61.2409 1.70333C61.2254 1.86762 61.2454 1.79343 61.2003 1.89914ZM61.9806 2.54634C62.0088 2.53861 62.0373 2.53296 62.0645 2.52582C61.973 2.38829 62.0265 2.4433 61.9364 2.3703C61.9515 2.42888 61.9658 2.48701 61.9806 2.54634ZM62.1236 3.68938C62.2464 3.55854 62.3377 3.43975 62.3656 3.38489C62.4144 3.34177 62.4618 3.29761 62.5121 3.25494C62.347 3.0682 62.5344 3.18372 62.3005 3.12083C62.2853 3.06077 62.2714 3.00353 62.256 2.94495C62.506 2.97885 62.4717 3.02598 62.6558 3.12574C62.6484 3.09541 62.641 3.06627 62.6338 3.03683C62.6693 2.91149 62.6193 2.95283 62.546 2.6858C62.3862 2.75657 62.2276 2.82585 62.0676 2.89796C62.0462 2.8092 62.0249 2.72297 62.0019 2.6345C61.7332 2.76014 61.5066 2.85009 61.2621 2.94346C61.5899 3.1308 61.885 3.38191 62.1236 3.68938ZM65.6419 10.808C65.7043 10.6241 65.6551 10.4076 65.5107 10.2782C65.555 10.4546 65.5979 10.6309 65.6419 10.808ZM62.8876 3.3492C62.8537 3.32571 62.8179 3.30371 62.782 3.28007C62.7712 3.42786 62.7598 3.44198 62.787 3.65325C62.8699 3.63199 62.9531 3.61207 63.0364 3.5914C62.9587 3.42057 62.9745 3.42682 62.8876 3.3492ZM63.1506 4.40364C63.0073 4.13958 63.1616 4.25674 62.9172 4.18196C63.0091 4.32008 62.9552 4.26388 63.044 4.33643C63.0519 4.36557 63.0586 4.39591 63.0669 4.42475C63.0942 4.41776 63.122 4.41048 63.1506 4.40364ZM62.2519 2.57132C62.2808 2.56418 62.3073 2.55764 62.3353 2.5505C62.2443 2.41193 62.2983 2.46902 62.2086 2.39513C62.2245 2.45564 62.2374 2.51333 62.2519 2.57132ZM69.5876 33.7377C69.7598 33.7875 69.7431 33.7217 70.0043 33.6347C69.9965 33.6042 69.9898 33.5748 69.9818 33.5453C69.8257 33.5279 69.699 33.5282 69.4609 33.5812C69.5532 33.7205 69.4984 33.6631 69.5876 33.7377ZM70.2144 33.7681C70.2079 33.7385 70.1999 33.7096 70.1922 33.6809C70.1371 33.6933 70.0805 33.7072 70.0253 33.7217C70.1296 33.7703 70.0553 33.7495 70.2144 33.7681ZM69.1781 33.1585C69.1196 33.2463 69.0563 33.3314 68.9869 33.4133C69.0188 33.4372 69.0537 33.4588 69.0835 33.4884C69.125 33.4068 69.1444 33.2657 69.1846 33.1828C69.1829 33.1756 69.1801 33.1659 69.1781 33.1585ZM63.4195 3.87835C63.3263 4.23013 63.2836 4.35829 63.2154 4.66873C63.1602 4.92149 63.4051 4.96668 63.3483 5.19729C63.3545 5.22553 63.3628 5.25482 63.3686 5.2856C63.1047 5.20398 63.1116 5.01292 63.0917 4.88699C62.9156 4.69847 63.0868 4.77697 62.7988 4.77266C62.8274 4.89011 62.8568 5.00683 62.8857 5.12518C62.859 5.13246 62.8316 5.139 62.8031 5.14569C62.7734 5.07834 62.7437 5.01292 62.7117 4.94602L69.5715 30.7103C69.8026 31.5762 69.6395 32.4508 69.1951 33.131C69.283 33.223 69.2184 33.2529 69.3119 33.3394C69.3183 33.3675 69.3264 33.3977 69.3338 33.4264C69.3738 33.3531 69.4162 33.2829 69.4564 33.2099C69.7822 33.1934 69.7827 33.2642 70.0216 33.3482C70.0359 33.4075 70.0505 33.4658 70.0661 33.5241C70.0928 33.5175 70.121 33.5096 70.1488 33.5036C70.0167 33.1603 69.9907 33.0974 69.6843 33.058C69.656 32.9415 69.6253 32.8253 69.5984 32.7063C69.9159 32.6081 69.7697 32.6653 70.1185 32.6684C70.1591 32.2106 70.126 31.752 69.979 31.3954C70.0132 31.4186 70.0489 31.4408 70.0845 31.4623C70.2509 31.5521 70.3007 31.7169 70.4436 31.8407C70.4784 31.8633 70.5142 31.8846 70.5483 31.9085C70.5411 31.8798 70.5343 31.8504 70.5262 31.8205C70.5536 31.8135 70.5825 31.8056 70.6107 31.7985C70.7621 31.7088 70.4211 31.7521 70.4211 31.7521C70.4077 31.6955 70.3926 31.6354 70.3781 31.5752C70.5247 31.5715 70.2995 31.666 70.4461 31.6607C70.3961 31.9127 70.7772 31.7734 70.5483 31.9085C70.5632 31.9668 70.5788 32.0267 70.5918 32.0855C70.6823 32.1579 70.6294 32.0972 70.7197 32.2395C70.9003 32.082 70.4545 32.1477 70.6602 32.1678C70.8673 32.0382 70.6512 32.1359 70.7841 31.9515C70.7765 31.9213 70.7694 31.8925 70.7614 31.8635C70.7887 31.8559 70.8172 31.8483 70.8453 31.8419C70.8744 31.9585 70.9038 32.0771 70.9323 32.1934C70.7722 32.2652 70.984 32.2365 70.8258 32.3064C70.9619 32.7208 71.3029 33.4667 71.2794 33.7825C71.2417 34.1014 71.1194 34.3656 71.0594 34.6792C70.9677 34.7529 70.8345 34.847 70.7704 34.9379C70.491 34.9413 70.4681 34.9112 70.2883 34.7786C69.9731 34.9254 69.8602 35.127 69.7314 35.3833C69.7559 35.4361 69.8453 35.4844 69.943 35.5959L70.4891 35.4493C70.8969 34.8991 71.1519 34.1913 71.3914 34.043C71.4703 33.9465 71.247 34.0082 71.4375 33.9432C71.4255 33.7437 71.4605 33.5721 71.5 33.4016L65.7855 10.8746C65.779 10.9668 65.7987 11.0651 65.8344 11.2262C65.8065 11.2341 65.7786 11.2409 65.7511 11.2472C65.4494 10.6128 65.3451 10.1415 65.1469 9.52682C64.7294 9.54407 64.799 9.41769 64.5368 9.21177C64.5225 9.15408 64.5086 9.09521 64.4944 9.03737C64.7025 9.10427 64.7966 9.17073 65.0599 9.17519C65.0948 8.79904 64.1404 4.98601 64.0165 4.85131C64.0469 4.65788 63.9922 4.78143 64.148 4.72419L64.1053 4.56525C64.0239 4.32989 63.9416 4.09617 63.8585 3.85992C63.5766 3.884 63.6422 3.89515 63.4195 3.87835ZM63.0704 2.46858C63.0584 2.61473 63.0477 2.63108 63.0748 2.84147C63.1301 2.82749 63.1858 2.81262 63.2411 2.80013C63.1716 2.60061 63.1638 2.55452 63.0704 2.46858ZM71.069 33.6479C71.0838 33.7071 71.0981 33.7648 71.112 33.825C71.2401 33.7043 71.1989 33.7713 71.069 33.6479ZM70.1844 32.9343C70.199 32.9927 70.2138 33.0511 70.2287 33.1091C70.354 32.9903 70.3131 33.0562 70.1844 32.9343ZM61.5426 2.56239C61.5271 2.50367 61.5141 2.4439 61.4994 2.38621C61.4434 2.39974 61.3884 2.41491 61.3333 2.42799C61.4069 2.66275 61.2986 2.55333 61.5426 2.56239Z" fill="#B6BAC6"/>
</svg>
