<svg width="23" height="22" viewBox="0 0 23 22" fill="none" xmlns="http://www.w3.org/2000/svg">
<path d="M11.5 0C9.32441 0 7.19767 0.645139 5.38873 1.85383C3.57979 3.06253 2.16989 4.78049 1.33733 6.79048C0.504766 8.80047 0.28693 11.0122 0.711367 13.146C1.1358 15.2798 2.18345 17.2398 3.72183 18.7782C5.26021 20.3165 7.22022 21.3642 9.35401 21.7886C11.4878 22.2131 13.6995 21.9952 15.7095 21.1627C17.7195 20.3301 19.4375 18.9202 20.6462 17.1113C21.8549 15.3023 22.5 13.1756 22.5 11C22.5 8.08262 21.3411 5.28472 19.2782 3.22182C17.2153 1.15892 14.4174 0 11.5 0V0ZM11.5 17.4167C11.2281 17.4167 10.9622 17.336 10.7361 17.1849C10.51 17.0338 10.3337 16.8191 10.2297 16.5679C10.1256 16.3166 10.0984 16.0401 10.1514 15.7734C10.2045 15.5067 10.3354 15.2617 10.5277 15.0694C10.72 14.8771 10.965 14.7461 11.2318 14.6931C11.4985 14.64 11.7749 14.6673 12.0262 14.7713C12.2774 14.8754 12.4922 15.0516 12.6433 15.2778C12.7944 15.5039 12.875 15.7697 12.875 16.0417C12.875 16.4063 12.7301 16.7561 12.4723 17.0139C12.2144 17.2718 11.8647 17.4167 11.5 17.4167ZM12.9667 11.8433C12.8027 11.9149 12.6632 12.0329 12.5655 12.1827C12.4678 12.3326 12.416 12.5078 12.4167 12.6867C12.4167 12.9298 12.3201 13.1629 12.1482 13.3348C11.9763 13.5068 11.7431 13.6033 11.5 13.6033C11.2569 13.6033 11.0237 13.5068 10.8518 13.3348C10.6799 13.1629 10.5833 12.9298 10.5833 12.6867C10.5833 12.1515 10.7393 11.628 11.0324 11.1802C11.3255 10.7324 11.7429 10.3799 12.2333 10.1658C12.536 10.0337 12.7974 9.82231 12.9899 9.55392C13.1823 9.28553 13.2987 8.97014 13.3267 8.64107C13.3547 8.312 13.2933 7.98148 13.149 7.68442C13.0047 7.38736 12.7828 7.1348 12.5068 6.95343C12.2308 6.77206 11.9109 6.66861 11.581 6.65402C11.2511 6.63942 10.9233 6.71422 10.6324 6.87051C10.3414 7.0268 10.0981 7.25878 9.92815 7.54194C9.75816 7.82509 9.66782 8.14891 9.66667 8.47917C9.66667 8.72228 9.57009 8.95544 9.39818 9.12735C9.22627 9.29925 8.99312 9.39583 8.75 9.39583C8.50689 9.39583 8.27373 9.29925 8.10182 9.12735C7.92991 8.95544 7.83334 8.72228 7.83334 8.47917C7.83399 7.81826 8.01326 7.16981 8.35219 6.60242C8.69112 6.03504 9.1771 5.56981 9.75873 5.25595C10.3404 4.94209 10.996 4.79127 11.6563 4.81944C12.3166 4.84762 12.957 5.05375 13.5098 5.41601C14.0626 5.77828 14.5072 6.28322 14.7966 6.87742C15.0859 7.47161 15.2093 8.13297 15.1536 8.79154C15.098 9.4501 14.8654 10.0814 14.4804 10.6186C14.0954 11.1558 13.5724 11.579 12.9667 11.8433Z" fill="black"/>
</svg>
