<svg width="287" height="145" viewBox="0 0 287 145" fill="none" xmlns="http://www.w3.org/2000/svg">
<path d="M278 96V112" stroke="#131F3C" stroke-linecap="round" stroke-linejoin="round"/>
<path d="M286 104H270" stroke="#131F3C" stroke-linecap="round" stroke-linejoin="round"/>
<path d="M9 65V81" stroke="#131F3C" stroke-linecap="round" stroke-linejoin="round"/>
<path d="M17 73H1" stroke="#131F3C" stroke-linecap="round" stroke-linejoin="round"/>
<circle cx="59" cy="46" r="3.5" stroke="#131F3C"/>
<circle cx="227" cy="85" r="3.5" stroke="#131F3C"/>
<circle cx="159" cy="81" r="59" fill="#E2DDFF"/>
<line x1="60.7431" y1="125.571" x2="79.1057" y2="114.571" stroke="#131F3C"/>
<line y1="-0.5" x2="21.4053" y2="-0.5" transform="matrix(0.5 -0.866025 -0.866025 -0.5 78.8301 143.77)" stroke="#131F3C"/>
<line x1="57.6615" y1="144.632" x2="82.6615" y2="121.632" stroke="#131F3C"/>
<path d="M193.433 9.53722C145.012 4.68366 130.622 38.887 113.492 70.064L132.849 89.4211C164.083 72.2338 198.287 57.9586 193.433 9.53722Z" fill="white" stroke="#131F3C" stroke-width="1.5" stroke-linecap="round" stroke-linejoin="round"/>
<path d="M123.999 51.0486L116.519 48.5361C113.979 47.8477 111.3 47.85 108.761 48.5426C106.221 49.2352 103.912 50.5931 102.073 52.4761L94.0216 60.5273C93.5612 60.9918 93.2256 61.5651 93.0459 62.194C92.8662 62.8229 92.8483 63.487 92.9938 64.1246C93.1734 64.719 93.5137 65.2522 93.9772 65.6653C94.4407 66.0785 95.0094 66.3555 95.6204 66.4657L113.55 70.0631" fill="white"/>
<path d="M123.999 51.0486L116.519 48.5361C113.979 47.8477 111.3 47.85 108.761 48.5426C106.221 49.2352 103.912 50.5931 102.073 52.4761L94.0216 60.5273C93.5612 60.9918 93.2256 61.5651 93.0459 62.194C92.8662 62.8229 92.8483 63.487 92.9938 64.1246C93.1734 64.719 93.5137 65.2522 93.9772 65.6653C94.4407 66.0785 95.0094 66.3555 95.6204 66.4657L113.55 70.0631L123.999 51.0486Z" stroke="#131F3C" stroke-width="1.5" stroke-linecap="round" stroke-linejoin="round"/>
<path d="M152.129 79L154.47 86.5373C155.158 89.078 155.156 91.7564 154.463 94.296C153.771 96.8356 152.413 99.1443 150.53 100.984L142.536 109.035C142.09 109.505 141.527 109.847 140.905 110.028C140.283 110.209 139.624 110.221 138.996 110.063C138.387 109.898 137.839 109.564 137.414 109.099C136.989 108.633 136.706 108.057 136.597 107.436L133 89.5065" fill="white"/>
<path d="M152.129 79L154.47 86.5373C155.158 89.078 155.156 91.7564 154.463 94.296C153.771 96.8356 152.413 99.1443 150.53 100.984L142.536 109.035C142.09 109.505 141.527 109.847 140.905 110.028C140.283 110.209 139.624 110.221 138.996 110.063C138.387 109.898 137.839 109.564 137.414 109.099C136.989 108.633 136.706 108.057 136.597 107.436L133 89.5065L152.129 79Z" stroke="#131F3C" stroke-width="1.5" stroke-linecap="round" stroke-linejoin="round"/>
<path fill-rule="evenodd" clip-rule="evenodd" d="M154.273 89.6348C154.247 89.7336 154.219 89.8322 154.19 89.9306C153.496 92.3029 152.135 94.4595 150.247 96.1778L142.235 103.699C141.788 104.137 141.223 104.457 140.6 104.626C139.976 104.795 139.316 104.806 138.686 104.659C138.077 104.505 137.527 104.193 137.101 103.758C136.874 103.527 136.688 103.266 136.547 102.986L137.132 105.95C137.233 106.538 137.497 107.085 137.893 107.526C138.289 107.967 138.801 108.284 139.368 108.439C139.954 108.589 140.568 108.578 141.148 108.406C141.728 108.235 142.252 107.91 142.668 107.465L150.121 99.8354C151.877 98.0922 153.142 95.9043 153.788 93.4977C154.127 92.2337 154.289 90.9334 154.273 89.6348Z" fill="#5A2AE4"/>
<path fill-rule="evenodd" clip-rule="evenodd" d="M112.359 49.2297C112.266 49.256 112.173 49.2835 112.08 49.3121C109.836 50.0037 107.806 51.3257 106.2 53.1417L99.165 60.8545C98.7543 61.2852 98.4579 61.8254 98.3061 62.4199C98.1543 63.0145 98.1526 63.6419 98.3012 64.2381C98.4553 64.815 98.7595 65.3331 99.178 65.7317C99.4007 65.9437 99.6509 66.1172 99.9194 66.2475L97.0967 65.7321C96.5368 65.644 96.014 65.4006 95.5899 65.0304C95.1657 64.6602 94.8577 64.1786 94.7021 63.6422C94.5521 63.0879 94.5546 62.5043 94.7093 61.9511C94.864 61.3979 95.1653 60.8951 95.5825 60.494L102.729 53.3116C104.361 51.6206 106.422 50.3884 108.699 49.7425C109.894 49.4034 111.126 49.2323 112.359 49.2297Z" fill="#5A2AE4"/>
<path d="M115.916 8.94531V20.3655" stroke="#131F3C" stroke-linecap="round" stroke-linejoin="round"/>
<path d="M121.625 14.6543H110.205" stroke="#131F3C" stroke-linecap="round" stroke-linejoin="round"/>
<path d="M187.795 116.801V128.221" stroke="#131F3C" stroke-linecap="round" stroke-linejoin="round"/>
<path d="M193.504 122.51H182.084" stroke="#131F3C" stroke-linecap="round" stroke-linejoin="round"/>
<path d="M122.059 54.418L148.553 80.9127" stroke="#131F3C" stroke-width="1.5" stroke-linecap="round" stroke-linejoin="round"/>
<path d="M111.723 110.891C103.215 119.399 86.8839 116.601 86.8839 116.601C86.8839 116.601 83.8575 100.271 92.5939 91.7626C93.7516 90.3749 95.2108 89.2697 96.8601 88.5312C98.5095 87.7926 100.306 87.4402 102.112 87.5008C103.918 87.5614 105.687 88.0333 107.283 88.8807C108.879 89.7281 110.261 90.9286 111.323 92.3907C112.721 93.4799 113.858 94.8666 114.653 96.4502C115.448 98.0338 115.88 99.7745 115.918 101.546C115.957 103.318 115.6 105.075 114.874 106.692C114.149 108.308 113.072 109.743 111.723 110.891Z" fill="white" stroke="#131F3C" stroke-width="1.5" stroke-linecap="round" stroke-linejoin="round"/>
<path d="M101.932 113.754C95.2275 116.228 87.7188 115.494 87.7188 115.494C87.7188 115.494 87.719 108.546 90.915 103.483C91.5103 102.824 92.2605 102.299 93.1085 101.948C93.9566 101.597 94.8801 101.429 95.8088 101.458C96.7374 101.487 97.6468 101.711 98.4675 102.114C99.2882 102.517 99.9986 103.087 100.545 103.782C101.263 104.299 103.03 106.14 103.439 106.892C103.847 107.645 104.07 108.472 104.089 109.314C104.109 110.155 103.926 110.99 103.553 111.759C103.179 112.527 102.626 113.208 101.932 113.754Z" fill="#5A2AE4"/>
<path d="M154.092 38.6004C154.092 41.3263 155.175 43.9406 157.102 45.8681C159.03 47.7956 161.644 48.8785 164.37 48.8785C167.096 48.8785 169.71 47.7956 171.638 45.8681C173.565 43.9406 174.648 41.3263 174.648 38.6004C174.648 35.8745 173.565 33.2602 171.638 31.3327C169.71 29.4051 167.096 28.3223 164.37 28.3223C161.644 28.3223 159.03 29.4051 157.102 31.3327C155.175 33.2602 154.092 35.8745 154.092 38.6004Z" stroke="#131F3C" stroke-width="1.5" stroke-linecap="round" stroke-linejoin="round"/>
<path fill-rule="evenodd" clip-rule="evenodd" d="M160.861 42.0407C159.149 40.329 158.188 38.0073 158.188 35.5866C158.188 33.9562 158.624 32.3707 159.431 30.9863C158.762 31.3775 158.139 31.8556 157.582 32.4134C155.87 34.1251 154.908 36.4468 154.908 38.8676C154.908 41.2884 155.87 43.61 157.582 45.3218C159.293 47.0335 161.615 47.9952 164.036 47.9952C166.457 47.9952 168.778 47.0335 170.49 45.3218C171.049 44.7629 171.528 44.1389 171.919 43.4678C170.534 44.2771 168.947 44.7142 167.315 44.7142C164.894 44.7142 162.573 43.7525 160.861 42.0407Z" fill="#5A2AE4"/>
<path d="M115.318 69.5447L118.273 64.2266L139.546 84.3175L133.046 87.8629L115.318 69.5447Z" fill="#5A2AE4"/>
</svg>
