<svg width="26" height="26" viewBox="0 0 26 26" fill="none" xmlns="http://www.w3.org/2000/svg">
<path d="M10.5996 12.5667L6.17291 7.94376C5.78386 7.55446 5.52713 7.05263 5.43907 6.50934C5.35101 5.96605 5.43608 5.40883 5.68224 4.91656V4.91656C5.86799 4.54489 6.13942 4.22268 6.47415 3.9765C6.80889 3.73033 7.19733 3.56723 7.60748 3.50066C8.01762 3.4341 8.43771 3.46596 8.83312 3.59363C9.22853 3.7213 9.58793 3.94112 9.8817 4.23496L10.6049 4.95923L11.3292 4.23496C11.6229 3.94112 11.9823 3.7213 12.3778 3.59363C12.7732 3.46596 13.1933 3.4341 13.6034 3.50066C14.0135 3.56723 14.402 3.73033 14.7367 3.9765C15.0715 4.22268 15.3429 4.54489 15.5286 4.91656C15.7747 5.40894 15.8596 5.96623 15.7713 6.50952C15.6831 7.05282 15.4261 7.55458 15.0369 7.94376L10.5996 12.5667Z" stroke="#131F3C" stroke-linecap="round" stroke-linejoin="round"/>
<path d="M5 22.5671C5 23.0976 5.21071 23.6063 5.58579 23.9814C5.96086 24.3564 6.46957 24.5671 7 24.5671C7.53043 24.5671 8.03914 24.3564 8.41421 23.9814C8.78929 23.6063 9 23.0976 9 22.5671C9 22.0367 8.78929 21.528 8.41421 21.1529C8.03914 20.7779 7.53043 20.5671 7 20.5671C6.46957 20.5671 5.96086 20.7779 5.58579 21.1529C5.21071 21.528 5 22.0367 5 22.5671V22.5671Z" stroke="#131F3C" stroke-linecap="round" stroke-linejoin="round"/>
<path d="M12.9995 22.5671C12.9995 23.0976 13.2102 23.6063 13.5853 23.9814C13.9604 24.3564 14.4691 24.5671 14.9995 24.5671C15.5299 24.5671 16.0387 24.3564 16.4137 23.9814C16.7888 23.6063 16.9995 23.0976 16.9995 22.5671C16.9995 22.0367 16.7888 21.528 16.4137 21.1529C16.0387 20.7779 15.5299 20.5671 14.9995 20.5671C14.4691 20.5671 13.9604 20.7779 13.5853 21.1529C13.2102 21.528 12.9995 22.0367 12.9995 22.5671V22.5671Z" stroke="#131F3C" stroke-linecap="round" stroke-linejoin="round"/>
<path d="M1 7.76639L3.48533 16.1792C3.57625 16.5197 3.77704 16.8206 4.05652 17.0353C4.33599 17.2499 4.67853 17.3663 5.03093 17.3664H16.5712C16.9242 17.367 17.2674 17.251 17.5475 17.0362C17.8277 16.8215 18.0289 16.5202 18.12 16.1792L21.5739 3.21493C21.7102 2.70402 22.0114 2.25244 22.4307 1.93032C22.8501 1.6082 23.364 1.43358 23.8928 1.43359H25" stroke="#131F3C" stroke-linecap="round" stroke-linejoin="round"/>
</svg>
