<svg width="16" height="16" viewBox="0 0 16 16" fill="none" xmlns="http://www.w3.org/2000/svg">
<path d="M13.0833 13.0001H3.91667C3.67355 13.0001 3.44039 13.0967 3.26849 13.2686C3.09658 13.4405 3 13.6736 3 13.9167C3 14.1599 3.09658 14.393 3.26849 14.5649C3.44039 14.7368 3.67355 14.8334 3.91667 14.8334H13.0833C13.3264 14.8334 13.5596 14.7368 13.7315 14.5649C13.9034 14.393 14 14.1599 14 13.9167C14 13.6736 13.9034 13.4405 13.7315 13.2686C13.5596 13.0967 13.3264 13.0001 13.0833 13.0001ZM3.96433 11.5279C4.18168 11.6368 4.43339 11.6549 4.66409 11.5783C4.89478 11.5016 5.08558 11.3364 5.1945 11.1191L5.96267 9.58641C6.00077 9.51037 6.05927 9.44644 6.13164 9.40175C6.204 9.35707 6.28737 9.33341 6.37242 9.33341H10.6276C10.7126 9.33341 10.796 9.35707 10.8684 9.40175C10.9407 9.44644 10.9992 9.51037 11.0373 9.58641L11.8055 11.1191C11.8597 11.2267 11.9345 11.3226 12.0257 11.4013C12.117 11.48 12.2228 11.5399 12.3372 11.5777C12.4516 11.6155 12.5723 11.6304 12.6925 11.6215C12.8126 11.6127 12.9299 11.5802 13.0375 11.5261C13.1451 11.4719 13.241 11.3971 13.3197 11.3058C13.3984 11.2146 13.4584 11.1088 13.4962 10.9944C13.5339 10.88 13.5488 10.7592 13.54 10.6391C13.5311 10.5189 13.4987 10.4017 13.4445 10.2941L9.66967 2.7719C9.57187 2.54273 9.40884 2.34737 9.20087 2.21014C8.9929 2.0729 8.74917 1.99985 8.5 2.00007C8.25965 1.99751 8.02365 2.06428 7.82027 2.19239C7.61689 2.3205 7.45474 2.50451 7.35325 2.7224L3.5555 10.2977C3.44659 10.5151 3.42848 10.7668 3.50515 10.9975C3.58182 11.2282 3.74699 11.419 3.96433 11.5279ZM8.29467 4.93341C8.31341 4.89491 8.3426 4.86246 8.37891 4.83977C8.41522 4.81707 8.45718 4.80505 8.5 4.80507C8.54256 4.8052 8.58425 4.81708 8.62049 4.8394C8.65672 4.86172 8.68608 4.89362 8.70533 4.93157L9.8255 7.16824C9.8433 7.20318 9.85179 7.24212 9.85016 7.2813C9.84854 7.32049 9.83684 7.35859 9.81621 7.39193C9.79557 7.42528 9.76669 7.45275 9.73236 7.47169C9.69802 7.49063 9.65938 7.50041 9.62017 7.50007H7.37892C7.3398 7.50015 7.30131 7.49021 7.26712 7.47121C7.23293 7.4522 7.20417 7.42476 7.18359 7.39149C7.16301 7.35823 7.15128 7.32025 7.14953 7.28117C7.14778 7.24209 7.15606 7.20321 7.17358 7.16824L8.29467 4.93341Z" fill="#000000"/>
</svg>
