<svg width="17" height="17" viewBox="0 0 17 17" fill="none" xmlns="http://www.w3.org/2000/svg">
<path fill-rule="evenodd" clip-rule="evenodd" d="M9 1.47266C9 1.19651 8.77614 0.972656 8.5 0.972656C8.22386 0.972656 8 1.19651 8 1.47266V7.99805H1.47314C1.197 7.99805 0.973145 8.2219 0.973145 8.49805C0.973145 8.77419 1.197 8.99805 1.47314 8.99805H8V15.5267C8 15.8029 8.22386 16.0267 8.5 16.0267C8.77614 16.0267 9 15.8029 9 15.5267V8.99805H15.5272C15.8033 8.99805 16.0272 8.77419 16.0272 8.49805C16.0272 8.2219 15.8033 7.99805 15.5272 7.99805H9V1.47266Z" fill="#10111B"/>
</svg>
