<svg width="16" height="14" viewBox="0 0 16 14" fill="none" xmlns="http://www.w3.org/2000/svg">
<g id="Group">
<path id="Vector" d="M14 6V11.32C14 11.7656 13.8055 12.1929 13.4593 12.5079C13.1131 12.823 12.6435 13 12.1538 13H3.84615C3.35652 13 2.88695 12.823 2.54073 12.5079C2.1945 12.1929 2 11.7656 2 11.32V6" stroke="#131F3C" stroke-linecap="round" stroke-linejoin="round"/>
<path id="Vector_2" d="M14.0667 1H1.93333C1.6858 1 1.4484 1.10536 1.27337 1.29289C1.09833 1.48043 1 1.73478 1 2V4H15V2C15 1.86868 14.9759 1.73864 14.929 1.61732C14.882 1.49599 14.8133 1.38575 14.7266 1.29289C14.64 1.20003 14.5371 1.12638 14.4238 1.07612C14.3106 1.02587 14.1892 1 14.0667 1Z" stroke="#131F3C" stroke-linecap="round" stroke-linejoin="round"/>
<path id="Vector_3" d="M6.85714 6H9.14286C9.14286 6 10 6 10 6.75V7.25C10 7.25 10 8 9.14286 8H6.85714C6.85714 8 6 8 6 7.25V6.75C6 6.75 6 6 6.85714 6Z" stroke="#131F3C" stroke-linecap="round" stroke-linejoin="round"/>
</g>
</svg>
