<svg width="14" height="14" viewBox="0 0 14 14" fill="none" xmlns="http://www.w3.org/2000/svg">
<g clip-path="url(#clip0_9217_56284)">
<path fill-rule="evenodd" clip-rule="evenodd" d="M10.9618 0.236098L12.7671 2.06585C12.9151 2.21731 12.9987 2.42147 13 2.63463V10.1951C13 10.4086 12.9163 10.6133 12.7674 10.7643C12.6185 10.9152 12.4165 11 12.2059 11H4.79412C4.5835 11 4.38152 10.9152 4.23259 10.7643C4.08367 10.6133 4 10.4086 4 10.1951V0.804878C4 0.591411 4.08367 0.386687 4.23259 0.235743C4.38152 0.0847994 4.5835 0 4.79412 0H10.4006C10.6109 0.00134772 10.8123 0.0860947 10.9618 0.236098ZM2.771 12.834H10.3543C10.509 12.834 10.6574 12.8954 10.7668 13.0048C10.8762 13.1142 10.9377 13.2626 10.9377 13.4173C10.9377 13.572 10.8762 13.7204 10.7668 13.8298C10.6574 13.9392 10.509 14.0007 10.3543 14.0007H2.771C2.30687 14.0007 1.86175 13.8163 1.53356 13.4881C1.20537 13.1599 1.021 12.7148 1.021 12.2507V2.04232C1.021 1.88761 1.08245 1.73923 1.19185 1.62984C1.30125 1.52044 1.44962 1.45898 1.60433 1.45898C1.75904 1.45898 1.90741 1.52044 2.01681 1.62984C2.1262 1.73923 2.18766 1.88761 2.18766 2.04232V12.2507C2.18766 12.4054 2.24912 12.5537 2.35852 12.6631C2.46791 12.7725 2.61629 12.834 2.771 12.834Z" fill="black"/>
</g>
<defs>
<clipPath id="clip0_9217_56284">
<rect width="14" height="14" fill="black"/>
</clipPath>
</defs>
</svg>
