<svg width="16" height="16" viewBox="0 0 16 16" fill="none" xmlns="http://www.w3.org/2000/svg">
    <g id="Icons/Copy">
        <g id="Vector">
            <path d="M13.7615 3.06585L11.9538 1.2361C11.8042 1.08609 11.6025 1.00135 11.3919 1H5.77808C5.56719 1 5.36494 1.0848 5.21582 1.23574C5.06669 1.38669 4.98292 1.59141 4.98292 1.80488V11.1951C4.98292 11.4086 5.06669 11.6133 5.21582 11.7643C5.36494 11.9152 5.56719 12 5.77808 12H13.1996C13.4105 12 13.6127 11.9152 13.7618 11.7643C13.911 11.6133 13.9947 11.4086 13.9947 11.1951V3.63463C13.9934 3.42147 13.9097 3.21731 13.7615 3.06585Z" fill="#131F3C"/>
            <path d="M11.3456 13.834H3.7523C3.59739 13.834 3.44882 13.7725 3.33928 13.6631C3.22974 13.5537 3.1682 13.4054 3.1682 13.2507V3.04232C3.1682 2.88761 3.10666 2.73923 2.99712 2.62984C2.88758 2.52044 2.73901 2.45898 2.5841 2.45898C2.42919 2.45898 2.28062 2.52044 2.17108 2.62984C2.06154 2.73923 2 2.88761 2 3.04232V13.2507C2 13.7148 2.18462 14.1599 2.51324 14.4881C2.84186 14.8163 3.28756 15.0007 3.7523 15.0007H11.3456C11.5005 15.0007 11.6491 14.9392 11.7586 14.8298C11.8682 14.7204 11.9297 14.572 11.9297 14.4173C11.9297 14.2626 11.8682 14.1142 11.7586 14.0048C11.6491 13.8954 11.5005 13.834 11.3456 13.834Z" fill="#131F3C"/>
        </g>
    </g>
</svg>
