<svg width="16" height="16" viewBox="0 0 16 16" fill="none" xmlns="http://www.w3.org/2000/svg">
    <g id="Icons/Trash">
        <g id="Vector">
            <path d="M12.0647 5.375H3.93472C3.89674 5.37484 3.85915 5.38316 3.82435 5.39943C3.78955 5.4157 3.75832 5.43956 3.73264 5.46949C3.70697 5.49942 3.68742 5.53475 3.67526 5.57322C3.66309 5.6117 3.65857 5.65247 3.66199 5.69292L4.36399 13.9389C4.38863 14.2289 4.51376 14.4985 4.71481 14.6949C4.91585 14.8912 5.17828 15 5.45054 15H10.5489C10.8212 15 11.0836 14.8912 11.2846 14.6949C11.4857 14.4985 11.6108 14.2289 11.6354 13.9389L12.3364 5.69292C12.3397 5.65259 12.3352 5.61194 12.3231 5.57358C12.311 5.53521 12.2915 5.49997 12.266 5.47008C12.2405 5.44015 12.2094 5.41624 12.1747 5.39987C12.1401 5.3835 12.1026 5.37503 12.0647 5.375ZM7.04654 12.9583C7.04654 13.0744 7.00343 13.1856 6.92672 13.2677C6.85 13.3497 6.74594 13.3958 6.63744 13.3958C6.52895 13.3958 6.42489 13.3497 6.34817 13.2677C6.27145 13.1856 6.22835 13.0744 6.22835 12.9583V7.70833C6.22835 7.5923 6.27145 7.48102 6.34817 7.39897C6.42489 7.31693 6.52895 7.27083 6.63744 7.27083C6.74594 7.27083 6.85 7.31693 6.92672 7.39897C7.00343 7.48102 7.04654 7.5923 7.04654 7.70833V12.9583ZM9.77381 12.9583C9.77381 13.0744 9.73071 13.1856 9.65399 13.2677C9.57727 13.3497 9.47322 13.3958 9.36472 13.3958C9.25622 13.3958 9.15217 13.3497 9.07545 13.2677C8.99873 13.1856 8.95563 13.0744 8.95563 12.9583V7.70833C8.95563 7.5923 8.99873 7.48102 9.07545 7.39897C9.15217 7.31693 9.25622 7.27083 9.36472 7.27083C9.47322 7.27083 9.57727 7.31693 9.65399 7.39897C9.73071 7.48102 9.77381 7.5923 9.77381 7.70833V12.9583Z" fill="#BB1A1A"/>
            <path d="M13.4545 3.33333H10.8636C10.8275 3.33333 10.7928 3.31797 10.7672 3.29062C10.7416 3.26327 10.7273 3.22618 10.7273 3.1875V2.45833C10.7273 2.07156 10.5836 1.70063 10.3279 1.42714C10.0721 1.15365 9.7253 1 9.36364 1H6.63636C6.2747 1 5.92786 1.15365 5.67213 1.42714C5.4164 1.70063 5.27273 2.07156 5.27273 2.45833V3.1875C5.27273 3.22618 5.25836 3.26327 5.23279 3.29062C5.20721 3.31797 5.17253 3.33333 5.13636 3.33333H2.54545C2.40079 3.33333 2.26205 3.39479 2.15976 3.50419C2.05747 3.61358 2 3.76196 2 3.91667C2 4.07138 2.05747 4.21975 2.15976 4.32915C2.26205 4.43854 2.40079 4.5 2.54545 4.5H13.4545C13.5992 4.5 13.7379 4.43854 13.8402 4.32915C13.9425 4.21975 14 4.07138 14 3.91667C14 3.76196 13.9425 3.61358 13.8402 3.50419C13.7379 3.39479 13.5992 3.33333 13.4545 3.33333ZM6.36364 3.1875V2.45833C6.36364 2.38098 6.39237 2.30679 6.44352 2.25209C6.49466 2.1974 6.56403 2.16667 6.63636 2.16667H9.36364C9.43597 2.16667 9.50534 2.1974 9.55648 2.25209C9.60763 2.30679 9.63636 2.38098 9.63636 2.45833V3.1875C9.63636 3.22618 9.622 3.26327 9.59642 3.29062C9.57085 3.31797 9.53617 3.33333 9.5 3.33333H6.5C6.46383 3.33333 6.42915 3.31797 6.40358 3.29062C6.378 3.26327 6.36364 3.22618 6.36364 3.1875Z" fill="#BB1A1A"/>
        </g>
    </g>
</svg>
