<svg width="16" height="16" viewBox="0 0 16 16" fill="none" xmlns="http://www.w3.org/2000/svg">
<path d="M14.287 10.8816C14.0974 10.8816 13.9154 10.9557 13.7808 11.088C13.6462 11.2202 13.5697 11.3997 13.5682 11.5874V12.6666C13.5682 12.9095 13.4707 13.1425 13.2972 13.3142C13.1237 13.486 12.8884 13.5825 12.6431 13.5825H3.3569C3.11155 13.5825 2.87626 13.486 2.70277 13.3142C2.52928 13.1425 2.43182 12.9095 2.43182 12.6666V11.5874C2.41559 11.4105 2.33315 11.2461 2.20069 11.1263C2.06822 11.0065 1.89531 10.9401 1.71591 10.9401C1.53651 10.9401 1.3636 11.0065 1.23113 11.1263C1.09867 11.2461 1.01623 11.4105 1 11.5874V12.6666C1 13.2855 1.24832 13.879 1.69032 14.3166C2.13233 14.7542 2.73181 15 3.3569 15H12.6431C13.2682 15 13.8677 14.7542 14.3097 14.3166C14.7517 13.879 15 13.2855 15 12.6666V11.5874C15 11.4002 14.9249 11.2207 14.7912 11.0883C14.6575 10.9559 14.4761 10.8816 14.287 10.8816Z" fill="#1971D8"/>
<path d="M8 1C7.69683 1 7.40608 1.11923 7.19171 1.33147C6.97734 1.5437 6.8569 1.83155 6.8569 2.13169V7.41681C6.8569 7.45549 6.84138 7.49259 6.81376 7.51994C6.78613 7.54728 6.74866 7.56265 6.7096 7.56265H5.14226C5.03635 7.56982 4.93436 7.60519 4.84708 7.66501C4.7598 7.72483 4.69047 7.80688 4.6464 7.9025C4.60234 7.99811 4.58518 8.10373 4.59675 8.20821C4.60832 8.31268 4.64818 8.41211 4.71212 8.496L7.56987 11.7511C7.62498 11.8094 7.6916 11.8558 7.76558 11.8876C7.83957 11.9193 7.91936 11.9357 8 11.9357C8.08064 11.9357 8.16043 11.9193 8.23442 11.8876C8.3084 11.8558 8.37502 11.8094 8.43013 11.7511L11.2879 8.496C11.3518 8.41211 11.3917 8.31268 11.4032 8.20821C11.4148 8.10373 11.3977 7.99811 11.3536 7.9025C11.3095 7.80688 11.2402 7.72483 11.1529 7.66501C11.0656 7.60519 10.9637 7.56982 10.8577 7.56265H9.2904C9.25134 7.56265 9.21387 7.54728 9.18624 7.51994C9.15862 7.49259 9.1431 7.45549 9.1431 7.41681V2.13169C9.1431 1.83155 9.02266 1.5437 8.80829 1.33147C8.59392 1.11923 8.30317 1 8 1Z" fill="#1971D8"/>
</svg>
