<svg width="16" height="16" viewBox="0 0 16 16" fill="none" xmlns="http://www.w3.org/2000/svg">
<g id="IBP/Duplicate.">
<path id="Duplicate" fill-rule="evenodd" clip-rule="evenodd" d="M6.10888 2.13189C6.19853 2.05335 6.33274 2 6.48433 2H11.5545H11.5546C11.706 2.00005 11.84 2.05329 11.9296 2.13169L11.9297 2.13179L13.8383 3.80369C13.9256 3.88029 13.9595 3.96887 13.9596 4.04484V4.04496V10.2331C13.9596 10.3092 13.9257 10.3979 13.8381 10.4746C13.7485 10.5531 13.6143 10.6065 13.4627 10.6065H6.48433C6.33274 10.6065 6.19853 10.5531 6.10888 10.4746C6.02134 10.3979 5.98742 10.3092 5.98742 10.2331V2.37331C5.98742 2.29727 6.02134 2.20857 6.10888 2.13189ZM6.48433 1C6.10713 1 5.7342 1.13067 5.44994 1.37969C5.16356 1.63056 4.98742 1.98612 4.98742 2.37331V10.2331C4.98742 10.6203 5.16356 10.9759 5.44994 11.2268C5.7342 11.4758 6.10713 11.6065 6.48433 11.6065H13.4627C13.8399 11.6065 14.2128 11.4758 14.4971 11.2268C14.7835 10.9759 14.9596 10.6203 14.9596 10.2331V4.04484V4.04472C14.9595 3.6578 14.7835 3.30249 14.4974 3.0517L14.4973 3.0516L12.5886 1.37949L12.5884 1.37939C12.3043 1.13063 11.9317 1.00007 11.5547 1H11.5546H6.48433ZM3.49365 1.87305C3.76979 1.87305 3.99365 2.0969 3.99365 2.37305V11.9795C3.99365 12.0555 4.02757 12.1442 4.11511 12.2209C4.20476 12.2995 4.33897 12.3528 4.49056 12.3528H13.4627C13.7389 12.3528 13.9627 12.5767 13.9627 12.8528C13.9627 13.129 13.7389 13.3528 13.4627 13.3528H4.49056C4.11336 13.3528 3.74043 13.2221 3.45617 12.9731C3.16979 12.7223 2.99365 12.3667 2.99365 11.9795V2.37305C2.99365 2.0969 3.21751 1.87305 3.49365 1.87305ZM1.5 3.62012C1.77614 3.62012 2 3.84397 2 4.12012V13.7266C2 13.8026 2.03392 13.8913 2.12146 13.968C2.21111 14.0465 2.34532 14.0999 2.49691 14.0999H11.4691C11.7452 14.0999 11.9691 14.3237 11.9691 14.5999C11.9691 14.876 11.7452 15.0999 11.4691 15.0999H2.49691C2.1197 15.0999 1.74678 14.9692 1.46252 14.7202C1.17614 14.4693 1 14.1138 1 13.7266V4.12012C1 3.84397 1.22386 3.62012 1.5 3.62012Z" fill="#131F3C"/>
</g>
</svg>
