<svg width="14" height="14" viewBox="0 0 14 14" fill="none" xmlns="http://www.w3.org/2000/svg">
<g id="Group ">
<path id="Path" fill-rule="evenodd" clip-rule="evenodd" d="M9.61529 0.770599C10.0928 0.282113 10.7456 0.00468312 11.4287 0L11.6143 0.00548219C12.2298 0.0460376 12.8125 0.307925 13.2537 0.747185C13.7358 1.23106 14.0045 1.88763 13.9999 2.5708C13.9953 3.25389 13.7177 3.90676 13.2327 4.38044L4.7749 12.8384C4.71947 12.8938 4.65017 12.9333 4.57425 12.9528L0.546579 13.9859C0.224426 14.0685 -0.0684602 13.7756 0.0141222 13.4535L1.04656 9.42573C1.06603 9.34978 1.10555 9.28045 1.16099 9.22501L9.61529 0.770599ZM12.6354 1.36592C12.3168 1.04866 11.8846 0.871874 11.4349 0.87488L11.286 0.882506C10.8912 0.920304 10.5203 1.09671 10.2378 1.38568L1.86436 9.75858L1.04541 12.9539L4.23984 12.135L12.618 3.75807C12.9038 3.47887 13.0799 3.10835 13.1177 2.71378L13.1253 2.56481C13.1283 2.11525 12.9515 1.68315 12.6354 1.36592Z" fill="#131F3C"/>
<g id="Vector">
<path d="M9.37709 1.00899C9.52895 0.857131 9.76468 0.840257 9.93518 0.958373L9.99577 1.00899L12.9904 4.0037C13.1613 4.17454 13.1613 4.45154 12.9904 4.62239C12.8386 4.77425 12.6028 4.79112 12.4323 4.67301L12.3717 4.62239L9.37709 1.62769C9.20624 1.45684 9.20624 1.17984 9.37709 1.00899Z" fill="#131F3C"/>
<path d="M1.16106 9.22421C1.31279 9.07221 1.54851 9.05513 1.71911 9.1731L1.77974 9.22366L4.77731 12.216C4.9483 12.3867 4.94854 12.6637 4.77785 12.8347C4.62612 12.9867 4.39041 13.0038 4.2198 12.8858L4.15917 12.8353L1.16161 9.8429C0.990614 9.6722 0.990371 9.3952 1.16106 9.22421Z" fill="#131F3C"/>
</g>
</g>
</svg>
