<svg width="16" height="16" viewBox="0 0 16 16" fill="none" xmlns="http://www.w3.org/2000/svg">
<path d="M1.84502 12.5C2.06515 12.5024 2.27762 12.4096 2.43812 12.2407L6.21618 8.27915C6.26934 8.22109 6.34063 8.18859 6.41487 8.18859C6.4891 8.18859 6.56039 8.22109 6.61355 8.27915L7.87686 9.70159C8.25866 10.1103 8.76636 10.3384 9.29437 10.3384C9.82238 10.3384 10.3301 10.1103 10.7119 9.70159L12.8174 7.34858C12.8306 7.3337 12.8463 7.3219 12.8636 7.31385C12.8809 7.3058 12.8995 7.30166 12.9182 7.30166C12.937 7.30166 12.9555 7.3058 12.9728 7.31385C12.9901 7.3219 13.0058 7.3337 13.019 7.34858L14.0273 8.47191C14.0797 8.53203 14.1425 8.57954 14.2119 8.61154C14.2812 8.64354 14.3556 8.65936 14.4306 8.65802C14.5057 8.65823 14.5802 8.64244 14.6501 8.61149C14.7523 8.56002 14.8395 8.47713 14.9014 8.37243C14.9633 8.26773 14.9975 8.1455 15 8.01992V4.16469C15 3.98841 14.9375 3.81934 14.8263 3.69468C14.7151 3.57003 14.5642 3.5 14.4069 3.5H10.9966C10.8872 3.50951 10.7824 3.55281 10.6937 3.62509C10.605 3.69737 10.5359 3.79579 10.4941 3.90943C10.4523 4.02307 10.4395 4.14747 10.457 4.2688C10.4745 4.39014 10.5216 4.50366 10.5933 4.59674L11.6015 5.72008C11.615 5.7347 11.6257 5.75228 11.6328 5.77172C11.6399 5.79117 11.6434 5.81205 11.643 5.83307C11.6442 5.85421 11.6411 5.87536 11.6339 5.89494C11.6267 5.91451 11.6156 5.932 11.6015 5.94607L9.48416 8.32568C9.42933 8.38267 9.3573 8.41434 9.28251 8.41434C9.20772 8.41434 9.13569 8.38267 9.08085 8.32568L7.81162 6.90323C7.44333 6.49167 6.94572 6.25835 6.42564 6.25338C5.90556 6.24841 5.40448 6.47218 5.02997 6.87664L1.25785 10.8648C1.09933 11.038 1.00702 11.2734 1.00038 11.5214C0.993746 11.7694 1.0733 12.0106 1.22227 12.1942C1.30118 12.2912 1.39739 12.3685 1.50467 12.4212C1.61195 12.4739 1.7279 12.5007 1.84502 12.5Z" fill="#131F3C"/>
</svg>
