<svg width="16" height="16" viewBox="0 0 16 16" fill="none" xmlns="http://www.w3.org/2000/svg">
    <g id="General/Share" clip-path="url(#clip0_2871_619)">
        <path id="Vector" d="M9.5 11.502H13.5M13.5 11.502L12 13.002M13.5 11.502L12 10.002M5.5 10.502H1.5C1.23478 10.502 0.98043 10.3966 0.792893 10.2091C0.605357 10.0215 0.5 9.76717 0.5 9.50195V1.50195C0.5 1.23674 0.605357 0.982383 0.792893 0.794846C0.98043 0.60731 1.23478 0.501953 1.5 0.501953H13.5C13.7652 0.501953 14.0196 0.60731 14.2071 0.794846C14.3946 0.982383 14.5 1.23674 14.5 1.50195V6.00062M14.2733 0.867286L8.844 5.04462C8.45858 5.34114 7.98595 5.50191 7.49967 5.50191C7.01339 5.50191 6.54075 5.34114 6.15533 5.04462L0.726 0.867286M7.5 11.502C7.5 12.0272 7.60346 12.5474 7.80448 13.0327C8.0055 13.518 8.30014 13.9589 8.67157 14.3304C9.04301 14.7018 9.48396 14.9965 9.96927 15.1975C10.4546 15.3985 10.9747 15.502 11.5 15.502C12.0253 15.502 12.5454 15.3985 13.0307 15.1975C13.516 14.9965 13.957 14.7018 14.3284 14.3304C14.6999 13.9589 14.9945 13.518 15.1955 13.0327C15.3965 12.5474 15.5 12.0272 15.5 11.502C15.5 10.9767 15.3965 10.4565 15.1955 9.97122C14.9945 9.48592 14.6999 9.04496 14.3284 8.67353C13.957 8.30209 13.516 8.00745 13.0307 7.80644C12.5454 7.60542 12.0253 7.50195 11.5 7.50195C10.9747 7.50195 10.4546 7.60542 9.96927 7.80644C9.48396 8.00745 9.04301 8.30209 8.67157 8.67353C8.30014 9.04496 8.0055 9.48592 7.80448 9.97122C7.60346 10.4565 7.5 10.9767 7.5 11.502Z" stroke="#131F3C" stroke-linecap="round" stroke-linejoin="round"/>
    </g>
    <defs>
        <clipPath id="clip0_2871_619">
            <rect width="16" height="16" fill="white"/>
        </clipPath>
    </defs>
</svg>
