<svg width="16" height="16" viewBox="0 0 16 16" fill="none" xmlns="http://www.w3.org/2000/svg">
<g id="Left icon" clip-path="url(#clip0_1481_1295)">
<path id="Vector" d="M0.734375 7.99902C0.734375 9.92599 1.49986 11.774 2.86243 13.1366C4.225 14.4992 6.07304 15.2646 8 15.2646C9.92696 15.2646 11.775 14.4992 13.1376 13.1366C14.5001 11.774 15.2656 9.92599 15.2656 7.99902C15.2656 6.07206 14.5001 4.22402 13.1376 2.86145C11.775 1.49888 9.92696 0.733398 8 0.733398C6.07304 0.733398 4.225 1.49888 2.86243 2.86145C1.49986 4.22402 0.734375 6.07206 0.734375 7.99902Z" stroke="black" stroke-linecap="round" stroke-linejoin="round"/>
<path id="Vector_2" d="M6.0625 10.3336C6.06267 10.5364 6.12121 10.7349 6.23112 10.9054C6.34104 11.0758 6.49769 11.211 6.68237 11.2948C6.86705 11.3787 7.07196 11.4076 7.27262 11.3781C7.47328 11.3486 7.66122 11.262 7.814 11.1286L11.3906 8.00021L7.814 4.86986C7.66132 4.73618 7.47334 4.64934 7.27259 4.61971C7.07183 4.59009 6.86678 4.61894 6.682 4.70282C6.49721 4.78669 6.3405 4.92204 6.23064 5.09266C6.12077 5.26328 6.0624 5.46195 6.0625 5.66488V10.3336Z" stroke="black" stroke-linecap="round" stroke-linejoin="round"/>
</g>
<defs>
<clipPath id="clip0_1481_1295">
<rect width="16" height="16" fill="white"/>
</clipPath>
</defs>
</svg>
