<svg width="14" height="16" viewBox="0 0 14 16" fill="none" xmlns="http://www.w3.org/2000/svg">
<g id="Group">
<path id="Vector" d="M10.7845 3.84729C10.7912 3.57602 10.9037 3.31814 11.098 3.12869C11.2923 2.93925 11.5529 2.83325 11.8243 2.83333C11.9605 2.83333 12.0954 2.86027 12.2212 2.9126C12.347 2.96494 12.4612 3.04163 12.5572 3.13827C12.6533 3.23491 12.7293 3.34959 12.7808 3.4757C12.8324 3.60182 12.8584 3.73688 12.8576 3.87313V11.72C12.8588 12.1851 12.7681 12.6459 12.5908 13.076C12.4135 13.506 12.153 13.8967 11.8243 14.2258C11.1595 14.8903 10.2584 15.2642 9.31843 15.2656H7.29697C6.61342 15.2664 5.94027 15.0982 5.33744 14.7759C4.73461 14.4537 4.22081 13.9874 3.84177 13.4185L1.31656 9.6275C1.19993 9.45249 1.1377 9.24688 1.1377 9.03656C1.1377 8.82625 1.19993 8.62064 1.31656 8.44563C1.39867 8.32322 1.50528 8.21919 1.62966 8.14009C1.75403 8.061 1.89346 8.00856 2.03913 7.9861C2.18481 7.96365 2.33355 7.97165 2.47597 8.00962C2.6184 8.04758 2.75139 8.11468 2.86656 8.20667L4.55864 9.55646V2.83333C4.55864 2.55928 4.66751 2.29644 4.8613 2.10266C5.05508 1.90887 5.31792 1.8 5.59197 1.8C5.86663 1.79999 6.13013 1.90866 6.32494 2.10226C6.51976 2.29587 6.63006 2.55868 6.63177 2.83333V1.77417C6.63168 1.50281 6.73768 1.24218 6.92712 1.04791C7.11657 0.853635 7.37446 0.741117 7.64572 0.734375C7.78227 0.734375 7.91748 0.76127 8.04363 0.813524C8.16979 0.865779 8.28441 0.942369 8.38097 1.03892C8.47752 1.13548 8.55411 1.2501 8.60637 1.37626C8.65862 1.50241 8.68552 1.63762 8.68552 1.77417V2.83333C8.68552 2.55928 8.79438 2.29644 8.98817 2.10266C9.18196 1.90887 9.44479 1.8 9.71885 1.8C9.85701 1.79656 9.99447 1.82071 10.1232 1.87102C10.2519 1.92132 10.3693 1.99679 10.4685 2.093C10.5678 2.18922 10.6468 2.30424 10.7011 2.43136C10.7553 2.55847 10.7837 2.69513 10.7845 2.83333V3.84729Z" stroke="#BB1A1A" stroke-linecap="round" stroke-linejoin="round"/>
<path id="Vector_2" d="M6.63184 2.80762V6.96033" stroke="#BB1A1A" stroke-linecap="round" stroke-linejoin="round"/>
<path id="Vector_3" d="M8.71094 2.80762V6.96033" stroke="#BB1A1A" stroke-linecap="round" stroke-linejoin="round"/>
<path id="Vector_4" d="M10.7852 6.96057V3.84766" stroke="#BB1A1A" stroke-linecap="round" stroke-linejoin="round"/>
</g>
</svg>
